<?xml version="1.0" encoding="UTF-8"?>
<svg id="Layer_1" data-name="Layer 1" xmlns="http://www.w3.org/2000/svg" xmlns:xlink="http://www.w3.org/1999/xlink" viewBox="0 0 595.28 595.28">
  <defs>
    <style>
      .cls-1 {
        fill: none;
      }

      .cls-2 {
        clip-path: url(#clippath);
      }
    </style>
    <clipPath id="clippath">
      <path class="cls-1" d="M539.36,297.52c31.83-31.43,51.56-75.09,51.56-123.36C590.91,78.4,513.29.78,417.53.78c-46.54,0-88.79,18.34-119.93,48.17C266.46,19.11,224.21.78,177.67.78,81.91.78,4.29,78.4,4.29,174.16c0,48.27,19.73,91.92,51.56,123.36-31.83,31.43-51.56,75.09-51.56,123.36,0,95.76,77.63,173.38,173.38,173.38,46.54,0,88.79-18.34,119.93-48.17,31.14,29.84,73.39,48.17,119.93,48.17,95.76,0,173.38-77.63,173.38-173.38,0-48.27-19.73-91.92-51.56-123.36Z"/>
    </clipPath>
  </defs>
  <g class="cls-2">
    <image width="1024" height="1024" transform="translate(-20.62) scale(.61)" xlink:href="img/009.png"/>
  </g>
</svg>