<?xml version="1.0" encoding="UTF-8"?>
<svg id="Layer_2" data-name="Layer 2" xmlns="http://www.w3.org/2000/svg" viewBox="0 0 231.55 270.55">
  <defs>
    <style>
      .cls-1 {
        fill: #fff1e9;
      }

      .cls-2 {
        fill: #aab664;
      }

      .cls-3 {
        fill: #db824a;
      }

      .cls-4 {
        fill: #24331c;
      }

      .cls-5 {
        fill: none;
        stroke: #fff4ee;
        stroke-linecap: round;
        stroke-miterlimit: 10;
        stroke-width: 4px;
      }
    </style>
  </defs>
  <g id="Layer_2-2" data-name="Layer 2">
    <g>
      <path class="cls-2" d="M158.97,249.93h0c-3.48,17.11-6.82,18.32-12.7,19.66s-13.1-2.14-16.31-10.96c-3.21-8.82-5.35-4.28-5.35-4.28-2.47,15.24-7.96,12.92-7.96,12.92-10.16.53-14.77-16.94-14.77-16.94-6.15-12.3-8.56-55.36-8.56-55.36-18.18,7.22-39.31,6.95-39.31,6.95-45.73-.27-50.01-26.47-50.54-33.96-.53-7.49,0-34.5,8.82-41.18,8.82-6.69,8.82,6.15,9.89,13.64,1.07,7.49-8.82,38.78,27.81,41.45s37.48-16.98,37.48-16.98l12.61-6.06,63.63,5.31s13.35,22.04,12.97,23.03,2.48,26.25,2.48,26.25l-3.55,16.1-5.99,6.71-10.65,13.69Z"/>
      <path class="cls-3" d="M158.32,203.62l-19.85-6.24h-8.59l-6.16,16.87-4.33,24.18,16.93,6.41,50.23,12.7s5.46-.97,5.72-2.57,6.81-35.57,6.81-35.57l-1.73-5.81-16.72-3.28-4.11,16.68-3.92,7.77-5.19,1.06s-4.56-14.81-4.96-16.68-4.14-15.51-4.14-15.51Z"/>
      <path class="cls-2" d="M75.4,30.58s-.4-29.68,22.46-29.68,16.45,20.86,16.45,20.86c0,0,23.67-4.88,38.11.4,0,0,10.03-24.07,30.89-16.04,20.86,8.02,12.03,32.49,12.03,32.49,0,0,49.74,32.09,27.28,74.61,0,0-20.25,42.12-70.69,54.55-50.45,12.43-92.96-14.84-99.78-20.46-6.82-5.62-41.32-27.28-16.04-75.01,0,0,12.43-24.87,39.31-41.72Z"/>
      <path class="cls-4" d="M78.66,29.71c-.09-7.98,2.15-17.21,7.53-23.27,2.01-2.27,4.4-3.82,7.15-5.04,3.81-1.69-6.24,1.28-3.13.79.49-.08.97-.17,1.46-.24.87-.11,1.73-.16,2.61-.17,2.27-.04,4.58.15,6.79.68,5.41,1.3,9.45,4.96,10.51,10.5.6,3.13.42,6.62-.51,9.68l.12-.02c12.04-2.46,26.23-3.71,37.99.42.56.2,6.35-1.33,6.52-1.75,1.88-4.46,4.97-8.69,8.55-11.9,1.44-1.3,3.03-2.45,4.74-3.38.82-.44,1.66-.77,2.5-1.15,3.94-1.76-7.03,1.3-2.65.72.8-.11,1.6-.2,2.41-.22,5.07-.14,10.35,1.66,14.43,4.64,6.82,4.99,8.89,13.36,8.1,21.42-.24,2.45-.89,4.74-1.38,7.13-.25,1.18-.37.64.42,1.41,1.23,1.2,2.92,2.12,4.28,3.19,2.29,1.83,4.5,3.76,6.62,5.79,5.82,5.57,11.03,11.88,14.93,18.95,4.48,8.14,7.07,17.33,6.47,26.67-.47,7.31-2.88,14.21-6.31,20.63-5.87,10.99-14.33,20.83-23.63,29.03-8.03,7.08-17.06,13.03-26.79,17.52-2.69,1.24-5.44,2.38-8.23,3.4-1.54.56-3.1,1.09-4.66,1.58-.41.13-3.57.95-1.39.43-.98.24-1.97.45-2.95.66-7.45,1.55-15.06,2.3-22.67,2.3-21.82-.02-43.69-6.23-62.67-16.91-8.64-4.86-17.16-11.16-23.68-18.66-25.84-29.73-3.97-70.09,20.63-92.64,4.94-4.53,10.27-8.6,15.94-12.19-1.8,1.14-4.7.59-6.52,1.75C42.42,50.28,7.58,95.4,31.54,131.04c5.84,8.69,14.56,15.84,23.41,21.36,18.07,11.26,39.41,18.09,60.66,19.27,13.84.77,27.2-1.34,40.51-4.98,11.55-3.16,22.54-7.8,32.6-14.35,13.76-8.97,25.75-21.08,34.37-35.08,7.82-12.7,11-27.37,6.16-41.82-4.83-14.44-15.73-26.64-27.76-35.65-.54-.4-2.6-1.4-2.85-2.03-.27-.68.82-3.06.97-3.81,1.52-7.15,1.28-15.3-3.16-21.43-3.05-4.21-7.79-6.93-12.77-8.21s-9.73-.28-14.75,1.08c-7.72,2.09-13.38,6.66-17.56,13.46-.82,1.34-1.61,2.73-2.22,4.17l6.52-1.75c-10.97-3.86-23.64-2.77-34.94-.96-.4.06-2.87.82-3.18.56.02.02.19-.72.27-1,.65-2.39.73-5.11.43-7.55C117.04,2.49,107.36-.81,98.49.16c-9.23,1.01-17.9,4.57-22.25,13.14-2.77,5.46-4.17,12.03-4.1,18.16,0-.51,6.53-1.14,6.52-1.75Z"/>
      <path class="cls-4" d="M127.16,255.42c.37-.96.63-2.68,1.86-3.06-2.14.57-4.27,1.14-6.41,1.71,2.15-.27,3.36,3.55,3.9,4.94,1.34,3.38,3.03,6.51,5.94,8.8,4.21,3.31,8.68,3.18,13.57,1.91,3.43-.89,7.58-1.46,10.14-4.18,3.92-4.18,4.97-11.14,6.07-16.48-.2.95-6.31.71-6.52,1.75-1.14,5.5-2.23,13.33-6.85,17.22-.63.53-1.34.96-2.1,1.3-.41.18-.87.27-1.27.48-.46.23,6.13-1.4,4.27-1.16-.47.06-.92.2-1.39.26-3.13.38-6.31-.61-8.85-2.43-3.41-2.44-5.13-5.92-6.67-9.69-.77-1.88-1.76-4.72-4.17-4.36-1.79.27-3.65.91-5.38,1.44-.58.18-1.07.27-1.51.71-.35.35-.42.71-.62,1.14-.87,1.93.13,6.67-.96,8.51,0,0-.63,1.84-2.85,1.51-5.34-.77-9.24-9.35-11.31-14-3.97-8.89-5.46-18.54-6.71-28.13s-2.2-19.66-2.75-29.52c.01.19-5.93,1.52-6.52,1.75-1.33.52-2.66,1.01-4.02,1.46-.46.15-.93.3-1.39.45-.09.03-1.62.47-.55.18s-.44.09-.54.11c-.61.13-1.21.27-1.81.4-1.43.3-2.87.57-4.31.81-3.5.59-7.03,1.04-10.57,1.34-3.83.33-7.68.51-11.52.42-12.25-.27-25.46-2.4-35.51-9.92-5.72-4.28-9.94-10.25-11.9-17.13-1.77-6.2-1.51-12.83-1.14-19.2.36-6.05,1.06-12.18,2.73-18.02.71-2.5,1.61-5.01,2.95-7.25s2.97-3.44,5.09-4.88c1.88-1.27-6,.43-4.19,1.16.16.07.42-.02.58.07.39.22.78.29,1.16.57.81.61,1.29,1.58,1.66,2.49.98,2.41,1.26,5.11,1.57,7.68.39,3.26.72,6.27.5,9.54-.49,7.25-.96,14.79,1.94,21.64,4.41,10.42,15.42,14.17,25.94,14.96,6.72.5,13.58.36,20.16-1.21,4.95-1.18,10.21-2.35,14.67-4.93,3.69-2.13,9.12-6.94,9.08-11.79,0-.26.09-.53.1-.8-.03.64-6.49,1.01-6.52,1.75h0c-.18,3.63-2.58,7.22-5.13,9.62-1.45,1.36-3.1,2.48-4.84,3.41-.94.5-1.92.94-2.91,1.33-.81.32-3.55,1.12-.51.3,3.26-.88-.56.01-1.38.14-7.43,1.16-15.46,1.04-22.83-.46-9.96-2.02-18.09-7.87-20.59-18.03-1.72-6.99-.48-13.83-.48-20.87,0-4.25-.59-9.28-1.96-13.3-.62-1.83-1.68-3.85-3.88-3.86-2.44,0-5.49,1.15-7.77,1.98-4.92,1.79-7.23,6.93-8.66,11.59-1.81,5.9-2.56,12.15-2.95,18.29-.43,6.61-.73,13.54,1.14,19.98,2.08,7.15,6.6,13.28,12.66,17.57,10.49,7.41,24.15,9.33,36.69,9.36,11.91.02,23.63-2.14,35.08-5.26,3.62-.99,7.19-2.08,10.69-3.44l-6.52,1.75c.78,13.87,2.04,27.86,4.63,41.52,1.99,10.54,7.89,31.83,21.16,32.22,0,0,8.76.89,9.6-9.56s-2.79-4.16-2.79-4.16"/>
      <path class="cls-4" d="M154.17,200.93c1.77,8.18,3.56,16.35,5.44,24.5.71,3.1,1.37,9.43,4.55,11.27,2.38,1.38,6.78-.69,9.02-1.34,2.5-.72,3.72-2.52,4.85-4.8,2.03-4.09,3.09-8.7,3.8-13.19,1.87-11.9.78-23.07-3.85-34.18-2.9-6.96-6.59-13.79-11-19.92-.49-.68-6.08,2.36-6.52,1.75,8.93,12.4,16.08,27.71,15.78,43.2-.16,8.43-.98,19.19-6.04,26.35-.55.78-1.68,1.37-2.14,2.09.2-.32,5.73-1.06,4.65-1.31-.19-.04-.43.07-.63.01-.5-.13-.94-.14-1.4-.41-2.89-1.67-3.58-7.15-4.25-9.99-2.03-8.56-3.87-17.18-5.73-25.78.01.06-6.56,1.59-6.52,1.75h0Z"/>
      <path class="cls-4" d="M85.95,55.09c-1.53,0-2.48-1.09-2.8-1.75-.16-.48-2.25-7.76,4.06-22.02.85-1.93,1.69-3.57,2.51-4.98,1.25-3.94,2.78-7.19,4.63-8.56.92-.68,1.93-.94,2.93-.74,2.52.49,4.15,1.52,4.98,3.15,1.9,3.72-.48,10.22-6.18,22.5-3.86,8.31-7.16,12.37-10.09,12.4h-.04ZM85.23,52.49s.34.36.75.34c.29,0,.93-.17,1.91-1.11-.52.34-.95.37-1.39.25-.94-.27-1.24-1.29-1.19-2.16.12-1.16.64-5.92,1.61-11.46-2.91,9.04-1.78,13.79-1.69,14.15,0,0,0,0,0,0ZM88.56,42.31c-.37,2.4-.66,4.59-.86,6.34.5-.7,1.2-1.81,2.16-3.56.07-.12.14-.25.2-.37-.14-.03-.28-.09-.41-.16-.62-.35-.97-1.05-1.09-2.24ZM91.16,37.54c-.23,1.12-.36,2.23-.39,3.29-.01.46,0,.81.02,1.08,1.21-1.74,3.08-6.56,3.35-10.75-.54,1.91-1.13,4.4-1.58,6.66l-1.39-.28ZM97.79,21.42c.69,0,1.28.43,1.53,1.16.92,2.56-1.31,10.13-4.38,17.19,4.44-9.71,6.67-15.89,5.31-18.56-.15-.29-.38-.63-.82-.96l-.05.19s-3.23-.61-7.6,6.83c-.41,1.36-.8,2.82-1.16,4.34,2.01-5.23,5-9.85,6.9-10.16.09-.02.18-.02.27-.02ZM95.66,26.42c.57.62.66,1.81.72,2.67,0,.04,0,.08,0,.12.61-2.18.95-3.97.93-5.07-.46.48-1.04,1.27-1.66,2.28Z"/>
      <path class="cls-4" d="M176.16,60.39c-1.3,0-2.68-.79-4.11-2.37-1.56-1.72-2.54-4.37-3.12-7.39-.01-.06-.03-.12-.06-.17-4.13-8.55-6.67-23.22-1.35-27.93,2.14-1.89,4.02-1.68,5.22-1.18,5.55,2.34,8.57,16.25,8.88,22.82.25,5.18-.37,14.37-4.23,15.97-.4.17-.81.25-1.23.25ZM173.9,56.7c.7.73,1.82,1.69,2.63,1.35.64-.26,1.2-1.14,1.66-2.44-.66.79-1.4,1.16-2.02,1.32-.63.17-1.39.17-2.27-.23ZM171,49.7c.14.29.29.58.44.85,1.84,3.43,3.38,4.41,4.15,4.21.27-.07.5-.22.7-.41-1-.32-2.03-1.71-3.38-3.9-.87-1.41-1.66-2.98-2.36-4.63.09,1.33.24,2.64.45,3.87ZM173.42,44.36c-.5.09-.79.63-.58,1.09.59,1.33,1.26,2.62,2,3.83.54.88.96,1.49,1.28,1.93-.18-1.92-.99-5.95-3.19-14.02.35,2.04.74,4.17,1.12,6.25.08.43-.2.84-.63.92h0ZM173.17,29.72c2.59,9.02,4,14.65,4.68,18.2,0-5.83-1.98-13.59-4.68-18.2ZM170.49,38.5c0,.08,0,.16.03.24.28,1.08.61,2.18.99,3.28-.35-1.91-.66-3.62-.94-5.16-.03.53-.06,1.08-.08,1.64ZM167.02,28.52c-.62,3.63-.05,8.64,1.16,13.32,0-.97,0-1.93.04-2.86,0-.07,0-.14-.02-.2-.97-3.83-1.41-7.53-1.17-10.26ZM171.54,24.51c.41.24.85.59,1.33,1.06,1.92,1.92,3.64,5.25,4.91,9.04-1.4-5.31-3.55-10.2-5.92-11.2-.32-.13-.73-.25-1.28-.12.36.14.65.52.95,1.21ZM169,24.2l-.04.03s.02-.01.03-.02c0,0,0-.01,0-.02Z"/>
      <path class="cls-4" d="M101.9,85.29c6.64.57,13.95.29,20.26-1.93,3.67-1.29,7.25-3.4,9.47-6.65.84-1.23,2.67-3.9,1.35-5.41-.66-.76-1.95-.8-2.85-.5-1.66.56-2.92,1.48-3.44,3.14-.65,2.08-.1,4.27,1.16,6.01,2.81,3.87,8.01,5.73,12.4,7.02,6.12,1.8,12.5,2.32,18.77,1.01,4.76-.99,9.07-3.02,13.22-5.5,1.9-1.14,3.83-2.4,5.41-3.96-.51.51-1.43.61-1.95,1.13-1.13,1.11-2.46,2.06-3.78,2.93-.28.19-.57.37-.86.55-.93.6.18-.08.18-.09,0,.01-.5.27-.6.33-.97.51-1.96.98-2.97,1.4-1.99.84-4.06,1.5-6.17,1.98-5.4,1.21-11.02,1.12-16.4-.13-4.66-1.08-9.77-2.67-13.48-5.84-1.8-1.54-3.26-3.64-3.26-6.09,0-1.36.52-2.28,1.08-3.45.3-.62,3.02.24-1.47.79.19-.02.39-.14.58-.17.45-.09.95-.1,1.4,0,1.16.27,1.63,1.22,1.46,2.36-.31,2.06-1.91,4.21-3.31,5.66-.3.31-.63.61-.97.88-.17.14-.35.27-.53.4-1.15.82.15.03.15-.03.02.28-2.6,1.12-2.92,1.22-6.25,2.12-13.43,2.4-19.98,1.84-.62-.05-1.35,1.18-1.95,1.13h0Z"/>
      <g>
        <path class="cls-3" d="M75.53,100.02c.57-2.58,1.12-5.16,1.67-7.74.76-3.58,1.5-7.17,2.24-10.76,2.53-.71,5.1-1.33,7.69-1.75.98-.16,1.98-.31,2.98-.29.33,0,1.16-.01,1.24.44-.02-.1.89-.38.87-.5-.07-.39-.71-.42-1.01-.44-.82-.05-1.65.05-2.46.17-2.4.33-4.76.88-7.1,1.5-.72.19-1.44.4-2.15.62.23-1.11.47-2.22.69-3.34.32-1.56.63-3.11.94-4.67.1-.49.2-.98.29-1.47.04-.19.19-.56.15-.75,0-.02.01-.07.02-.1-.04.21-.82.28-.87.5-.37,1.88-.75,3.76-1.13,5.64-.3,1.48-.61,2.96-.92,4.44-2.19.7-4.36,1.47-6.57,2.11-4.6,1.33-9.24,2.53-13.89,3.69,1.65-4.56,3.41-9.08,5.29-13.55.7-1.67,1.41-3.33,2.15-4.98.23-.51.45-1.02.68-1.53.1-.22.35-.57.37-.81,0-.03.03-.07.05-.1-.11.24-.75.25-.87.5-.97,2.08-1.88,4.2-2.78,6.31-2.01,4.73-3.89,9.52-5.64,14.35-3.06.76-6.11,1.51-9.17,2.25-2.27.56-4.54,1.11-6.81,1.65-.31.07-.56.43-.87.5,5.59-1.34,11.17-2.71,16.74-4.12-.1.28-.21.56-.31.84-1.98,5.55-3.78,11.18-5.25,16.89-2.81,1.03-5.55,2.23-8.16,3.65-1.02.56-2.07,1.12-3.02,1.79.27-.19.59-.31.87-.5.16-.11.33-.22.49-.32.16-.1.39-.24.49-.3.02,0,.02-.01.05-.03.19-.1.37-.21.56-.31,2.09-1.12,4.26-2.08,6.47-2.94.73-.28,1.46-.54,2.2-.81-.19.74-.4,1.48-.57,2.23-.76,3.18-1.4,6.39-1.84,9.63-.27,2.05-.38,4.1-.57,6.15-.14,1.55-.84,9.66,2.54,7.88.09-.05.17-.1.25-.15-.14.13.55-.23.33-.2.21-.12.43-.24.63-.38-.21.14-.44.25-.66.38,0,0,0,0-.02,0-.08.02-.16.06-.25.08-.16.04-.33.06-.5.03-.28-.05-.52-.21-.7-.43-.49-.58-.65-1.44-.75-2.17-.26-1.8-.17-3.66-.01-5.46.17-1.93.27-3.87.52-5.79.4-3.12,1-6.21,1.7-9.27.22-.95.47-1.9.71-2.85,7.15-2.48,14.62-4.01,22.12-4.95-.53,2.43-1.07,4.87-1.63,7.3-1.19,5.2-2.41,10.39-3.8,15.55-.52,1.93-1.06,3.85-1.67,5.75-.4,1.23-.8,2.49-1.4,3.63-.09.17-.18.33-.29.49.16-.25.7-.25.87-.5.6-.89.95-1.97,1.3-2.98.61-1.75,1.13-3.53,1.62-5.31,1.39-4.98,2.59-10.01,3.75-15.04.69-2.99,1.36-5.98,2.02-8.98,7.27-.87,14.6-1.17,21.93-1.03.29,0,.58-.51.87-.5-7.57-.14-15.18.17-22.7,1.12ZM42.44,109.88s-.07.04,0,0h0ZM61.27,102.66c-2.91.73-5.82,1.58-8.67,2.59,1.38-5.39,3.05-10.7,4.9-15.95.2-.56.4-1.12.61-1.68.07-.02.15-.04.22-.05,3.95-1,7.89-2.01,11.81-3.11,2.86-.8,5.64-1.87,8.49-2.7-.62,3.01-1.23,6.02-1.86,9.02-.66,3.12-1.33,6.23-2.01,9.34-4.54.6-9.04,1.43-13.48,2.54Z"/>
        <path class="cls-3" d="M207.08,91.07c4.16.05,8.31.32,12.42.95.26.04.61-.54.87-.5-4.35-.67-8.75-.95-13.16-.98.98-3.95,1.95-7.9,2.91-11.85.38-1.58.76-3.17,1.14-4.75.12-.49.24-.98.35-1.48.05-.2.21-.56.18-.77,0-.03.02-.07.02-.1-.05.22-.81.27-.87.5-.45,1.91-.91,3.82-1.37,5.73-1.02,4.24-2.06,8.48-3.11,12.71-4.74,0-9.48.29-14.17.74-2.04.2-4.08.43-6.11.69.06-.39.13-.79.19-1.18.64-4.18,1.16-8.39,1.6-12.6.23-2.19.45-4.39.62-6.59-.01.18-.85.31-.87.5-.45,5.88-1.13,11.75-1.97,17.58-.12.8-.24,1.6-.36,2.4-4.76.63-9.51,1.42-14.21,2.38-1.33.27-2.66.55-3.98.87-.31.08-.56.42-.87.5,3.83-.93,7.73-1.64,11.62-2.29,2.45-.41,4.91-.77,7.37-1.09-.55,3.52-1.2,7.03-2.07,10.49-.45,1.78-.96,3.56-1.63,5.27-.15.37-.33.74-.5,1.11-.95.09-1.91.18-2.86.27-1.45.14-2.91.29-4.36.44-.31.03-.57.47-.87.5,2.63-.29,5.27-.54,7.91-.78,0,.02-.02.05-.03.07-.13.41-.19.87-.28,1.29-.49,2.32-.94,4.64-1.34,6.98-.43,2.53-.85,5.09-.91,7.66,0-.17.86-.32.87-.5.05-2.28.4-4.55.76-6.79.37-2.26.79-4.51,1.25-6.75.14-.68.26-1.36.44-2.02,1.18-.11,2.36-.22,3.54-.32,5.56-.47,11.15-.9,16.73-1.09-.03.12-.06.24-.09.36-1.31,5.07-2.65,10.14-4.11,15.17-.52,1.8-1.06,3.61-1.65,5.39-.34,1.03-.67,2.12-1.2,3.07-.06.11-.13.23-.21.33.19-.24.67-.25.87-.5.52-.67.78-1.62,1.06-2.41.57-1.61,1.07-3.24,1.55-4.88,1.44-4.86,2.74-9.76,4.03-14.67.16-.63.32-1.26.49-1.89,1.38-.04,2.75-.08,4.13-.09,2.62-.01,5.48-.12,8.03.58.23.06.65-.56.87-.5-2.2-.61-4.63-.57-6.89-.58-2-.01-4.01.03-6.01.11,1.26-4.87,2.5-9.75,3.71-14.64.17-.7.34-1.39.51-2.09ZM202.11,107.82c-1.23.05-2.45.11-3.67.18-5.53.31-11.06.75-16.58,1.26.06-.19.13-.37.21-.55.72-1.57,1.24-3.24,1.69-4.9,1.04-3.76,1.75-7.6,2.36-11.45,5.83-.73,11.69-1.2,17.56-1.29.89-.01,1.77,0,2.66,0-.05.21-.1.41-.15.62-1.33,5.38-2.69,10.76-4.08,16.14Z"/>
      </g>
      <path class="cls-4" d="M160.69,203.06c-.79.06-1.81-.48-2.53-.73-1.96-.69-3.9-1.43-5.85-2.15-4.26-1.57-8.54-3.19-12.94-4.33-3.96-1.03-6.68-.31-10.64.86-2.23.66-2.86,2.83-3.71,4.87-3.41,8.18-5.77,16.95-7.66,25.59-.72,3.32-1.6,6.85-1.52,10.28.04,1.82.58,2.4,2.16,3.19,6.06,3.05,13.15,4.58,19.65,6.35,8.94,2.44,17.94,4.68,26.95,6.87,6.23,1.52,12.5,2.94,18.71,4.55,2.67.7,5.35-.21,7.94-1.18,2.09-.79,2.79-3.29,3.51-5.26,3.37-9.29,5.14-19.35,6.71-29.08.4-2.46,1.95-7.41.02-9.52-1.42-1.56-4.22-1.71-6.15-2.03-3.92-.64-7.76-1.39-11.53-2.67-.67-.23-2.59.66-3.27.84s-2.58,1.14-3.25.91c3.44,1.17,6.94,1.93,10.52,2.51,2.09.34,4.83.44,6.61,1.73,2.36,1.7,1.2,5.58.84,7.99-1.38,9.23-3.2,18.52-5.85,27.46-.6,2.01-1.23,4.04-2.11,5.95-.28.61-.57,1.26-.99,1.8-.21.27-.92.91-.69.84l6.08-1.61c-1.48.18-3.79-.92-5.22-1.26-3.74-.92-7.49-1.81-11.24-2.72-9.93-2.4-19.85-4.84-29.71-7.51-4.42-1.2-8.84-2.43-13.2-3.82-2.77-.88-5.74-1.72-8.28-3.15-1.92-1.08-1.77-2.63-1.59-4.71.37-4.37,1.43-8.72,2.49-12.97,1.43-5.74,3.07-11.44,5.05-17.01.72-2.02,1.46-4.06,2.4-5.99.42-.87.95-2.31,1.93-2.71l-2.39.67.19-.05-4.14,1.07c1.89-.32,4.03.42,5.83.92,2.85.8,5.64,1.78,8.43,2.77,2.63.94,5.24,1.93,7.86,2.89,1.13.41,2.83,1.39,4.07,1.29,2.21-.18,4.33-1.57,6.52-1.75h0Z"/>
    </g>
    <path class="cls-1" d="M58.25,41.92c.46-.07,35.89-28.26,35.89-28.26l7.77,3.32-43.66,34.23v-9.29Z"/>
    <polygon class="cls-1" points="61.8 54.79 106.23 20.25 108.13 20.99 61.8 56.87 61.8 54.79"/>
    <path class="cls-3" d="M164.5,9.66c-17.11,0-31.03,13.92-31.03,31.03,0,.62.02,1.23.06,1.85-6.84-3.09-12.62-1.94-16.12-.55.02-.43.03-.86.03-1.29,0-17.11-13.92-31.03-31.03-31.03s-31.03,13.92-31.03,31.03,13.92,31.03,31.03,31.03c15.06,0,27.64-10.79,30.45-25.04,2.04-1.21,8.85-4.41,17.35.72,3.08,13.89,15.49,24.32,30.29,24.32,17.11,0,31.03-13.92,31.03-31.03s-13.92-31.03-31.03-31.03ZM86.41,67.72c-14.91,0-27.03-12.13-27.03-27.03s12.13-27.03,27.03-27.03,27.03,12.13,27.03,27.03-12.13,27.03-27.03,27.03ZM164.5,67.72c-14.91,0-27.03-12.13-27.03-27.03s12.13-27.03,27.03-27.03,27.03,12.13,27.03,27.03-12.13,27.03-27.03,27.03Z"/>
    <line class="cls-5" x1="170.99" y1="16.98" x2="142.11" y2="39.77"/>
  </g>
</svg>