<?xml version="1.0" encoding="UTF-8"?>
<svg id="Layer_1" data-name="Layer 1" xmlns="http://www.w3.org/2000/svg" viewBox="0 0 1920 1080">
  <defs>
    <style>
      .cls-1 {
        fill: #fffdeb;
      }
    </style>
  </defs>
  <path class="cls-1" d="M-220.51-188.55v1457.11h2361.03V-188.55H-220.51ZM1752.75,736.78c0,152.75-209.8,276.59-468.61,276.59-125.77,0-239.97-29.25-324.14-76.85-84.17,47.6-198.36,76.85-324.14,76.85-258.81,0-468.61-123.83-468.61-276.59,0-77,53.32-146.64,139.34-196.78-86.02-50.15-139.34-119.78-139.34-196.78,0-152.75,209.8-276.59,468.61-276.59,125.77,0,239.97,29.25,324.14,76.85,84.17-47.6,198.36-76.85,324.14-76.85,258.81,0,468.61,123.83,468.61,276.59,0,77-53.32,146.64-139.34,196.78,86.02,50.15,139.34,119.78,139.34,196.78Z"/>
</svg>