<?xml version="1.0" encoding="UTF-8"?>
<svg id="Layer_1" xmlns="http://www.w3.org/2000/svg" version="1.1" viewBox="0 0 254 35">
  <!-- Generator: Adobe Illustrator 29.1.0, SVG Export Plug-In . SVG Version: 2.1.0 Build 142)  -->
  <g>
    <path d="M13.4.8c.3-.2.7-.3,1.2-.3s1.3.2,2.1.5c.4.2.8.3,1.1.3s0,0,.1,0h.2c0,0,0,0,.1,0,.1,0,.5,0,1.1.2.6.2,1.2.5,1.8,1.1.6.6,1,1.2,1.3,1.9.2.4.3.8.3,1.1s0,.5-.2.8c-.2.7-.6,1.3-1.2,1.8-.6.5-1.3.8-2.1.8s-1.1-.1-1.6-.4c-.4-.2-.8-.3-.9-.3s-.5,0-.7.2c-.4.2-.9.3-1.2.3s-1-.1-1.5-.4c-.4-.2-.7-.3-.9-.3s-.4,0-.7.2c-.3.1-.7.2-1.1.2s-1.1,0-1.8-.3c-.3,0-.4,0-.5,0,0,0,0,.2,0,.5,0,.4,0,.9-.3,1.3-.1.3-.2.5-.2.7s0,.4.2.7c.2.4.3,1,.3,1.8v1l.7-.4c.4-.2.9-.4,1.4-.4s1.2.1,1.7.4l.7.4,1.1-.4c.6-.3,1-.4,1.3-.4s.4,0,.7.1c.5.1.8.2.9.2.2,0,.3,0,.4-.1.3-.1.6-.2,1.1-.2.8,0,1.5.1,1.9.4.6.3,1.1.9,1.5,1.7.4.8.6,1.5.6,2.2s0,.5-.1.7c-.3,1.1-1,1.9-2.1,2.3-.5.2-.8.2-1.1.2s-.5,0-1-.1c-.4,0-.7-.1-1-.1s-.4,0-.5.1c-.3.2-.7.2-1.2.2s-1.1,0-1.6-.3c-.2,0-.4-.1-.7-.1s-.7,0-1.2.2-1,.2-1.2.2h-.2c0,0-.2,0-.3,0-.1,0-.2,0-.3,0-.2,0-.3,0-.4,0s-.1,0-.2.2c0,0,0,.2-.1.4,0,.1,0,.5,0,1.1s0,.9,0,1.2c0,.2,0,.6,0,1,0,.7,0,1.1-.2,1.4,0,.2-.1.4-.1.6s0,.4.2.7c.2.5.3,1,.3,1.6s-.1,1.3-.4,1.8c-.3.5-.7,1-1.2,1.5-.6.5-1,.8-1.4.9-.1,0-.3,0-.5.1-.2,0-.3,0-.4,0,0,0-.2,0-.4,0-.5,0-1.2-.2-1.9-.7-.7-.5-1.1-1-1.3-1.5-.2-.7-.3-1.6-.3-2.6s0-.9.1-1.1c0-.1,0-.3,0-.5s0-.5-.2-1c-.2-.5-.2-.8-.2-1.1s0-.5.2-.9c.1-.5.2-.8.2-.9s0-.4-.1-.5c-.1-.3-.2-.8-.2-1.6s0-1.2.2-1.4c0-.1.1-.2.1-.4s0-.4-.2-.9c-.1-.5-.2-.9-.2-1.1s0-.5.2-1c0-.4.1-.6.1-.8s-.1-.6-.3-1.1c-.3-.6-.4-1.2-.4-1.9s0-1,.2-1.4c0-.2.1-.4.1-.6,0-.2,0-.5-.2-.7-.2-.4-.2-.9-.2-1.5s0-1,.2-1.3c.2-.4.5-.8.7-1,.3-.3.5-.9.5-1.6,0-.8.2-1.4.7-1.8.4-.4,1-.7,1.6-1,.7-.3,1.3-.4,1.8-.4h1.7c.1,0,.3,0,.6,0,.3,0,.6,0,1,0,.4,0,.7,0,1,0,1.2,0,2.1-.2,2.5-.4Z"/>
    <path d="M39.8,2c.8-.6,1.7-.9,2.5-.9,1.4,0,2.4.6,3,1.9.4.6.7,1,.9,1s.8.1,1.4.4c.5.3.9.6,1.2,1,.3.4.5.9.7,1.4.2.6.5,1,1,1.4.4.3.8.7,1.1,1.2.3.5.5,1,.5,1.4s0,.8-.2,1.4c0,.3-.1.6-.1.7,0,.3.1.5.3.9.3.5.5,1.1.5,1.8s-.1,1.1-.4,1.5c-.2.3-.4.8-.4,1.4s0,.2,0,.4c0,.2,0,.3,0,.4v.5c0,.8,0,1.4-.3,1.9-.2.5-.3.9-.3,1.4,0,.7-.3,1.5-.8,2.2-.5.8-1.1,1.3-1.8,1.5-.4.2-.7.3-.7.5,0,.3-.2.7-.5,1.1-.4.4-.7.7-1.1,1-.5.3-1.1.4-1.9.4s-1.2.1-1.5.4c-.6.7-1.4,1-2.4,1s-1.7-.3-2.3-.9c-.3-.3-.8-.4-1.5-.4-.8,0-1.5-.2-2.2-.6-.7-.4-1.2-.9-1.5-1.6-.2-.4-.5-.5-1-.5-.8,0-1.5-.3-2-.8-.6-.5-.9-1.2-1.1-2.1-.2-.8-.4-1.3-.7-1.5-.4-.3-.7-.7-.9-1.2s-.4-1.1-.4-1.7,0-.7.2-1c.1-.3,0-.6-.2-1.1-.4-.6-.5-1.5-.5-2.8s0-1.3.3-1.7c.2-.3.2-.6.2-1s0-.5,0-.6c0-.2,0-.4,0-.6,0-1,.4-1.9,1.3-2.6.6-.5.9-1,.9-1.4,0-.7.3-1.4.9-1.9.6-.5,1.3-.9,2.3-1.1.7-.2,1.2-.5,1.5-1,.6-1,1.5-1.4,2.8-1.4s1.2,0,1.8.3c.4.1.7.2.8.2.2,0,.4-.1.7-.3ZM39.2,9.7c-.5-.2-.9-.4-1.1-.4s-.4.1-.9.3c-1.8,1-2.7,1.7-2.7,2.2s-.2.8-.5,1.4c-.3.5-.4,1-.4,1.4s0,.6,0,.9c0,.9.3,1.5.5,1.9.3.4.4.9.4,1.8s0,1,.1,1.2c0,.2.4.5.8,1,.6.6,1.2,1.1,1.8,1.4.5.2.9.5,1.1.7.2.2.6.3,1.4.3s1.9-.2,2.3-.5c.4-.3.7-.5.9-.5.3-.1.4-.2.4-.4s.2-.5.6-1c.4-.4.6-.9.6-1.4s.1-1.1.3-1.8c.1-.5.2-.9.2-1.1s0-.5-.1-.7c-.1-.4-.2-.8-.2-1.3s0-.4,0-.5c0,0,0-.2,0-.3,0-.1,0-.2,0-.3,0-.4-.1-.8-.3-1.4-.3-.5-.4-1-.4-1.4s-.3-.7-.8-1.1c-.4-.3-.7-.5-.9-.5s-.4,0-.6.2c-.4.2-.8.3-1.3.3s-1.1-.1-1.6-.4Z"/>
    <path d="M65.7.2c.5-.1.8-.2.9-.2.2,0,.7.1,1.3.4.5.2.9.3,1.2.3s.2,0,.2,0c.4-.1.8-.2,1.1-.2,1.2,0,2.1.3,2.7,1,.3.3.6.4.8.4.6,0,1.3.3,2,.9.7.6,1.1,1.2,1.2,1.9.1.4.4.8.8.9.7.3,1.3.9,1.7,1.9.2.5.4,1.8.4,3.7s0,2.7-.3,3.3c-.2.6-.6,1.1-1.3,1.5-.3.2-.6.4-.7.5-.1.2-.2.5-.3.9-.3,1.2-.9,2.1-2,2.5-.4.1-.5.3-.5.6s0,.3,0,.5c.1.5.3,1,.6,1.4.3.3.4.6.5.8,0,.2.2.7.3,1.4,0,.5.4,1,.9,1.5.9.8,1.4,1.7,1.4,2.9s-.1,1.2-.4,1.7c-.6,1.4-1.6,2-3,2s-1.8-.3-2.5-1c-.7-.7-1.1-1.5-1.1-2.6,0-.5,0-.7-.2-.7-.2,0-.6-.3-1.3-1-.7-.7-1.1-1.2-1.2-1.6-.3-.6-.5-1.1-.8-1.4-.5-.7-.8-1.4-.8-2.2s0-.5.1-.8c.1-.3.2-.6.2-.7s0-.2-.1-.2l-.4.2c-.3.1-.8.2-1.5.2h-1.1v1.1c0,0,0,.2,0,.3,0,.1,0,.2,0,.3,0,.5-.1,1.1-.4,1.7-.3.6-.4,1-.4,1.2s0,.4.2.8c.1.6.2,1.1.2,1.4,0,.4-.1.9-.4,1.5-.3.6-.7,1.1-1.3,1.5-.6.4-1.3.5-2,.5-1.2,0-2.1-.4-2.9-1.3-.7-.8-1.1-1.6-1.1-2.5s.2-1.2.5-1.9c.3-.5.4-.9.4-1.1s0-.3,0-.6c-.1-.6-.2-1.1-.2-1.5s0-1,.2-1.2c0-.2.1-.3.1-.5,0-.3,0-.6-.2-1-.1-.3-.2-.7-.2-1s0-.7.2-1.4c.2-.6.2-1.2.2-1.8s0-.4,0-.5c0-.1,0-.3,0-.5,0-.4,0-.8.2-1.1.2-.4.2-.6.2-.8s0-.3-.2-.6c-.2-.4-.3-1-.3-1.8s0-1,.2-1.1c.1,0,.2-.4,0-.9,0-.4-.1-1.1-.2-2v-.4c0-.6.2-1.1.5-1.6.4-.5.8-.8,1-1,.3-.1.9-.3,1.8-.6.9-.3,1.5-.4,1.8-.4s.5-.2.9-.7c.6-.6,1.2-1,2-1.2ZM70,7.9c-.2,0-.6,0-1.2-.3-.6-.2-1-.3-1.2-.3-.4,0-.7.2-1.2.4-.4.2-.7.4-.8.6-.2.3-.5.5-.7.8-.2.2-.4.8-.4,2,0,.1,0,.3,0,.5,0,.2,0,.4,0,.5,0,.7.1,1.2.3,1.3.2.2.7.3,1.5.4.6,0,1,0,1.2,0s.3,0,.4,0c.1,0,.6-.2,1.5-.4.9-.2,1.5-.2,1.9-.2h.2s0,0,0,0c0,0,0,0,0,0,.5,0,1-.6,1.5-1.8.2-.5.3-1,.3-1.2,0-.5-.3-.9-.9-1.1-1.2-.4-1.8-.8-1.8-1.1s-.2-.2-.6-.2Z"/>
    <path d="M86.7,13.8c.5-.2.8-.3,1.1-.3s.5,0,.9.2c.3.1,1,.2,2,.2.9,0,1.5.2,1.9.4.3.2.5.2.6.2.2,0,.5-.1.9-.4.6-.3,1.1-.5,1.5-.5s.8,0,1.2.3c.9.3,1.5.9,1.9,1.8.3.5.4,1.2.4,2.1s-.1,1.4-.3,1.8c-.3.6-.8,1.1-1.5,1.5-.7.4-1.4.6-2.1.6s-1-.1-1.5-.3c-.3-.1-.6-.2-.8-.2s-.2,0-.4,0c-.3.1-.7.2-1.1.2-.6,0-1.2-.1-1.7-.4-.4-.2-.7-.2-.8-.2s-.4,0-.6.2c-.4.2-.8.2-1.2.2-1.3,0-2.3-.5-3-1.4-.3-.4-.5-1-.5-1.7s.3-1.8.8-2.7c.6-.9,1.3-1.4,2.1-1.7Z"/>
    <path d="M106.7.9c.4-.2.8-.2,1.2-.2,1.4,0,2.3.6,3,1.8.3.5.4,1.1.4,1.7s-.1,1.2-.4,1.9c-.2.6-.3.9-.3,1.1s0,.5.2.9c.2.4.2.9.2,1.3,0,.7-.2,1.3-.5,1.8-.1.2-.2.4-.2.6s0,.4.1.7c0,.2,0,.4,0,.8,0,.9-.2,1.6-.5,2-.2.2-.1.6.1,1.1.2.5.3.9.3,1.4s0,.1,0,.3c0,.1,0,.2,0,.3,0,.1,0,.3,0,.6,0,.5,0,1,.2,1.4.2.5.3,1,.3,1.4v.7h1.3c.2.1.4.1.7.1.5,0,.8,0,1.1-.2.3-.2.8-.3,1.4-.3s1.3.1,1.8.4c.3.2.6.4.8.4s.4,0,1-.3c.5-.2,1-.3,1.3-.3.7,0,1.4.4,2.1,1.1.8.8,1.2,1.8,1.2,2.9s-.6,2.5-1.8,3.2c-.4.2-1,.3-1.8.3s-.9,0-1.3-.2c-.2,0-.4-.1-.5-.1s-.4,0-.7.2c-.4.2-.8.3-1.3.3s-.7,0-1.1-.2c-.2,0-.3-.1-.4-.1s-.6.1-1.1.4c-.6.3-1.1.5-1.6.5s-.9-.2-1.5-.5c-.5-.3-1-.4-1.4-.4s-.1,0-.2,0c0,0-.2,0-.3,0h-.4c-1.3,0-2.4-.4-3.4-1.1-.8-.6-1.2-1.5-1.2-2.5s.1-.9.3-1.4c.1-.3.2-.5.2-.7s-.1-.4-.3-.8c-.3-.5-.4-1.2-.4-2s0-.8.2-1.2c.1-.2.1-.5,0-.9-.2-.3-.3-.9-.3-1.6s0-1,.2-1.2c0-.2.1-.4.1-.7s0-.7-.1-1.1c0-.5-.1-.8-.1-1.1s0-.7.2-1.2c.1-.5.2-.8.2-.9s-.1-.4-.3-.8c-.3-.4-.4-1-.4-1.6s.2-1.4.6-2c.4-.6.6-1.3.6-2s.1-1.4.4-1.8c.6-1,1.3-1.6,2.1-1.9Z"/>
    <path d="M140.7,2c.8-.6,1.7-.9,2.5-.9,1.4,0,2.4.6,3,1.9.4.6.7,1,.9,1s.8.1,1.4.4c.5.3.9.6,1.2,1,.3.4.5.9.7,1.4.2.6.5,1,1,1.4.4.3.8.7,1.2,1.2.3.5.5,1,.5,1.4s0,.8-.2,1.4c0,.3-.1.6-.1.7,0,.3.1.5.3.9.3.5.5,1.1.5,1.8s-.1,1.1-.3,1.5c-.2.3-.4.8-.4,1.4s0,.2,0,.4c0,.2,0,.3,0,.4v.5c0,.8,0,1.4-.3,1.9-.2.5-.3.9-.3,1.4,0,.7-.3,1.5-.8,2.2-.5.8-1.1,1.3-1.8,1.5-.4.2-.7.3-.7.5,0,.3-.2.7-.5,1.1-.4.4-.7.7-1.1,1-.5.3-1.1.4-1.9.4s-1.2.1-1.5.4c-.6.7-1.4,1-2.4,1s-1.7-.3-2.3-.9c-.3-.3-.8-.4-1.5-.4-.8,0-1.5-.2-2.2-.6-.7-.4-1.2-.9-1.5-1.6-.2-.4-.5-.5-1-.5-.8,0-1.5-.3-2-.8s-.9-1.2-1.1-2.1c-.2-.8-.4-1.3-.7-1.5-.4-.3-.7-.7-.9-1.2s-.4-1.1-.4-1.7,0-.7.2-1c.1-.3,0-.6-.2-1.1-.4-.6-.5-1.5-.5-2.8s0-1.3.3-1.7c.2-.3.2-.6.2-1s0-.5,0-.6c0-.2,0-.4,0-.6,0-1,.4-1.9,1.3-2.6.6-.5.9-1,.9-1.4,0-.7.3-1.4.9-1.9s1.3-.9,2.3-1.1c.7-.2,1.2-.5,1.5-1,.6-1,1.5-1.4,2.8-1.4s1.2,0,1.8.3c.4.1.7.2.8.2.2,0,.4-.1.7-.3ZM140.2,9.7c-.5-.2-.9-.4-1.1-.4s-.4.1-.9.3c-1.8,1-2.7,1.7-2.7,2.2s-.2.8-.5,1.4c-.3.5-.4,1-.4,1.4s0,.6,0,.9c0,.9.3,1.5.5,1.9.3.4.4.9.4,1.8s0,1,.1,1.2c0,.2.4.5.8,1,.6.6,1.2,1.1,1.8,1.4.5.2.9.5,1.1.7.2.2.6.3,1.4.3s1.9-.2,2.3-.5c.4-.3.7-.5.9-.5.3-.1.4-.2.4-.4s.2-.5.6-1c.4-.4.6-.9.6-1.4s.1-1.1.3-1.8c.1-.5.2-.9.2-1.1s0-.5-.1-.7c-.1-.4-.2-.8-.2-1.3s0-.4,0-.5c0,0,0-.2,0-.3,0-.1,0-.2,0-.3,0-.4-.1-.8-.3-1.4-.3-.5-.4-1-.4-1.4s-.3-.7-.8-1.1c-.4-.3-.7-.5-.9-.5s-.3,0-.6.2c-.4.2-.8.3-1.3.3s-1.1-.1-1.6-.4Z"/>
    <path d="M169.6,1c.2,0,.4,0,.7,0s.4,0,.7,0c.4,0,.8,0,1.4,0h.9c1.6,0,3,.3,4,1,.5.3.8.4,1,.4.3,0,.8.2,1.5.6.7.4,1.1.8,1.4,1.1.4.5.7,1.2.7,2s-.3,1.7-.9,2.3c-.8.9-1.7,1.3-2.7,1.3s-1.2-.2-1.8-.5c-.4-.3-.8-.4-1.1-.4s-.5,0-.6,0c-.1,0-.3,0-.5,0-.3,0-.8-.1-1.3-.3-.4-.2-.7-.3-.9-.3s-.3,0-.6,0c-.3,0-.6,0-.9,0-.5,0-1,.3-1.5.8s-.9.8-.9.8c-.1,0-.3.3-.6,1-.3.6-.6,1.1-.9,1.4-.3.3-.5.8-.5,1.3s0,.8-.3,1.5c-.2.6-.3,1.2-.3,1.5s0,.1,0,.2c0,0,0,.2,0,.2s0,.1,0,.2c0,.1,0,.2,0,.2,0,.4-.2.9-.5,1.6-.3.7-.4,1-.4,1.1s0,.3.2.6c.2.4.3.8.3,1.3s.2.8.5,1c.8.4,1.2,1,1.4,1.9.1.4.4.8.9,1.2.5.4,1.1.6,1.8.7.9,0,1.5.2,1.8.4.3.2.5.2.7.2s.3,0,.7-.2c.5-.2.9-.3,1.2-.3.6,0,1-.6,1-1.8s.1-1.2.3-1.7c.2-.5.2-.9.2-1.2s0-.4,0-.4c0-.3-.1-.5-.2-.6,0,0-.2,0-.4,0-.8.2-1.4.4-1.9.4-.8,0-1.6-.3-2.3-1-1-.9-1.6-2-1.6-3.1s0-.8.2-1.2c.6-1.5,1.8-2.2,3.5-2.2s1-.1,1.2-.4c.2-.3.5-.6,1.1-.8.5-.2,1.1-.3,1.7-.3s1,0,1.3.3c.2.1.3.2.5.2s.4-.1.7-.4c.6-.4,1.3-.7,2.1-.7s1.4.2,2,.7c.8.7,1.2,1.7,1.2,2.9s-.5,2.8-1.5,3.4c-.5.3-.7.7-.7,1.1s0,.9-.3,1.5c-.1.5-.2,1-.2,1.6s0,.5,0,.7c0,0,0,.2,0,.3,0,.1,0,.2,0,.3,0,.6-.1,1.1-.3,1.7-.1.3-.3,1-.5,2.1s-.4,1.8-.5,2.1c-.3.5-.7,1-1.2,1.3-.5.4-1,.5-1.5.5s-.7.3-1.4,1c-.8.8-1.5,1.2-2.3,1.2s-.8,0-1.2-.2c-.6-.2-1.1-.3-1.5-.3s-.9,0-1.6.1c-.6,0-.9,0-1.1,0-.7,0-1.3-.2-1.8-.7-.4-.3-.8-.5-1.4-.6-1.1-.2-2-.8-2.7-1.9-.4-.6-.8-1-1.1-1.2-.6-.3-1.2-.9-1.7-1.8-.6-.9-.9-1.6-.9-2.2,0-.4-.3-.8-.8-1.4-.8-.8-1.2-1.6-1.2-2.4s0-.8.2-1.2c.2-.5.3-.8.3-1.1s0-.4-.2-.7c-.2-.4-.4-1-.4-1.8s0-1,.2-1.3c0-.1.2-.3.5-.7.3-.4.4-.7.6-.9s.2-.6.3-1c0-.6.3-1.2.6-1.7.3-.4.5-1,.5-1.6s.2-1.5.7-2.3c.5-.8,1-1.2,1.7-1.4.3,0,.5-.4.7-.9.2-.5.5-1,1-1.5.5-.5,1-.8,1.4-.8.5-.1,1-.4,1.4-.8.8-.8,1.7-1.3,2.7-1.5Z"/>
  </g>
  <g>
    <path d="M205.3,17c-.2-.1-.6,0-.8.2-.3.6-.1,1.5.2,2.1.1-.1.2-.2.3-.4.3-.5.7-1.5.3-2Z"/>
    <path d="M221.6,14.1c-1.2-.8-.6-1.7-1.2-3-.6-1.3-2-1.5-3.8-2.1,0,0,0,0,0,0-.2-.2-.5-.3-.8-.4-.8-.7-.7-1.8-1.2-3-.7-1.5-1.9-1.7-3.6-1.7s-1.2,1.1-2.1,2.3c-.3.4-.6.6-.9.6,0,0-.1,0-.2,0-.5,0-1.1-.3-1.9-.5-.8-.1-1.6.3-2.2.7-.1,0-.3-.2-.4-.3-.7-.3-1-1-1.3-2.1-.4-1.1-1.3-.9-3.3-.8-2,.1-2.4,1.1-2.7,2.9-.2.7-.3,1.3-.3,1.7-.3.3-.5.5-.8.7h-.4c-1-.4-1.9.5-2.5,1.3-.7.8-1.4,2-2.5,3-1,.8-1.2,1.7-1,2.9h0s.2,1.5,0,2.8-.6,2.7,0,3.8c.3.6.8.8,1.3,1.1,0,0,0,0,0,0,0,1.3.7,4,3.9,4.4.5,0,.8.1,1.2.2.4.2.9.4,1.4.5,1,.5,1.7,1.2,3.6,1.9,2.9,1.1,2.7-.9,5.8-.7,3.1.1,4.4.4,5.5-.2s2.6-1.2,5-1.2c2.4,0,4-2.2,4.2-3.3.2-1.1,1.5-3.7,2.4-5.2.8-1.5.2-5.3-1-6.1ZM206.7,21.8c-.9,0-1.8-.6-2.4-1.3,0,0,0,0,0,0-1.4,1.1-3.4.5-4.9-.2-1-.5-1.8-1.1-2.6-1.9h0c2,.8,5,2.5,7,1.5-.5-.8-.6-1.8-.1-2.7.3-.6,1.2-.9,1.7-.5.3.3.3.6.2.9-.1.8-.4,1.5-.8,2.1,1.9,2,5.3.8,7.9.4,0,0,0,0,0,0-1.9,1.1-4,1.9-6.2,1.6Z"/>
  </g>
</svg>