<?xml version="1.0" encoding="UTF-8"?>
<svg id="Layer_2" data-name="Layer 2" xmlns="http://www.w3.org/2000/svg" viewBox="0 0 1967.52 1123.49">
  <defs>
    <style>
      .cls-1 {
        fill: #fffdeb;
      }
    </style>
  </defs>
  <g id="Layer_1-2" data-name="Layer 1">
    <path class="cls-1" d="M0,0v1123.49h1967.52V0H0ZM1894.81,774.52c0,165.17-241.11,299.07-538.54,299.07-144.54,0-275.78-31.63-372.51-83.1-96.73,51.47-227.97,83.1-372.51,83.1-297.43,0-538.54-133.9-538.54-299.07,0-83.26,61.28-158.55,160.14-212.77-98.86-54.22-160.14-129.52-160.14-212.77,0-165.17,241.11-299.07,538.54-299.07,144.54,0,275.78,31.63,372.51,83.1,96.73-51.47,227.97-83.1,372.51-83.1,297.43,0,538.54,133.9,538.54,299.07,0,83.26-61.28,158.55-160.14,212.77,98.86,54.22,160.14,129.52,160.14,212.77Z"/>
  </g>
</svg>