<?xml version="1.0" encoding="UTF-8"?>
<svg id="Layer_2" xmlns="http://www.w3.org/2000/svg" version="1.1" xmlns:xlink="http://www.w3.org/1999/xlink" viewBox="0 0 1892.1 707.7">
  <!-- Generator: Adobe Illustrator 29.1.0, SVG Export Plug-In . SVG Version: 2.1.0 Build 142)  -->
  <defs>
    <style>
      .st0 {
        fill: #fff;
      }

      .st1 {
        fill: none;
      }

      .st2 {
        fill: #aab664;
      }

      .st3 {
        fill: #fffef3;
      }

      .st4 {
        clip-path: url(#clippath);
      }

      .st5 {
        fill: #d85b30;
      }
    </style>
    <clipPath id="clippath">
      <rect class="st1" y="0" width="1892.1" height="707.7" rx="353.9" ry="353.9"/>
    </clipPath>
  </defs>
  <path class="st5" d="M1537.6,676.6h-10v-3.3h10.6v3.3h-.6ZM1517.6,676.6h-10v-3.3h10v3.3ZM1497.6,676.6h-10v-3.3h10v3.3ZM1477.6,676.6h-10v-3.3h10v3.3ZM1457.5,676.6h-10v-3.3h10v3.3ZM1437.5,676.6h-10v-3.3h10v3.3ZM1417.5,676.6h-10v-3.3h10v3.3ZM1397.5,676.6h-10v-3.3h10v3.3ZM1377.5,676.6h-10v-3.3h10v3.3ZM1357.4,676.6h-10v-3.3h10v3.3ZM1337.4,676.6h-10v-3.3h10v3.3ZM1317.4,676.6h-10v-3.3h10v3.3ZM1297.4,676.6h-10v-3.3h10v3.3ZM1277.4,676.6h-10v-3.3h10v3.3ZM1257.4,676.6h-10v-3.3h10v3.3ZM1237.3,676.6h-10v-3.3h10v3.3ZM1217.3,676.6h-10v-3.3h10v3.3ZM1197.3,676.6h-10v-3.3h10v3.3ZM1177.3,676.6h-10v-3.3h10v3.3ZM1157.3,676.6h-10v-3.3h10v3.3ZM1137.3,676.6h-10v-3.3h10v3.3ZM1117.2,676.6h-10v-3.3h10v3.3ZM1097.2,676.6h-10v-3.3h10v3.3ZM1077.2,676.6h-10v-3.3h10v3.3ZM1057.2,676.6h-10v-3.3h10v3.3ZM1037.2,676.6h-10v-3.3h10v3.3ZM1017.2,676.6h-10v-3.3h10v3.3ZM997.1,676.6h-10v-3.3h10v3.3ZM977.1,676.6h-10v-3.3h10v3.3ZM957.1,676.6h-10v-3.3h10v3.3ZM937.1,676.6h-10v-3.3h10v3.3ZM917.1,676.6h-10v-3.3h10v3.3ZM897.1,676.6h-10v-3.3h10v3.3ZM877,676.6h-10v-3.3h10v3.3ZM857,676.6h-10v-3.3h10v3.3ZM837,676.6h-10v-3.3h10v3.3ZM817,676.6h-10v-3.3h10v3.3ZM797,676.6h-10v-3.3h10v3.3ZM777,676.6h-10v-3.3h10v3.3ZM756.9,676.6h-10v-3.3h10v3.3ZM736.9,676.6h-10v-3.3h10v3.3ZM716.9,676.6h-10v-3.3h10v3.3ZM696.9,676.6h-10v-3.3h10v3.3ZM676.9,676.6h-10v-3.3h10v3.3ZM656.8,676.6h-10v-3.3h10v3.3ZM636.8,676.6h-10v-3.3h10v3.3ZM616.8,676.6h-10v-3.3h10v3.3ZM596.8,676.6h-10v-3.3h10v3.3ZM576.8,676.6h-10v-3.3h10v3.3ZM556.8,676.6h-10v-3.3h10v3.3ZM536.8,676.6h-10v-3.3h10v3.3ZM516.7,676.6h-10v-3.3h10v3.3ZM496.7,676.6h-10v-3.3h10v3.3ZM476.7,676.6h-10v-3.3h10v3.3ZM456.7,676.6h-10v-3.3h10v3.3ZM436.7,676.6h-10v-3.3h10v3.3ZM416.6,676.6h-10v-3.3h10v3.3ZM396.6,676.6h-10v-3.3h10v3.3ZM376.6,676.6h-10v-3.3h10v3.3ZM356.6,676.6h-2.1c-2.7,0-5.3,0-8,0v-3.3c2.7,0,5.3,0,8,0h2.1v3.3ZM1548.3,676.4v-3.3c3.2-.1,6.5-.3,9.8-.5l.2,3.3c-3.3.2-6.7.4-10.1.5h0ZM336.5,676.1c-3.3-.2-6.7-.4-10-.7l.3-3.3c3.3.3,6.6.5,9.9.7l-.2,3.3h0ZM1568.3,675.2l-.3-3.3c3.3-.3,6.6-.7,9.9-1.1l.4,3.3c-3.3.4-6.7.8-10,1.1h0ZM316.5,674.4c-3.3-.4-6.7-.8-10-1.3l.5-3.3c3.3.5,6.6.9,9.9,1.3l-.4,3.3h0ZM1588.3,672.7l-.5-3.3c3.3-.5,6.6-1.1,9.8-1.7l.6,3.3c-3.3.6-6.6,1.2-9.9,1.7h0ZM296.6,671.4c-3.3-.6-6.6-1.2-9.9-2l.7-3.3c3.2.7,6.5,1.3,9.8,1.9l-.6,3.3h0ZM1608,668.9l-.7-3.3c3.2-.7,6.5-1.5,9.7-2.3l.8,3.2c-3.2.8-6.5,1.6-9.8,2.3h0ZM276.9,667.2c-3.2-.8-6.5-1.7-9.7-2.6l.9-3.2c3.2.9,6.4,1.8,9.6,2.5l-.8,3.2ZM1627.5,663.9l-.9-3.2c3.2-.9,6.4-1.9,9.5-2.9l1,3.2c-3.2,1-6.4,2-9.6,3h0ZM257.5,661.8c-3.2-1-6.4-2.1-9.6-3.2l1.1-3.2c3.1,1.1,6.3,2.2,9.5,3.2l-1,3.2h0ZM1646.7,657.7l-1.1-3.2c3.1-1.1,6.2-2.3,9.3-3.5l1.2,3.1c-3.1,1.2-6.3,2.4-9.4,3.5h0ZM238.5,655.1c-3.1-1.2-6.3-2.5-9.4-3.8l1.3-3.1c3.1,1.3,6.2,2.5,9.3,3.7l-1.2,3.1h0ZM1665.3,650.3l-1.3-3.1c3.1-1.3,6.1-2.7,9.1-4.1l1.4,3c-3,1.4-6.1,2.8-9.2,4.1h0ZM219.9,647.3c-3.1-1.4-6.1-2.9-9.1-4.3l1.5-3c3,1.5,6,2.9,9,4.3l-1.4,3h0ZM1683.5,641.8l-1.5-3c2.9-1.5,5.9-3,8.8-4.6l1.6,2.9c-2.9,1.6-5.9,3.2-8.9,4.7h0ZM201.9,638.3c-2.9-1.6-5.9-3.2-8.8-4.9l1.7-2.9c2.9,1.7,5.8,3.3,8.7,4.9l-1.6,2.9ZM1701.1,632.2l-1.7-2.9c2.8-1.7,5.7-3.4,8.5-5.2l1.8,2.8c-2.8,1.8-5.7,3.5-8.6,5.2h0ZM184.4,628.2c-2.8-1.8-5.7-3.6-8.5-5.4l1.9-2.8c2.8,1.8,5.6,3.7,8.4,5.4l-1.8,2.8h0ZM1718.1,621.5l-1.9-2.8c2.7-1.8,5.5-3.8,8.2-5.7l2,2.7c-2.7,2-5.5,3.9-8.2,5.8ZM167.7,617.1c-2.7-1.9-5.5-4-8.1-6l2-2.7c2.6,2,5.3,4,8,5.9l-1.9,2.7ZM1734.4,609.7l-2-2.7c2.6-2,5.2-4.1,7.8-6.2l2.1,2.6c-2.6,2.1-5.2,4.2-7.9,6.2ZM151.6,604.9c-2.6-2.1-5.2-4.3-7.7-6.5l2.2-2.5c2.5,2.2,5.1,4.3,7.6,6.4l-2.1,2.6h0ZM1749.9,597l-2.2-2.5c2.5-2.2,5-4.4,7.4-6.7l2.3,2.5c-2.4,2.3-5,4.5-7.5,6.7h0ZM136.4,591.8c-2.4-2.2-4.9-4.6-7.3-6.9l2.3-2.4c2.4,2.3,4.8,4.6,7.2,6.8l-2.3,2.5h0ZM1764.6,583.3l-2.3-2.4c2.3-2.3,4.7-4.7,7-7.1l2.4,2.3c-2.3,2.4-4.7,4.8-7,7.2h0ZM122,577.7c-2.3-2.4-4.6-4.9-6.9-7.3l2.5-2.2c2.2,2.4,4.5,4.9,6.8,7.3l-2.4,2.3h0ZM1778.5,568.7l-2.5-2.2c2.2-2.5,4.4-5,6.5-7.5l2.6,2.2c-2.1,2.5-4.3,5.1-6.6,7.6h0ZM108.5,562.8c-2.2-2.5-4.3-5.2-6.4-7.8l2.6-2.1c2.1,2.6,4.2,5.2,6.3,7.7l-2.6,2.2h0ZM1791.4,553.3l-2.6-2.1c2-2.6,4.1-5.2,6-7.9l2.7,2c-2,2.7-4,5.4-6.1,8h0ZM96,547.1c-2-2.7-4-5.4-5.9-8.1l2.7-1.9c1.9,2.7,3.9,5.4,5.8,8l-2.7,2h0ZM1803.4,537.1l-2.8-1.9c1.9-2.7,3.8-5.5,5.5-8.3l2.8,1.8c-1.8,2.8-3.7,5.6-5.6,8.4h0ZM84.4,530.7c-1.8-2.8-3.6-5.6-5.4-8.5l2.8-1.8c1.7,2.8,3.5,5.6,5.3,8.4l-2.8,1.8h0ZM1814.3,520.1l-2.9-1.7c1.7-2.8,3.4-5.7,5-8.6l2.9,1.6c-1.6,2.9-3.3,5.9-5.1,8.7h0ZM74,513.5c-1.7-2.9-3.3-5.9-4.8-8.8l2.9-1.6c1.5,2.9,3.2,5.8,4.8,8.7l-2.9,1.7h0ZM1824.1,502.6l-3-1.5c1.5-3,3-6,4.5-8.9l3,1.5c-1.4,3-3,6-4.5,9h0ZM64.6,495.8c-1.5-3-2.9-6-4.3-9.1l3-1.4c1.4,3,2.8,6,4.2,9l-3,1.5ZM1832.9,484.4l-3.1-1.4c1.3-3,2.7-6.1,3.9-9.2l3.1,1.3c-1.3,3.1-2.6,6.2-3.9,9.3ZM56.3,477.5c-1.3-3.1-2.5-6.2-3.7-9.3l3.1-1.2c1.2,3.1,2.4,6.2,3.7,9.2l-3.1,1.3ZM1840.4,465.7l-3.1-1.2c1.2-3.1,2.3-6.3,3.3-9.4l3.2,1.1c-1.1,3.2-2.2,6.4-3.3,9.5h0ZM49.2,458.7c-1.1-3.2-2.1-6.4-3.1-9.6l3.2-1c1,3.1,2,6.3,3.1,9.5l-3.2,1.1h0ZM1846.8,446.6l-3.2-1c.9-3.1,1.8-6.4,2.7-9.6l3.2.9c-.9,3.2-1.8,6.5-2.7,9.7h0ZM43.2,439.5c-.9-3.2-1.7-6.5-2.5-9.7l3.2-.8c.8,3.2,1.6,6.4,2.5,9.6l-3.2.9h0ZM1852,427.2l-3.3-.8c.7-3.2,1.4-6.5,2.1-9.7l3.3.6c-.7,3.3-1.4,6.6-2.1,9.8h0ZM38.5,420c-.7-3.3-1.3-6.6-1.9-9.9l3.3-.6c.6,3.2,1.2,6.5,1.9,9.8l-3.3.7h0ZM1855.9,407.4l-3.3-.5c.5-3.3,1-6.6,1.5-9.8l3.3.5c-.4,3.3-.9,6.7-1.5,10h0ZM35,400.2c-.5-3.3-.9-6.6-1.3-10l3.3-.4c.4,3.3.8,6.6,1.3,9.9,0,0-3.3.5-3.3.5ZM1858.6,387.5l-3.3-.4c.3-3.3.6-6.6.9-9.9l3.3.2c-.2,3.3-.5,6.7-.9,10h0ZM32.8,380.2c-.3-3.3-.5-6.7-.7-10l3.3-.2c.2,3.3.4,6.6.7,9.9l-3.3.3h0ZM1860.1,367.5h-3.3c.1-3.5.2-6.8.3-10.1h3.3c0,3.4-.1,6.8-.3,10.1h0ZM31.8,360.1c0-2.1,0-4.1,0-6.2s0-2.5,0-3.8h3.3c0,1.3,0,2.6,0,3.8,0,2.1,0,4.1,0,6.2h-3.3q0,0,0,0ZM1857,347.4c0-3.3-.2-6.6-.3-10l3.3-.2c.2,3.3.3,6.7.3,10h-3.3ZM35.4,340.1h-3.3c.1-3.5.3-6.9.6-10.2l3.3.2c-.2,3.3-.4,6.6-.6,9.9h0ZM1855.9,327.5c-.3-3.3-.6-6.6-1-9.9l3.3-.4c.4,3.3.7,6.7,1,10l-3.3.3h0ZM36.8,320.3l-3.3-.4c.3-3.3.8-6.7,1.2-10l3.3.5c-.4,3.3-.8,6.6-1.2,9.9h0ZM1853.7,307.8c-.5-3.3-1-6.6-1.6-9.8l3.3-.6c.6,3.3,1.1,6.6,1.6,9.9l-3.3.5h0ZM39.5,300.5l-3.3-.5c.5-3.3,1.2-6.6,1.8-9.9l3.3.7c-.7,3.2-1.2,6.5-1.8,9.8h0ZM1850.2,288.1c-.7-3.2-1.4-6.5-2.2-9.7l3.2-.8c.8,3.2,1.5,6.5,2.2,9.8l-3.3.7ZM43.4,281l-3.3-.8c.8-3.2,1.6-6.5,2.4-9.8l3.2.9c-.8,3.2-1.7,6.4-2.4,9.6h0ZM1845.6,268.8c-.9-3.2-1.8-6.4-2.8-9.5l3.2-1c1,3.2,1.9,6.5,2.8,9.6l-3.2.9h0ZM48.6,261.8l-3.2-1c1-3.2,2-6.4,3.1-9.6l3.2,1.1c-1,3.1-2.1,6.3-3,9.5ZM1839.7,249.8c-1.1-3.1-2.2-6.3-3.4-9.4l3.1-1.2c1.2,3.1,2.3,6.3,3.4,9.5l-3.2,1.1h0ZM54.9,242.9l-3.1-1.2c1.2-3.1,2.4-6.3,3.7-9.4l3.1,1.3c-1.2,3.1-2.5,6.2-3.6,9.3ZM1832.6,231.2c-1.3-3-2.6-6.1-4-9.1l3-1.4c1.4,3,2.7,6.1,4,9.2l-3.1,1.3h0ZM62.4,224.4l-3.1-1.4c1.4-3.1,2.8-6.1,4.2-9.1l3,1.4c-1.4,3-2.8,6-4.2,9.1h0ZM1824.4,213.1c-1.4-2.9-3-5.9-4.5-8.8l2.9-1.6c1.6,3,3.1,6,4.6,8.9l-3,1.5h0ZM71.1,206.4l-3-1.6c1.5-2.9,3.2-5.9,4.8-8.9l2.9,1.6c-1.6,2.9-3.2,5.9-4.8,8.8ZM1815.1,195.6c-1.7-2.9-3.3-5.8-5.1-8.6l2.8-1.8c1.7,2.8,3.4,5.7,5.1,8.6l-2.9,1.7h0ZM80.9,189l-2.9-1.7c1.7-2.9,3.5-5.7,5.3-8.5l2.8,1.8c-1.8,2.8-3.6,5.6-5.3,8.4h0ZM1804.7,178.6c-1.8-2.8-3.7-5.5-5.6-8.2l2.7-1.9c1.9,2.7,3.8,5.5,5.7,8.3l-2.8,1.8h0ZM91.7,172.3l-2.8-1.9c1.9-2.8,3.9-5.5,5.9-8.2l2.7,2c-1.9,2.6-3.9,5.4-5.8,8.1h0ZM1793.3,162.4c-2-2.6-4-5.3-6.1-7.9l2.6-2.1c2.1,2.6,4.2,5.3,6.2,7.9l-2.7,2ZM103.5,156.3l-2.6-2.1c2.1-2.6,4.2-5.3,6.3-7.8l2.6,2.1c-2.1,2.5-4.2,5.1-6.3,7.7h0ZM1780.9,146.9c-2.1-2.5-4.3-5-6.6-7.5l2.5-2.2c2.2,2.5,4.5,5,6.6,7.6l-2.5,2.2h0ZM116.3,141l-2.5-2.2c2.2-2.5,4.5-5,6.8-7.4l2.4,2.3c-2.3,2.4-4.6,4.9-6.8,7.3h0ZM1767.5,132.1c-2.3-2.4-4.7-4.8-7-7.1l2.3-2.4c2.4,2.3,4.8,4.7,7.1,7.1l-2.4,2.3h0ZM130.1,126.6l-2.3-2.4c2.4-2.3,4.8-4.7,7.3-7l2.3,2.4c-2.4,2.3-4.9,4.6-7.2,6.9h0ZM1753.2,118.2c-2.4-2.2-4.9-4.5-7.4-6.6l2.2-2.5c2.5,2.2,5.1,4.4,7.5,6.7l-2.3,2.5h0ZM144.6,113.1l-2.2-2.5c2.5-2.2,5.1-4.4,7.7-6.5l2.1,2.6c-2.6,2.1-5.1,4.2-7.6,6.4h0ZM1738.2,105.2c-2.6-2.1-5.2-4.2-7.8-6.1l2-2.7c2.7,2,5.3,4.1,7.9,6.2l-2.1,2.6h0ZM160,100.4l-2-2.7c2.6-2,5.4-4.1,8.1-6l1.9,2.7c-2.7,1.9-5.4,3.9-8,5.9h0ZM1722.3,93.2c-2.7-1.9-5.4-3.8-8.2-5.6l1.8-2.8c2.8,1.8,5.6,3.8,8.3,5.7l-1.9,2.7h0ZM176.2,88.8l-1.9-2.8c2.8-1.9,5.6-3.7,8.4-5.5l1.8,2.8c-2.8,1.7-5.6,3.6-8.3,5.4h0ZM1705.7,82.2c-2.8-1.7-5.7-3.5-8.6-5.1l1.7-2.9c2.9,1.7,5.8,3.4,8.6,5.2l-1.8,2.8h0ZM193,78.2l-1.7-2.9c2.9-1.7,5.9-3.4,8.7-4.9l1.6,2.9c-2.9,1.6-5.8,3.2-8.6,4.9h0ZM1688.4,72.2c-2.9-1.6-5.9-3.1-8.9-4.6l1.5-3c3,1.5,6,3,8.9,4.6l-1.6,2.9ZM210.4,68.7l-1.5-3c3-1.5,6-3,9-4.4l1.4,3c-3,1.4-6,2.8-8.9,4.3h0ZM1670.6,63.3c-3-1.4-6.1-2.7-9.1-4l1.3-3.1c3.1,1.3,6.2,2.7,9.2,4.1l-1.4,3h0ZM228.4,60.3l-1.3-3.1c3.1-1.3,6.2-2.6,9.3-3.8l1.2,3.1c-3.1,1.2-6.1,2.5-9.2,3.8ZM1652.2,55.6c-3.1-1.2-6.3-2.3-9.4-3.4l1.1-3.2c3.2,1.1,6.3,2.3,9.5,3.5l-1.2,3.1ZM246.9,53l-1.1-3.2c3.1-1.1,6.3-2.2,9.5-3.2l1,3.2c-3.1,1-6.3,2.1-9.4,3.2h0ZM1633.3,49c-3.2-1-6.4-1.9-9.5-2.8l.9-3.2c3.2.9,6.4,1.9,9.6,2.9l-1,3.2ZM265.8,46.9l-.9-3.2c3.2-.9,6.5-1.8,9.7-2.6l.8,3.2c-3.2.8-6.4,1.7-9.6,2.6h0ZM1614.1,43.7c-3.2-.8-6.5-1.5-9.7-2.2l.7-3.3c3.2.7,6.5,1.5,9.8,2.2l-.8,3.2ZM285.1,42l-.7-3.3c3.3-.7,6.6-1.4,9.9-2l.6,3.3c-3.2.6-6.5,1.3-9.8,2ZM1594.7,39.5c-3.2-.6-6.5-1.1-9.8-1.6l.5-3.3c3.3.5,6.7,1,9.9,1.6l-.6,3.3h0ZM304.7,38.3l-.5-3.3c3.3-.5,6.6-1,10-1.4l.4,3.3c-3.3.4-6.6.9-9.9,1.4h0ZM1575,36.6c-3.3-.4-6.6-.7-9.9-1l.3-3.3c3.3.3,6.7.6,10,1,0,0-.4,3.3-.4,3.3ZM324.4,35.8l-.3-3.3c3.3-.3,6.7-.6,10-.8l.2,3.3c-3.3.2-6.6.5-9.9.8h0ZM1555.2,34.9c-3.3-.2-6.6-.3-9.9-.4v-3.3c3.4,0,6.8.2,10.1.4l-.2,3.3h0ZM344.3,34.6v-3.3c3.2-.1,6.6-.2,10-.2v3.3c-3.3,0-6.7,0-10,.2h0ZM1535.2,34.4h-10v-3.3h10v3.3ZM1515.2,34.4h-10v-3.3h10v3.3ZM1495.2,34.4h-10v-3.3h10v3.3ZM1475.2,34.4h-10v-3.3h10v3.3ZM1455.2,34.4h-10v-3.3h10v3.3ZM1435.2,34.4h-10v-3.3h10v3.3ZM1415.1,34.4h-10v-3.3h10v3.3ZM1395.1,34.4h-10v-3.3h10v3.3ZM1375.1,34.4h-10v-3.3h10v3.3ZM1355.1,34.4h-10v-3.3h10v3.3ZM1335.1,34.4h-10v-3.3h10v3.3ZM1315.1,34.4h-10v-3.3h10v3.3ZM1295,34.4h-10v-3.3h10v3.3ZM1275,34.4h-10v-3.3h10v3.3ZM1255,34.4h-10v-3.3h10v3.3ZM1235,34.4h-10v-3.3h10v3.3ZM1215,34.4h-10v-3.3h10v3.3ZM1194.9,34.4h-10v-3.3h10v3.3ZM1174.9,34.4h-10v-3.3h10v3.3ZM1154.9,34.4h-10v-3.3h10v3.3ZM1134.9,34.4h-10v-3.3h10v3.3ZM1114.9,34.4h-10v-3.3h10v3.3ZM1094.9,34.4h-10v-3.3h10v3.3ZM1074.8,34.4h-10v-3.3h10v3.3ZM1054.8,34.4h-10v-3.3h10v3.3ZM1034.8,34.4h-10v-3.3h10v3.3ZM1014.8,34.4h-10v-3.3h10v3.3ZM994.8,34.4h-10v-3.3h10v3.3ZM974.8,34.4h-10v-3.3h10v3.3ZM954.7,34.4h-10v-3.3h10v3.3ZM934.7,34.4h-10v-3.3h10v3.3ZM914.7,34.4h-10v-3.3h10v3.3ZM894.7,34.4h-10v-3.3h10v3.3ZM874.7,34.4h-10v-3.3h10v3.3ZM854.7,34.4h-10v-3.3h10v3.3ZM834.6,34.4h-10v-3.3h10v3.3ZM814.6,34.4h-10v-3.3h10v3.3ZM794.6,34.4h-10v-3.3h10v3.3ZM774.6,34.4h-10v-3.3h10v3.3ZM754.6,34.4h-10v-3.3h10v3.3ZM734.6,34.4h-10v-3.3h10v3.3ZM714.5,34.4h-10v-3.3h10v3.3ZM694.5,34.4h-10v-3.3h10v3.3ZM674.5,34.4h-10v-3.3h10v3.3ZM654.5,34.4h-10v-3.3h10v3.3ZM634.5,34.4h-10v-3.3h10v3.3ZM614.5,34.4h-10v-3.3h10v3.3ZM594.4,34.4h-10v-3.3h10v3.3ZM574.4,34.4h-10v-3.3h10v3.3ZM554.4,34.4h-10v-3.3h10v3.3ZM534.4,34.4h-10v-3.3h10v3.3ZM514.4,34.4h-10v-3.3h10v3.3ZM494.4,34.4h-10v-3.3h10v3.3ZM474.3,34.4h-10v-3.3h10v3.3ZM454.3,34.4h-10v-3.3h10v3.3ZM434.3,34.4h-10v-3.3h10v3.3ZM414.3,34.4h-10v-3.3h10v3.3ZM394.3,34.4h-10v-3.3h10v3.3ZM374.2,34.4h-10v-3.3h10v3.3Z"/>
  <ellipse class="st3" cx="421.1" cy="353.9" rx="361" ry="328.8"/>
  <g class="st4">
    <path class="st2" d="M1537.6.4H354.5C159,.4,0,159.5,0,355s159,354.5,354.5,354.5h1183.1c195.5,0,354.5-159,354.5-354.5S1733.1.4,1537.6.4ZM706.2,470.1c0,89.4-72.4,161.8-161.8,161.8s-82.9-17.1-111.9-45c-29.1,27.8-68.5,45-111.9,45-89.4,0-161.8-72.4-161.8-161.8s18.4-85.8,48.1-115.1c-29.7-29.3-48.1-70.1-48.1-115.1,0-89.4,72.4-161.8,161.8-161.8s82.9,17.1,111.9,44.9c29.1-27.8,68.5-44.9,111.9-44.9,89.4,0,161.8,72.4,161.8,161.8s-18.4,85.8-48.1,115.1c29.7,29.3,48.1,70.1,48.1,115.1Z"/>
  </g>
  <g>
    <path class="st0" d="M770,154.2c2.3-.8,4.5-1.2,6.7-1.2,7.2,0,12.5,3.3,15.9,9.8,2.6,4.8,3.9,9.1,3.9,13.1s-.3,3-.8,4.9c-.5,1.9-.8,3.1-.8,3.5,0,1.2.4,2.9,1.2,4.9,1.1,2.9,1.6,5.6,1.6,8.2s0,.7,0,1.3c0,.6,0,1.1,0,1.3-.1.7-.2,1.6-.2,2.9,0,2.7.4,4.8,1.2,6.1,1,1.9,1.5,2.9,1.6,2.9.4,0,2.2-1.6,5.3-4.7,3.3-3,4.9-5.4,4.9-7.1,0-3.5,1-7.1,3.1-10.6s4.5-6.1,7.5-7.5c1.9-.9,4.5-1.4,8-1.4s5.8.5,7.8,1.4c1.8.9,3.9,3,6.5,6,2.6,3.1,4.4,5.9,5.5,8.5,1.1,2.6,2,3.9,2.7,3.9s2.6,1.4,5.7,4.3l4.5,4.1,2.2-3.1c1.5-1.8,2.2-4.8,2.2-9.2s.8-7.4,2.5-10c1.6-2.3,2.7-5.9,3.3-10.8.7-6,2-10.4,4-13.4,2-2.9,5.1-4.9,9.3-6,1.6-.4,3.2-.6,4.7-.6,3.3,0,7.3,1.2,12,3.5,7.6,3.8,11.4,9.2,11.4,16.1s-1.8,9-5.5,13.2c-2.5,3-3.7,6-3.7,9s-.6,5.1-1.7,8.3c-1.2,3.2-2.3,5.1-3.4,5.6-.8.5-1.2,2.1-1.2,4.7s-.9,5.6-2.7,9.2c-1.5,2.9-2.2,6.2-2.2,10.2v4.7c0,3.9-.8,7.4-2.2,10.4-1.6,3.3-2.5,6-2.5,8.2,0,4.8-1.4,8.6-4.1,11.6-1.2,1.5-2,5-2.5,10.6-.1,5.8-1,9.9-2.7,12-1.4,1.9-3.5,3.6-6.4,5-2.9,1.4-5.6,2.2-8,2.4-4.5,0-8.8-2.1-13-6.2-4.2-4.1-6.7-8.9-7.3-14.2-.7-4.2-1.8-7.1-3.5-8.8-3.3-3.3-4.9-7.3-4.9-12-.1-1.8-.6-3.4-1.4-4.9s-1.7-2.2-2.7-2.2c-1.6,0-3.1,3.2-4.3,9.6-1.1,4.4-2.6,7.9-4.5,10.6-2.2,2.9-3.3,5.6-3.3,8.2v1.8c0,4.8-1.6,8.8-4.9,12s-7.7,5.2-13.2,5.7c-.7.1-1.7.2-3.1.2-5.8,0-10.6-1.6-14.4-4.9s-5.6-7.4-5.6-12.4.1-3.1.4-4.1c.7-2.6.5-4.5-.4-5.7-3.1-3.5-4.7-7.6-4.7-12.2s0-.7,0-1.2c0-.5,0-1,0-1.2.1-1,.2-2.1.2-3.5s-.5-3.5-1.4-4.9c-2.6-3.7-3.9-7.6-3.9-11.8s.1-1.8.4-3.5c.4-1.5.6-2.6.6-3.3,0-1.1-.5-2.1-1.4-3.1-3.5-3.7-5.3-8.5-5.3-14.5s-.5-7.6-1.6-9.8c-1-2.3-1.4-4.8-1.4-7.3v-1.8c0-2.7-.6-5.2-1.8-7.5-2.5-4.8-3.7-9.2-3.7-13.2,0-9.1,5.2-15.6,15.5-19.6h0Z"/>
    <path class="st0" d="M965.1,134c1.4-.7,3.1-1,5.3-1,4.9,0,8.8.9,11.6,2.9,1.6,1.2,3,1.8,4.1,1.8s1.6-.2,2.8-.6,2.5-.6,3.9-.6l4.1.6c1.2.4,3.5.6,6.7.6s3.5,0,4.5-.2c1.1-.1,2.6-.2,4.5-.2,6.4,0,11.4,1.6,15.1,4.7,4.2,3.5,6.3,8.1,6.3,13.7s-2.2,10.2-6.5,13.5c-3.8,3-8.9,4.5-15.3,4.5s-3.4-.2-4.9-.6c-1.6-.4-2.8-.6-3.7-.6s-2.7.6-5.1,1.6c-2,1.1-4.1,1.6-6.1,1.6s-2.5,0-3.3-.2c-1.1-.1-4.9-.4-11.4-.8l-6.3-.2.2,11c.1,4.1.2,7.9.2,11.4l.6-.2c.3-.3.7-.6,1.2-1s1.1-.9,1.6-1.4c2.5-2,5.3-3.5,8.6-4.5,1.8-.5,3.4-.8,4.9-.8s3.3.4,5.7,1.2,4.2,1.2,5.3,1.2,2.5-.4,4.1-1.2c2.6-1.1,5.8-1.6,9.6-1.6s6.6.5,8.8,1.6c3,1.5,5.4,3.7,7.2,6.7,1.8,3,2.8,6.1,2.8,9.4s-.1,2.1-.4,3.5c-.9,3.1-2,5.5-3.3,7.1s-3.5,3.5-6.9,5.7c-2.8,1.9-5,3.1-6.5,3.6-1.5.5-3.7.8-6.7.9-4.5.1-7.9.9-10.2,2.4-2.6,1.5-5.8,2.2-9.6,2.2s-4.8-.4-6.5-1.2c-.4-.3-1-.4-1.8-.4-1.2,0-3.1.9-5.5,2.6-3.5,2.7-5.3,5.6-5.3,8.8s.3,3.7,1,5.5c.4.9.9,2.9,1.4,5.9,0,.8.1,1.4.4,1.6.3.3.7.3,1.2,0s1.1-.8,1.6-1.4c1.1-1.2,3.1-2.5,6-3.8,2.9-1.3,5.3-1.9,7.2-1.9s4.1.4,6.5,1.2c.7.3,1.6.4,2.7.4,1.6,0,3.4-.3,5.3-1,2.3-.8,4.6-1.2,6.9-1.2,4.5,0,8.5,1.3,12,3.9,3.5,2.6,5.8,6.1,6.9,10.4.4,1.4.6,2.7.6,4.1,0,5-2,9.5-6,13.4-4,3.9-8.7,5.8-14.2,5.8s-5.6.8-7.8,2.2c-2.6,1.9-6.1,2.9-10.6,2.9s-3.9-.3-5.1-.8c-1-.4-1.8-.6-2.5-.6-1.1,0-3.3.9-6.7,2.6-3.8,2-7.4,3.1-10.8,3.1s-4.7-.5-7.1-1.6c-2.6-1.2-4.9-3.1-6.8-5.6-2-2.5-3.2-4.9-3.6-7.2-.5-2.9-2.2-5.5-5.1-8-5.8-4.8-8.8-10.9-8.8-18.6s0-2.1.2-2.6c.4-3,.6-5,.6-6.1s-.4-3.7-1.2-8.2c-.4-2.7-.6-4.6-.6-5.7,0-1.6.5-3.6,1.4-5.9,1.2-2.6,1.8-5.1,1.8-7.5s0-.7,0-1.2c0-.5,0-1,0-1.4v-2.2c0-2.7.2-4.7.6-5.9.3-.5.4-1.3.4-2.2s-.4-2.4-1.2-3.9c-1.4-2.3-2-5.2-2-8.8s.5-5.8,1.6-7.9c.8-1.5,1.2-2.6,1.2-3.5s-.3-1.6-.8-3.3c-.4-1.4-.6-2.7-.6-4.1,0-2.7,1.2-6.8,3.7-12.2,3.5-7.6,7.8-12,12.8-13.1,1.9-.4,3.3-1.6,4.1-3.5.7-1.5,1.9-3.2,3.7-5.1,1.8-1.9,3.5-3.3,5.3-4.3h0Z"/>
    <path class="st0" d="M1073.2,130.9c2-.8,4.1-1.2,6.3-1.2,7.1,0,12.2,3.1,15.5,9.4,1.5,2.6,2.2,5.5,2.2,8.8s-.7,6.2-2,9.8c-1.1,3-1.6,5-1.6,5.9s.4,2.7,1.2,4.9c.8,2.2,1.2,4.5,1.2,6.9,0,3.7-.8,6.7-2.4,9.2-.7,1.1-1,2.1-1,3.1s.2,2,.6,3.5c.3.8.4,2.2.4,4.1,0,4.8-.9,8.2-2.7,10.4-.8,1.1-.6,2.9.6,5.5,1.1,2.4,1.6,4.8,1.6,7.1s0,.8,0,1.4c0,.7,0,1.2,0,1.6-.1.7-.2,1.7-.2,3.1,0,2.9.3,5.3,1,7.3.9,2.6,1.4,5.1,1.4,7.6v3.5l6.7.4c.9.1,2.2.2,3.7.2,2.4,0,4.3-.3,5.7-1,1.8-.9,4.2-1.4,7.3-1.4s6.9.7,9.2,2c1.8,1.2,3.1,1.8,4.1,1.8s2.2-.5,5.1-1.4c2.8-.9,5.2-1.4,6.9-1.4,3.8,0,7.5,1.8,11.2,5.5,4.2,4.2,6.3,9.3,6.3,15.3s-3.1,13.3-9.4,16.7c-2.2,1.1-5.2,1.6-9.2,1.6s-4.7-.3-6.7-1c-1.1-.4-2-.6-2.8-.6s-2,.3-3.7,1c-2,1-4.3,1.4-6.9,1.4s-3.9-.3-5.9-1c-.8-.4-1.6-.6-2.2-.6s-2.9.8-5.9,2.2c-3.3,1.6-6,2.5-8.2,2.5s-4.5-.8-7.8-2.5c-2.8-1.4-5.4-2-7.6-2s-.7,0-1.1.1c-.5,0-.9.1-1.3.1h-1.8c-6.8,0-12.6-2-17.5-5.9-4.1-3.4-6.1-7.8-6.1-13.2s.5-5,1.6-7.6c.7-1.6,1-2.8,1-3.5s-.5-2.1-1.6-4.3c-1.5-2.6-2.2-6.1-2.2-10.4s.3-4.4,1-6.1c.7-1.2.5-2.9-.4-4.9-.9-1.8-1.4-4.5-1.4-8.2s.3-5.3,1-6.5c.4-.8.6-2,.6-3.5s-.2-3.5-.6-5.9-.6-4.4-.6-5.9.3-3.6,1-6.3c.7-2.4,1-4,1-4.7s-.6-2.2-1.6-4.1c-1.5-2.3-2.2-5.1-2.2-8.4s1.1-7.4,3.3-10.4c2.2-3.3,3.3-6.7,3.3-10.4s.7-7.1,2-9.4c3-5,6.6-8.4,10.8-10.2h0Z"/>
    <path class="st0" d="M1227.5,146c1.4-1.9,3.6-3.5,6.6-4.8s6.2-1.9,9.5-1.9,4.7.3,6.3,1c1.4.7,5.7,1.2,13.1,1.4,4.8.1,7.8.3,9.2.6,1.4.3,3,1,4.9,2.2,5.4,3.9,8.2,8.8,8.2,14.7s-.9,6.6-2.7,10c-4.3,8.6-10.2,12.9-17.5,12.9s-2.2-.1-3.9-.4c-3-.5-4.6-.8-4.9-.8-.7-.4-1.2-.8-1.4-1-.7-.7-2.7-.8-6.1-.2-3.7.5-6.8,2-9.4,4.5-2.2,2-4.4,3.5-6.7,4.5-1.8.7-3.5,2.7-5.1,6s-2.4,6.5-2.4,9.5-.7,5.8-2,9.6c-1.1,2.9-1.6,4.6-1.6,5.3s.4,2.4,1.2,4.7c1.2,3,3.1,5.4,5.5,7.1,2.6,1.8,4.7,4.3,6.3,7.5,1.8,3.4,3.8,5.9,6.1,7.5,1.9,1.2,3.2,1.8,3.9,1.8s1.7-.3,3.5-1c2.4-.8,4.9-1.2,7.3-1.2h1.8c3,0,6.7-1.1,11.2-3.3,4.5-2,8.1-3.1,10.8-3.1s4.6.8,6.9,2.2c6.1,3.9,9.2,9.7,9.2,17.3s-2,11-6.1,15.1c-3.8,3.8-7.8,5.7-12,5.7s-3.1-.2-4.9-.6c-2.4-.5-3.8-.8-4.1-.8-1.2,0-2.7.7-4.5,2-2.2,1.5-5.2,2.2-9,2.2h-2.8c-3.1-.1-8.3-.2-15.5-.2-11-.1-19-5-24.1-14.5-1.4-2.2-2.9-3.5-4.7-3.9-3.3-.5-6.4-2.8-9.4-6.6-3-3.9-4.6-7.6-4.7-11.1,0-1.9-.9-3.9-2.7-5.9-3.1-3.8-4.7-8.1-4.7-12.8s.3-3.7,1-5.7c.1-.3.2-.6.2-1,0-1.1-.8-2.8-2.4-5.1-2-2.9-3.1-6.1-3.1-9.6s1.6-8.8,4.9-12c1.5-1.8,2.4-4.8,2.8-9.2.7-8,4.3-13.5,10.8-16.3,1.9-.8,3.2-1.5,3.8-2.1s.9-1.5.9-2.8c0-3.4,1.8-6.7,5.3-10,3.5-3.3,7.2-4.9,11-4.9s5-.9,6.1-2.6h0Z"/>
    <path class="st0" d="M1384.9,137.1c4.2-3.1,8.6-4.7,13.2-4.7,7.1,0,12.4,3.4,15.9,10.2,1.9,3.4,3.5,5.1,4.9,5.1s4.3.8,7.1,2.4c2.8,1.6,4.9,3.2,6.1,5,1.6,2.2,2.8,4.6,3.5,7.1.8,3,2.6,5.4,5.3,7.1,2.3,1.5,4.3,3.6,6,6.4,1.7,2.8,2.6,5.3,2.6,7.4s-.4,4.1-1.2,7.3c-.4,1.6-.6,2.9-.6,3.9,0,1.4.5,2.9,1.6,4.5,1.6,2.4,2.4,5.6,2.4,9.6s-.6,5.9-1.8,7.8c-1.2,1.6-1.8,4-1.8,7.1s0,1.1,0,2,0,1.7,0,2.2v2.9c0,4.2-.5,7.5-1.4,9.8-1.1,2.4-1.6,5-1.6,7.6,0,3.8-1.4,7.7-4.1,11.7-2.7,4-5.8,6.6-9.4,7.6-2.3.8-3.5,1.8-3.5,2.9,0,1.6-.9,3.6-2.8,5.8s-3.8,3.9-5.8,5c-2.6,1.5-5.8,2.2-9.8,2.2s-6.4.7-7.8,2c-3.3,3.5-7.4,5.3-12.4,5.3s-8.8-1.6-12-4.7c-1.5-1.4-4.2-2.1-7.9-2.2-4.1-.1-7.8-1.2-11.3-3.3s-6.1-4.8-7.8-8.2c-1.1-1.9-2.8-2.9-5.3-2.9-4.2,0-7.8-1.3-10.7-4-2.9-2.6-4.9-6.3-5.8-10.9-.9-4.2-2.2-6.8-3.7-7.8-1.9-1.4-3.5-3.5-4.7-6.3s-1.8-5.8-1.8-8.8.3-3.9.8-5.1c.5-1.4.1-3.2-1.2-5.5-1.9-3-2.8-7.8-2.8-14.5s.5-7,1.4-8.8c.8-1.6,1.2-3.4,1.2-5.3s0-2.4-.2-3.3c-.1-.8-.2-1.9-.2-3.3,0-5.2,2.2-9.7,6.7-13.7,3.1-2.6,4.7-5.1,4.7-7.5,0-3.8,1.5-7.1,4.5-10,3-2.9,7-4.8,12-5.7,3.7-.8,6.3-2.5,7.9-5.1,3.3-5,8.1-7.5,14.5-7.5s6.2.5,9.2,1.4c2.3.7,3.7,1,4.3,1,.8,0,2-.5,3.5-1.6h0ZM1381.9,177.2c-2.8-1.2-4.8-1.8-5.7-1.8s-2.3.6-4.5,1.6c-9.4,5.2-14.1,9-14.1,11.4s-.9,4-2.7,7.5c-1.5,2.9-2.2,5.4-2.2,7.5s0,3.3.2,4.5c.4,4.6,1.4,7.9,2.8,9.8,1.4,1.9,2,5,2,9.2s.2,5,.7,6.1,1.9,2.9,4.4,5.3c3,3.1,6.2,5.6,9.6,7.3,2.8,1.2,4.8,2.4,5.9,3.5.8,1.1,3.3,1.6,7.6,1.6s9.9-.8,12.2-2.4c1.9-1.5,3.5-2.4,4.9-2.9,1.4-.5,2-1.3,2-2.2s1-2.8,3.1-5.1c2.2-2.3,3.3-4.7,3.3-7.1s.5-5.9,1.6-9.2c.7-2.7,1-4.6,1-5.7s-.2-2.4-.6-3.7c-.6-1.9-.8-4.1-.8-6.7s0-2.3.2-2.9c0-.4,0-.9,0-1.5s0-1.1,0-1.3c0-1.9-.6-4.3-1.6-7.1-1.4-2.7-2-5.2-2-7.3s-1.4-3.6-4.3-5.9c-2.2-1.8-3.7-2.6-4.7-2.6s-1.8.3-3.1.8c-2,.9-4.3,1.4-6.9,1.4s-5.7-.7-8.6-2h0Z"/>
    <path class="st0" d="M1572.5,129.1c2.8-1.4,5.8-2,8.8-2,5.2,0,9.5,2.1,12.9,6.3s5.5,9.9,6,16.9c.3,4.5,1.1,7.9,2.4,10.2,1.8,3.4,2.7,6.7,2.7,9.8s-.2,3-.6,4.5c-.8,2.7-.9,4.4-.2,5.1.4.3,1.2,2.2,2.2,5.7.5,2.4.8,3.9.8,4.3,0,1.5-.4,3.3-1.2,5.5-.7,1.9-1,3.6-1,5.1s.1,2.1.4,2.6c.7,1.5,1,4.2,1,8.2s-.3,7.3-1,9.8c-.6,2.4-.8,3.9-.8,4.3,0,1.2.4,2.8,1.2,4.7.9,2.4,1.4,5,1.4,7.5s-.5,4.6-1.4,6.5c-.8,1.5-1.2,2.6-1.2,3.5s.5,2.6,1.4,6.1c.8,2.8,1.2,4.9,1.2,6.1s-.2,2.5-.6,4.1c-1.2,4.2-3.8,7.9-7.8,11s-8.1,4.8-12.1,4.9c-3.5,0-7-1.1-10.3-3.5-3.3-2.3-5.6-5.2-6.8-8.6-.7-2-1-4.3-1-6.7,0-4.1.7-7.5,2-10.2.8-2,1.2-3.4,1.2-4.1s-.3-1.8-1-2.9c-.9-1.6-1.4-3.9-1.4-6.7v-1.4c.3-5.4.4-8.4.4-8.8,0-2.3-.3-4.8-1-7.5-.3-.7-.4-2.2-.4-4.7,0-4.5.5-8.9,1.4-13.2.3-.9-.1-1.4-1.2-1.4s-1.8,1.8-2.2,5.3c-.3,2.6-1.1,5.5-2.6,8.8-1.4,3.3-2.7,5.2-3.8,5.9-.7.4-1,1.9-1,4.5,0,5.4-2.2,10.4-6.6,14.8-4.4,4.4-9.3,6.6-14.6,6.6s-8.2-1.5-11.8-4.5c-3.7-3-5.8-6.5-6.5-10.6-.7-2.6-1.7-4.3-3.1-5.1-1.9-.9-3.5-2-4.7-3.3-1.1-1.1-2-1.6-2.7-1.6s-.4.1-.4.4c0,.6.5,1.8,1.6,3.7,1.5,2.6,2.2,5.7,2.2,9.4s-.6,5.4-1.6,7.6c-.7,1.6-1,2.7-1,3.3,0,.9.5,2.5,1.6,4.7,1.2,2.6,1.8,5.2,1.8,7.9,0,4.9-1.9,9.2-5.6,13-3.7,3.7-8.2,5.6-13.4,5.6h-1.8c-6.7-.7-11.5-3.9-14.5-9.6-1.1-2.2-1.6-5.3-1.6-9.4s.3-5.1,1-7.1c.8-1.8.6-3.7-.6-5.9-.7-1.5-1.3-4.8-1.8-9.8-.6-5-1.2-8.4-2-10-1.2-2.7-1.8-5.8-1.8-9.2.1-16,.3-25.4.5-28s1.1-5.5,2.6-8.7c1.5-3,2.2-5.2,2.2-6.7s-.3-2.2-.8-5.5c-.3-1.2-.4-3.1-.4-5.5,0-10.3,3.7-17.5,11-21.4,2.7-1.4,5.4-2,8.2-2,6.1,0,11.8,3.8,16.9,11.4,2.8,5.2,4.3,8.5,4.5,10,0,.3,0,.8,0,1.5,0,.8,0,1.3,0,1.7l-.4,6.7,3.3,1c2.2.7,4.7,2.6,7.5,5.7,2.8,3.1,4.7,5.9,5.5,8.4.8,2.4,1.5,3.7,2,3.7s1.2-1.5,1.6-4.5c.4-2.3,1.6-5.3,3.6-8.9,2-3.6,3.4-5.4,4.4-5.4s1.3-1,1.8-3.1c1.5-5.7,4.6-10.5,9.2-14.5,3.1-2.7,5.1-5.6,5.9-8.6,1.6-6,5.7-10.5,12.2-13.7h0Z"/>
    <path class="st0" d="M785.7,329.5c1.4-.7,3.1-1,5.3-1,4.9,0,8.8,1,11.6,2.9,1.6,1.2,3,1.8,4.1,1.8s1.6-.2,2.8-.6c1.2-.4,2.5-.6,3.9-.6l4.1.6c1.2.4,3.5.6,6.7.6s3.5,0,4.5-.2c1.1-.1,2.6-.2,4.5-.2,6.4,0,11.4,1.6,15.1,4.7,4.2,3.5,6.3,8.1,6.3,13.7s-2.2,10.2-6.5,13.5c-3.8,3-8.9,4.5-15.3,4.5s-3.4-.2-4.9-.6c-1.6-.4-2.8-.6-3.7-.6s-2.7.5-5.1,1.6c-2,1.1-4.1,1.6-6.1,1.6s-2.5,0-3.3-.2c-1.1-.1-4.9-.4-11.4-.8l-6.3-.2.2,11c.1,4.1.2,7.9.2,11.4l.6-.2c.3-.3.7-.6,1.2-1s1.1-.9,1.6-1.4c2.5-2,5.3-3.5,8.6-4.5,1.8-.5,3.4-.8,4.9-.8s3.3.4,5.7,1.2,4.2,1.2,5.3,1.2,2.5-.4,4.1-1.2c2.6-1.1,5.8-1.6,9.6-1.6s6.6.5,8.8,1.6c3,1.5,5.4,3.7,7.2,6.7,1.8,3,2.8,6.1,2.8,9.4s-.1,2.1-.4,3.5c-1,3.1-2,5.5-3.3,7.1-1.2,1.6-3.5,3.5-6.9,5.7-2.8,1.9-5,3.1-6.5,3.6-1.5.5-3.7.8-6.7.9-4.5.1-7.9,1-10.2,2.5-2.6,1.5-5.8,2.2-9.6,2.2s-4.8-.4-6.5-1.2c-.4-.3-1-.4-1.8-.4-1.2,0-3.1.9-5.5,2.6-3.5,2.7-5.3,5.6-5.3,8.8s.3,3.7,1,5.5c.4,1,.9,2.9,1.4,5.9,0,.8.1,1.4.4,1.6.3.3.7.3,1.2,0s1.1-.8,1.6-1.4c1.1-1.2,3.1-2.5,6-3.8,2.9-1.3,5.3-1.9,7.2-1.9s4.1.4,6.5,1.2c.7.3,1.6.4,2.7.4,1.6,0,3.4-.3,5.3-1,2.3-.8,4.6-1.2,6.9-1.2,4.5,0,8.5,1.3,12,3.9,3.5,2.6,5.8,6,6.9,10.4.4,1.4.6,2.7.6,4.1,0,5-2,9.5-6,13.4-4,3.9-8.7,5.8-14.2,5.8s-5.6.8-7.8,2.2c-2.6,1.9-6.1,2.9-10.6,2.9s-3.9-.3-5.1-.8c-1-.4-1.8-.6-2.5-.6-1.1,0-3.3.9-6.7,2.6-3.8,2-7.4,3.1-10.8,3.1s-4.7-.5-7.1-1.6c-2.6-1.2-4.9-3.1-6.8-5.6-2-2.5-3.2-4.9-3.6-7.2-.5-2.9-2.2-5.5-5.1-8-5.8-4.8-8.8-10.9-8.8-18.5s0-2.1.2-2.6c.4-3,.6-5,.6-6.1s-.4-3.7-1.2-8.2c-.4-2.7-.6-4.6-.6-5.7,0-1.6.5-3.6,1.4-5.9,1.2-2.6,1.8-5.1,1.8-7.5s0-.7,0-1.2c0-.5,0-1,0-1.4v-2.2c0-2.7.2-4.7.6-5.9.3-.5.4-1.3.4-2.2s-.4-2.4-1.2-3.9c-1.4-2.3-2-5.2-2-8.8s.5-5.8,1.6-8c.8-1.5,1.2-2.6,1.2-3.5s-.3-1.6-.8-3.3c-.4-1.4-.6-2.7-.6-4.1,0-2.7,1.2-6.8,3.7-12.2,3.5-7.6,7.8-12,12.8-13,1.9-.4,3.3-1.6,4.1-3.5.7-1.5,1.9-3.2,3.7-5.1,1.8-1.9,3.5-3.3,5.3-4.3h0Z"/>
    <path class="st0" d="M877.6,345c3.8-4.8,8.6-7.1,14.5-7.1s6.5,1,9.8,3.1c3,1.9,5.6,4.5,7.8,7.9,2.2,3.3,3.4,6.3,3.4,8.9s.9,4.8,2.7,6.9c3.8,5,5.7,10.1,5.7,15.3v2.2c0,2.5.3,4.4.8,5.7.1.4,1,3.7,2.5,10,1.6,6.2,2.7,9.7,3.4,10.4,1.9,2.3,3.1,6,3.7,11l.8,5.3,2.2-4.1c1.8-3.1,3.6-5.6,5.5-7.3,2.2-2.2,3.3-4.1,3.3-5.9s.7-4.6,2-8.6,2.5-6.3,3.5-7.1c1.1-1.1,1.8-2.6,2.2-4.7.5-2.6,1.8-5.4,3.9-8.6,2-3.3,3.4-7.1,4.1-11.4.7-6,3.5-10.7,8.4-14.1,2.5-1.6,6-2.5,10.6-2.5s8.8.9,12,2.6c5.7,3.3,8.6,8.2,8.6,14.9s-1,8-3.1,12c-1.9,3.5-2.8,6.5-2.8,8.8-.1,2.5-.9,5.1-2.3,8-1.4,2.9-3.1,5.1-5,6.4-2.2,1.6-3.3,3.6-3.3,5.9s-.6,4.7-1.8,7.2c-1.2,2.5-2.6,4.3-4.1,5.4-1.6,1-2.5,2.9-2.5,5.9,0,6.4-1.7,11.4-5.1,15.1-1.8,2-3.2,4.6-4.3,7.8-.7,2.5-2.2,5-4.6,7.8s-5,4.8-7.8,6.1c-2.3,1.2-3.5,2.6-3.5,4.3,0,3.1-1.9,6.3-5.8,9.5s-7.7,4.8-11.5,4.8-8.8-1.9-13.2-5.7c-4.5-3.8-7.1-7.9-7.8-12.2-.5-2.9-1.8-5.5-3.7-8-3-3.8-4.5-7.5-4.5-11.2s.2-3.1.6-4.7.6-2.8.6-3.5-.8-2-2.5-3.7c-1.8-1.6-3.3-3.9-4.7-6.9s-2.1-5.6-2.2-8c0-2.3-.6-3.9-1.8-4.7-1.8-1.2-3.3-3.1-4.6-5.7-1.3-2.6-1.9-5.2-1.9-7.8s-.7-6.3-2-9.6c-.7-1.4-1.7-4.9-3.1-10.6s-2.6-9.3-3.7-10.8c-1.5-2.2-2.2-6.2-2.2-12.2s.2-6.6.5-8c.3-1.4,1.1-3,2.3-4.6h0Z"/>
    <path class="st0" d="M1050.7,329.5c1.4-.7,3.1-1,5.3-1,4.9,0,8.8,1,11.6,2.9,1.6,1.2,3,1.8,4.1,1.8s1.6-.2,2.8-.6c1.2-.4,2.5-.6,3.9-.6l4.1.6c1.2.4,3.5.6,6.7.6s3.5,0,4.5-.2c1.1-.1,2.6-.2,4.5-.2,6.4,0,11.4,1.6,15.1,4.7,4.2,3.5,6.3,8.1,6.3,13.7s-2.2,10.2-6.5,13.5c-3.8,3-8.9,4.5-15.3,4.5s-3.4-.2-4.9-.6c-1.6-.4-2.8-.6-3.7-.6s-2.7.5-5.1,1.6c-2,1.1-4.1,1.6-6.1,1.6s-2.4,0-3.3-.2c-1.1-.1-4.9-.4-11.4-.8l-6.3-.2.2,11c.1,4.1.2,7.9.2,11.4l.6-.2c.3-.3.7-.6,1.2-1,.5-.4,1.1-.9,1.6-1.4,2.4-2,5.3-3.5,8.6-4.5,1.8-.5,3.4-.8,4.9-.8s3.3.4,5.7,1.2,4.2,1.2,5.3,1.2,2.4-.4,4.1-1.2c2.6-1.1,5.8-1.6,9.6-1.6s6.6.5,8.8,1.6c3,1.5,5.4,3.7,7.2,6.7,1.8,3,2.8,6.1,2.8,9.4s-.1,2.1-.4,3.5c-.9,3.1-2,5.5-3.3,7.1s-3.5,3.5-6.9,5.7c-2.8,1.9-5,3.1-6.5,3.6-1.5.5-3.7.8-6.7.9-4.5.1-7.9,1-10.2,2.5-2.6,1.5-5.8,2.2-9.6,2.2s-4.8-.4-6.5-1.2c-.4-.3-1-.4-1.8-.4-1.2,0-3.1.9-5.5,2.6-3.5,2.7-5.3,5.6-5.3,8.8s.3,3.7,1,5.5c.4,1,.9,2.9,1.4,5.9,0,.8.1,1.4.4,1.6.3.3.7.3,1.2,0,.5-.3,1.1-.8,1.6-1.4,1.1-1.2,3.1-2.5,6-3.8,2.9-1.3,5.3-1.9,7.2-1.9s4.1.4,6.5,1.2c.7.3,1.6.4,2.7.4,1.6,0,3.4-.3,5.3-1,2.3-.8,4.6-1.2,6.9-1.2,4.5,0,8.5,1.3,12,3.9,3.5,2.6,5.8,6,6.9,10.4.4,1.4.6,2.7.6,4.1,0,5-2,9.5-6,13.4-4,3.9-8.7,5.8-14.2,5.8s-5.6.8-7.8,2.2c-2.6,1.9-6.1,2.9-10.6,2.9s-3.9-.3-5.1-.8c-.9-.4-1.8-.6-2.4-.6-1.1,0-3.3.9-6.7,2.6-3.8,2-7.4,3.1-10.8,3.1s-4.7-.5-7.1-1.6c-2.6-1.2-4.9-3.1-6.8-5.6-2-2.5-3.2-4.9-3.6-7.2-.6-2.9-2.2-5.5-5.1-8-5.8-4.8-8.8-10.9-8.8-18.5s0-2.1.2-2.6c.4-3,.6-5,.6-6.1s-.4-3.7-1.2-8.2c-.4-2.7-.6-4.6-.6-5.7,0-1.6.5-3.6,1.4-5.9,1.2-2.6,1.8-5.1,1.8-7.5s0-.7,0-1.2c0-.5,0-1,0-1.4v-2.2c0-2.7.2-4.7.6-5.9.3-.5.4-1.3.4-2.2s-.4-2.4-1.2-3.9c-1.4-2.3-2-5.2-2-8.8s.5-5.8,1.6-8c.8-1.5,1.2-2.6,1.2-3.5s-.3-1.6-.8-3.3c-.4-1.4-.6-2.7-.6-4.1,0-2.7,1.2-6.8,3.7-12.2,3.5-7.6,7.8-12,12.8-13,1.9-.4,3.3-1.6,4.1-3.5.7-1.5,1.9-3.2,3.7-5.1,1.8-1.9,3.5-3.3,5.3-4.3h0Z"/>
    <path class="st0" d="M1243.8,348.9c2-.7,3.9-1,5.7-1,6.8,0,12.1,2.8,15.9,8.4,1.6,2,2.5,5.9,2.7,11.4.3,5.7.9,9.6,1.8,11.8.9,2.3,1.4,4.6,1.4,6.7s-.6,4.8-1.6,7.1c-.8,2-1.2,3.7-1.2,4.9s.2,2.5.6,4.5c.4,1.6.6,3.3.6,4.9,0,3-.9,6-2.8,9.2-.7,1.1-1,1.9-1,2.5s.5,2.3,1.6,4.9c1.1,2.3,1.6,5,1.6,8.2s-.9,6.9-2.8,9.4c-1.2,1.6-1.8,2.8-1.8,3.5s.5,2,1.4,4.3c.8,2.2,1.2,4.6,1.2,7.1,0,3.9-.9,7.1-2.7,9.4-1.5,2-2.2,5.3-2.2,9.8,0,6.7-2.6,11.9-7.8,15.7-2.6,1.9-5.6,2.9-9,2.9s-8-1.2-11.8-3.6c-3.8-2.4-6.5-5.5-7.9-9.3-1.2-3.1-3.1-5.4-5.5-6.7-5.7-3-8.9-7.3-9.6-13-.4-2.9-1.2-4.5-2.4-4.9-1.4-.5-3.2-2.2-5.5-4.9s-4.1-5.4-5.3-8.2c-1.6-3.5-3.3-6.2-5.1-8-4.1-4.1-6.1-8.2-6.1-12.4s-1.3-4.2-3.9-8.2c-2.4-3.7-3.7-5.9-3.7-6.7s-.3-.5-.8.2c-.1.1-.2.5-.2,1,0,1.2.8,3.3,2.4,6.1,1.8,3.1,2.7,5.7,2.7,7.8s0,2.5-.2,3.5c-.4,3.3-.6,5.5-.6,6.7s.2,3.9.6,7.5c0,.4,0,.9,0,1.4,0,.5,0,1,0,1.2,0,1.9-.5,4.1-1.4,6.5-.8,1.6-1.2,2.7-1.2,3.3s.8,2,2.2,4.3c2.3,2.9,3.5,6.5,3.5,11s-1.4,9-4.1,12.2c-3.3,4.5-8.6,6.7-15.9,6.7s-6.9-.8-9.4-2.5c-2.7-1.8-5.2-4.4-7.6-8-2.6-3.7-3.9-7.5-3.9-11.4s.3-6.5,1-8.2c.5-1.4.8-2.2.8-2.5,0-1-.4-2.2-1.2-3.9-1.1-2-1.6-4.8-1.6-8.4s.3-5.2,1-6.5c.4-.8.6-1.6.6-2.5s-.4-2.6-1.2-4.9c-1.1-2.9-1.6-5.6-1.6-8.4s0-.7,0-1.2,0-1,0-1.2c0-.4,0-.9,0-1.5s0-1,0-1.3c0-2-.6-4.3-1.6-6.7-1.1-2.2-1.6-4.7-1.6-7.5s.7-6,2-8.8c1.1-1.8,1.6-3.4,1.6-4.9s-.3-1.6-.8-4.1c-.5-1.6-.8-3.4-.8-5.3,0-3.9,1.5-7.5,4.5-10.6,2.3-2.5,3.7-5.2,4.1-8.2.4-2.7,1.9-5.3,4.5-7.8,1.8-1.6,3.2-2.6,4.4-3s3.7-.5,7.7-.5,9.4.9,11.4,2.6c2,1.5,3.9,3.9,5.5,7.3,1.5,3.1,3.2,5,5.1,5.7,3,1,5.8,2.7,8.6,5.3,2.7,2.6,4.7,5.2,5.9,8,1.2,3.1,2.8,5.6,4.7,7.5,3.5,2.9,5.3,7.1,5.3,12.9s.8,4.9,2.4,6.5c1.9,2.3,3.9,5.4,6.1,9.2,1.5,2.9,3.2,5.3,5,7.2,1.8,2,3.3,3,4.4,3s.5-.1.8-.4c.7-.7.5-2.5-.6-5.5-.8-3-1.2-5.6-1.2-8s.5-4.9,1.4-6.9c.7-1.4,1-2.6,1-3.7s-.3-2.5-1-3.9c-.8-2.2-1.3-6.6-1.4-13.4-.1-6.7-.3-10.7-.4-11.9-.3-2.5-.4-3.9-.4-4.5,0-1.9.4-3.6,1.2-5.1,1.2-2.3,3.1-4.6,5.7-6.9s5-3.9,7.3-4.7h0Z"/>
    <path class="st0" d="M1411.6,330.1c2.3-1,5.4-1.4,9.2-1.4s5.5.3,7.9,1c3.5,1.2,6.5,3.4,8.8,6.6s3.5,6.7,3.5,10.5,0,1.9-.2,2.5c-.6,3.1-2.6,6.6-6.1,10.4-4.8,5.2-9.9,7.8-15.5,7.8h-2.8c-3.3,0-6.7.7-10.4,2-4.2,1.5-7,2.2-8.4,2.2s-3.2,1.5-4.7,4.4c-1.5,2.9-2.2,6-2.2,9.1s-.7,6.7-2,9.2c-.9,1.9-1.4,3.5-1.4,4.7s.1,1.3.4,2.6c.5,1.9.8,4.9.8,9v4.9c0,4.8.2,8.7.6,11.8.3,2.5.4,3.9.4,4.3,0,1.6-.6,3.9-1.6,6.7-1.2,2.9-1.8,6.7-1.8,11.6v3.7c.3,7.2.8,12.1,1.4,14.7.4,1.5.6,3.2.6,5.1s0,1.8-.2,2.2c-.7,3.7-2.4,7.3-5.1,10.8-2.7,3.5-5.3,5.6-7.8,6.3-1.5.5-2.2,1.1-2.2,1.6s-.9,1-2.8,1c-3.3,0-6.4-.7-9.4-2-8-3.8-12-9.9-12-18.1s0-.7,0-1.3c0-.6,0-1.1,0-1.5.5-4.5.8-8.2.8-11s-.2-3.9-.6-6.3c-.1-.8-.2-1.8-.2-3.1s.6-3.9,1.8-6.9c1.5-3,2.2-7,2.2-12v-3.5c0-6.8-.5-11-1.4-12.6-.8-1.6-1.2-4.4-1.2-8.4s.5-7.9,1.4-9.4c1.1-1.8,1.6-5.4,1.6-11s.1-8.9.4-10c.1-.4,0-.9-.7-1.3-.6-.5-1.5-1-2.8-1.5s-2.3-.8-3.3-.8-2.8,1-5.5,2.9c-3.1,2-6.2,3.1-9.2,3.1h-3.1c-3.1,0-6.1.7-8.8,2-3,1.4-6.2,2-9.8,2s-6.9-.7-9.4-2c-5.7-3.4-8.9-8.9-9.6-16.5-.1-1.1-.2-2.5-.2-4.1s.6-4.7,1.8-7.5c3.1-6.4,8.2-9.6,15.3-9.6s3.3.2,4.9.6c1.6.4,2.9.6,3.9.6,1.6,0,3.7-.5,6.3-1.6,3.3-1.2,5.8-1.8,7.5-1.8s2.2,0,2.8.2c.8.1,1.8.2,2.8.2,1.6,0,3.4-.8,5.3-2.2,2.8-2.5,6.1-3.7,9.8-3.7s3.2,0,4.3.2c.4,0,.9,0,1.4.1.5,0,.9.1,1.2.1,2.4,0,5.2-.8,8.2-2.2,3-1.6,5.8-2.5,8.4-2.5s3.7.5,6.3,1.4c1.2.5,2.3.8,3.3.8s2.6-.7,5.3-2c2.8-1.5,5.4-2.2,7.6-2.2s2.7,0,3.7.2c.7.1,1.8.2,3.3.2,2.8,0,5.2-.3,6.9-1h0Z"/>
  </g>
  <path class="st0" d="M1464.3,450.1c.8,5,5.3,8,9.7,9.8,4.6,1.9,9.5,3.2,14.3,4.3,10.1,2.2,20.6,3,30.9,2.2,20.1-1.7,39.4-9.6,53.7-24.1,13.2-13.4,21.8-31.7,22-50.6.2-17.9-8.4-39.8-28.4-42.3-7.9-1-16.9,1.4-22.1,7.8-3.4,4.1-4.8,9.1-5.1,14.4-.3,5.4,0,11.3,1.5,16.4,3,9.5,11.1,15,20.3,17.8s19.8,3.7,29.6,4c21.2.8,42.6-2.2,62.7-9,19.8-6.6,39.3-16.6,54.8-30.7,14.8-13.6,23.9-31.6,27.3-51.4s2-39.8-.5-59.6c-.6-5.1-1.3-10.1-2.1-15.2-.3-2.2-3.2-3.5-5.1-2.9-2.4.7-3.2,2.9-2.9,5.1,5,34.2,10.1,73.9-10.4,104.3-10.5,15.5-27,26.3-43.6,34.4-17.2,8.3-36,13.7-55,15.7-9.5,1-19.2,1.3-28.7.7-8.7-.5-17.8-1.3-26.1-4.3-3.3-1.2-6.4-3-8.8-5.5-2.8-3-4-7-4.4-11.1-.7-7.9-.6-16.9,6.9-20.9,5.4-2.9,12.7-2.6,18.1.7,6.8,4.2,10.6,11.8,12.4,19.3,3.8,16-.9,33.1-9.8,46.5-9.6,14.5-24.3,24.6-41,29.3-17.9,5-37.1,3.8-54.6-2.1-2.8-.9-6.9-2-7.5-5.3-.4-2.2-3.1-3.5-5.1-2.9-2.4.6-3.3,2.9-2.9,5.1h0Z"/>
  <g>
    <path class="st0" d="M758.2,547.2h2.7v5.9c0,1.9-.3,3.8-.8,5.7s-1.3,3.6-2.2,5.2c-1,1.7-2,3.1-3.3,4.3-1.3,1.3-2.6,2.2-4,3l-1.9-2.7c1.3-.6,2.5-1.5,3.7-2.6s2.2-2.3,3.1-3.8,1.6-2.9,2.1-4.5c.5-1.6.7-3.2.7-4.7v-5.9h0ZM749.8,545.8h20.2v2.8h-20.2v-2.8ZM758.9,547.2h2.7v5.9c0,1.5.2,3,.7,4.5s1.2,2.9,2.1,4.2,1.9,2.5,3.1,3.5c1.2,1,2.4,1.8,3.8,2.4l-1.8,2.7c-1.5-.7-2.8-1.6-4.1-2.8s-2.4-2.5-3.3-4.1c-1-1.5-1.7-3.2-2.2-5-.5-1.8-.8-3.6-.8-5.5v-5.9h0ZM775,542h3.3v36.3h-3.3v-36.3Z"/>
    <path class="st0" d="M785.5,557.3h32.9v2.7h-32.9v-2.7ZM789.6,565h24.7v12.9h-24.7v-12.9ZM789.7,544h23.3v2.7h-23.3v-2.7ZM811,567.6h-18.2v7.5h18.2v-7.5ZM810.9,544h3.3v2.7c0,1.5,0,3.2-.2,5-.1,1.8-.5,4-1,6.6l-3.3-.2c.6-2.5.9-4.6,1-6.4.1-1.8.2-3.5.2-5v-2.7Z"/>
    <path class="st0" d="M833.7,571h32.9v2.8h-32.9v-2.8ZM836.6,545.5h26.9v2.7h-26.9v-2.7ZM836.7,560.1h26.8v2.7h-26.8v-2.7ZM842.2,547.7h3.3v12.9h-3.3v-12.9ZM848.4,561.6h3.3v10.6h-3.3v-10.6ZM854.5,547.7h3.3v12.9h-3.3v-12.9Z"/>
    <path class="st0" d="M870.6,571.1h32.9v2.8h-32.9v-2.8ZM874.6,544.7h24.8v11h-21.4v7.3h-3.3v-9.9h21.4v-5.6h-21.5v-2.7h0ZM874.7,561.6h25.5v2.7h-25.5v-2.7ZM885.3,563.3h3.3v8.9h-3.3v-8.9Z"/>
    <path class="st0" d="M907.5,570.3h32.8v2.8h-32.8v-2.8ZM911.1,545.9h23.3v2.7h-23.3v-2.7ZM932.6,545.9h3.3v3.7c0,1.5,0,3.2,0,4.9,0,1.7-.2,3.6-.3,5.7-.2,2.1-.5,4.4-1,7.1l-3.4-.4c.5-2.5.8-4.7,1-6.8.2-2.1.3-4,.4-5.7s0-3.3,0-4.8v-3.7h0Z"/>
    <path class="st0" d="M952.5,545.1c1.6,0,3,.5,4.1,1.5,1.2,1,2.1,2.5,2.7,4.4.6,1.9,1,4.1,1,6.7s-.3,4.8-1,6.7c-.6,1.9-1.5,3.4-2.7,4.4-1.2,1-2.5,1.5-4.1,1.5s-2.9-.5-4.1-1.5-2.1-2.5-2.7-4.4-1-4.2-1-6.7.3-4.8,1-6.7,1.5-3.4,2.7-4.4c1.2-1,2.5-1.5,4-1.5ZM952.5,548.2c-.9,0-1.8.4-2.5,1.2-.7.8-1.2,1.9-1.6,3.3-.4,1.4-.6,3.1-.6,5s.2,3.6.6,5.1.9,2.5,1.6,3.3c.7.8,1.5,1.2,2.5,1.2s1.8-.4,2.5-1.2c.7-.8,1.2-1.9,1.6-3.3s.6-3.1.6-5.1-.2-3.6-.6-5c-.4-1.4-.9-2.5-1.6-3.3-.7-.8-1.5-1.2-2.5-1.2ZM959.1,556.2h6.8v2.7h-6.8v-2.7ZM964.8,542.8h3.2v33.7h-3.2v-33.7ZM972,542h3.2v36.3h-3.2v-36.3Z"/>
    <path class="st0" d="M1007.8,545.9h3.2c0,3.5-.6,6.8-1.7,9.9s-2.9,6-5.3,8.7c-2.4,2.7-5.6,5-9.5,6.9l-1.8-2.6c3.4-1.7,6.2-3.7,8.4-5.9,2.2-2.3,3.9-4.8,5-7.5,1.1-2.8,1.7-5.8,1.7-9v-.5ZM994.4,545.9h15.1v2.8h-15.1v-2.8ZM1017.1,542h3.3v36.3h-3.3v-36.3ZM1019.5,556.8h6.7v2.8h-6.7v-2.8h0Z"/>
    <path class="st0" d="M1039.7,543.8c1.8,0,3.5.4,4.9,1.1,1.4.7,2.5,1.7,3.3,3,.8,1.3,1.2,2.7,1.2,4.4s-.4,3.1-1.2,4.3c-.8,1.3-1.9,2.2-3.3,3-1.4.7-3.1,1-4.9,1s-3.4-.3-4.9-1-2.6-1.7-3.4-3-1.2-2.7-1.2-4.3.4-3.1,1.2-4.4c.8-1.3,1.9-2.2,3.4-3s3.1-1.1,4.9-1.1ZM1039.7,546.6c-1.2,0-2.3.2-3.2.7-.9.5-1.7,1.1-2.2,2-.5.8-.8,1.8-.8,2.9s.3,2,.8,2.9c.5.8,1.3,1.5,2.2,2s2,.7,3.2.7,2.3-.2,3.2-.7,1.7-1.1,2.2-2,.8-1.8.8-2.9-.3-2.1-.8-2.9-1.3-1.5-2.2-2-2-.7-3.2-.7ZM1035.8,563.3h3.2v4.4h16.8v-4.4h3.3v14.5h-23.3v-14.5h0ZM1039.1,570.3v4.8h16.8v-4.8h-16.8ZM1055.8,542h3.3v19.5h-3.3v-19.5Z"/>
    <path class="st0" d="M1066.1,547.8h21.4v2.7h-21.4v-2.7ZM1077,553.5c1.7,0,3.2.4,4.6,1.1,1.3.7,2.4,1.7,3.1,3s1.1,2.7,1.1,4.3-.4,3.1-1.1,4.3-1.8,2.2-3.1,3-2.8,1.1-4.6,1.1-3.2-.3-4.6-1.1-2.4-1.7-3.2-3-1.2-2.7-1.2-4.3.4-3.1,1.2-4.3c.8-1.2,1.8-2.2,3.2-3,1.3-.7,2.8-1.1,4.6-1.1ZM1077,556.3c-1.1,0-2.1.2-2.9.7-.9.5-1.5,1.1-2,2s-.7,1.8-.7,2.9.2,2.1.7,2.9,1.2,1.5,2,2,1.8.7,2.9.7,2.1-.2,2.9-.7c.9-.5,1.5-1.1,2-2,.5-.8.7-1.8.7-2.9s-.2-2.1-.7-2.9c-.5-.8-1.2-1.5-2-2-.9-.5-1.8-.7-2.9-.7ZM1075.3,542.5h3.3v6.6h-3.3v-6.6ZM1090.9,542h3.3v36.3h-3.3v-36.3ZM1093.4,557h6.7v2.8h-6.7v-2.8Z"/>
    <path class="st0" d="M1104.9,545.2h16.5v17h-16.5v-17ZM1118.2,547.9h-10v11.6h10v-11.6ZM1109.8,566.2h3.3v9.9h-3.3v-9.9ZM1109.8,574.8h24.2v2.7h-24.2v-2.7ZM1120.6,548.4h10.1v2.8h-10.1v-2.8ZM1120.6,556.2h10.2v2.7h-10.2v-2.7ZM1129.8,542.1h3.3v26.5h-3.3v-26.5Z"/>
    <path class="st0" d="M1151.4,570.9h32.9v2.8h-32.9v-2.8ZM1165.9,544.4h2.9v2.8c0,1.5-.3,3-.8,4.3-.6,1.3-1.3,2.6-2.3,3.8-.9,1.2-2.1,2.2-3.3,3.1s-2.6,1.7-4.1,2.3c-1.4.6-2.9,1.1-4.4,1.4l-1.4-2.8c1.3-.2,2.6-.6,3.8-1.1,1.3-.5,2.5-1.2,3.6-1.9,1.1-.8,2.1-1.6,3-2.6s1.6-2,2.1-3c.5-1.1.8-2.2.8-3.4v-2.8h0ZM1160.3,562.8h3.3v9.7h-3.3v-9.7ZM1166.5,544.4h2.9v2.8c0,1.2.2,2.3.8,3.4s1.2,2.1,2.1,3.1c.9,1,1.9,1.8,3.1,2.6s2.4,1.4,3.7,1.9c1.3.5,2.6.9,3.8,1.1l-1.4,2.8c-1.5-.3-2.9-.8-4.4-1.4s-2.8-1.4-4.1-2.3c-1.3-.9-2.4-1.9-3.3-3.1s-1.7-2.4-2.3-3.8-.8-2.8-.8-4.3v-2.8h0ZM1172,562.8h3.3v9.7h-3.3v-9.7Z"/>
    <path class="st0" d="M1189.3,561.7l-.4-2.8c2.1,0,4.4,0,6.9,0s5.1-.2,7.7-.3c2.6-.2,5.2-.4,7.6-.7l.2,2.5c-2.5.4-5,.7-7.6.9-2.6.2-5.2.3-7.7.4-2.5,0-4.8,0-6.8,0ZM1189.9,545.2h19.5v2.7h-19.5v-2.7ZM1193.4,547.1h3.2v13.1h-3.2v-13.1ZM1206,565.1c3.8,0,6.8.6,8.9,1.7,2.2,1.1,3.2,2.8,3.2,4.8s-1.1,3.7-3.2,4.9-5.2,1.8-8.9,1.8-6.7-.6-8.9-1.8c-2.2-1.2-3.2-2.8-3.2-4.9s1.1-3.7,3.2-4.8c2.2-1.1,5.1-1.7,8.9-1.7ZM1206.1,567.7c-1.8,0-3.4.2-4.8.5s-2.4.8-3.1,1.3c-.7.6-1.1,1.3-1.1,2.1s.3,1.6,1.1,2.2c.7.6,1.7,1,3.1,1.4s2.9.5,4.8.5,3.4-.2,4.7-.5,2.3-.8,3.1-1.4c.7-.6,1.1-1.3,1.1-2.2s-.3-1.5-1.1-2.1c-.7-.6-1.7-1-3.1-1.3s-2.9-.5-4.7-.5ZM1202.6,547.1h3.2v13.1h-3.2v-13.1ZM1214.7,542.1h3.3v22.2h-3.3v-22.2Z"/>
    <path class="st0" d="M1225.2,557.8h32.8v2.7h-32.8v-2.7ZM1229.1,563.5h24.6v8.2h-21.3v4.4h-3.2v-6.9h21.3v-3.2h-21.3v-2.6h0ZM1229.2,575.3h25.6v2.6h-25.6v-2.6ZM1229.4,543.2h24.3v11.1h-24.3v-11.1ZM1250.4,545.9h-17.7v5.8h17.7v-5.8ZM1239.8,553.2h3.3v5.5h-3.3v-5.5Z"/>
    <path class="st0" d="M1273.3,560h32.8v2.8h-32.8v-2.8ZM1277.4,544.4h22.7v2.7h-22.7v-2.7ZM1287.9,561.8h3.3v16.6h-3.3v-16.6ZM1298.5,544.4h3.3v3.2c0,1.3,0,2.6,0,4,0,1.4-.2,2.9-.3,4.6-.2,1.7-.5,3.5-1,5.6l-3.3-.4c.7-2.9,1.1-5.5,1.2-7.7.1-2.2.2-4.2.2-6v-3.2h0Z"/>
    <path class="st0" d="M1311.5,546.2h13.8v22.3h-13.8v-22.3ZM1322.2,548.9h-7.6v17h7.6v-17ZM1329.8,542.8h3.2v33.7h-3.2v-33.7ZM1332.1,556.4h7v2.8h-7v-2.8ZM1337.8,542h3.2v36.3h-3.2v-36.3Z"/>
    <path class="st0" d="M1367.9,545.2h2.8v6.5c0,2.1-.3,4.1-.8,6.1-.5,2-1.3,3.8-2.2,5.5s-2.1,3.2-3.3,4.5c-1.3,1.3-2.7,2.3-4.2,3.1l-2.1-2.8c1.4-.6,2.6-1.5,3.8-2.7s2.2-2.5,3.1-3.9c.9-1.5,1.6-3,2.1-4.7s.8-3.4.8-5.1v-6.5h0ZM1368.4,545.2h2.8v6.5c0,1.7.2,3.3.7,4.9s1.2,3.1,2.1,4.5,1.9,2.7,3.1,3.8c1.2,1.1,2.4,1.9,3.8,2.5l-2,2.7c-1.5-.7-2.8-1.7-4.1-2.9s-2.4-2.7-3.3-4.3c-.9-1.6-1.7-3.4-2.2-5.3-.5-1.9-.8-3.8-.8-5.9v-6.5h0ZM1384.7,542h3.3v36.3h-3.3v-36.3Z"/>
    <path class="st0" d="M1415.3,545.2h2.7v6.5c0,2-.2,4-.7,5.9-.5,1.9-1.2,3.7-2.1,5.4s-2,3.2-3.2,4.5-2.6,2.3-4,3.1l-2.1-2.7c1.3-.7,2.6-1.6,3.7-2.7s2.1-2.4,3-3.9,1.5-3,2-4.7c.5-1.7.7-3.3.7-5v-6.5h0ZM1415.9,545.2h2.7v6.5c0,1.6.2,3.2.7,4.8.5,1.6,1.1,3.1,2,4.5s1.8,2.6,2.9,3.7,2.3,2,3.6,2.6l-2.1,2.7c-1.4-.7-2.7-1.7-3.9-3s-2.2-2.7-3.1-4.3-1.6-3.4-2.1-5.2-.7-3.8-.7-5.7v-6.5h0ZM1431,542h3.3v36.3h-3.3v-36.3ZM1433.6,556.7h6.7v2.8h-6.7v-2.8Z"/>
    <path class="st0" d="M1443.4,561.1h32.8v2.7h-32.8v-2.7ZM1459.7,543.3c2.6,0,4.8.3,6.8.9s3.4,1.4,4.4,2.5c1,1.1,1.6,2.4,1.6,3.9s-.5,2.8-1.6,3.9c-1,1.1-2.5,1.9-4.4,2.5-1.9.6-4.2.9-6.8.9s-4.8-.3-6.8-.9-3.4-1.4-4.4-2.5-1.6-2.4-1.6-3.9.5-2.8,1.6-3.9,2.5-1.9,4.4-2.5c1.9-.6,4.2-.9,6.8-.9ZM1447.6,567h3.3v8.6h-3.3v-8.6ZM1447.6,574.8h24.9v2.7h-24.9v-2.7ZM1459.7,546c-1.9,0-3.5.2-4.9.5s-2.5.9-3.3,1.6-1.2,1.5-1.2,2.4.4,1.7,1.2,2.4,1.9,1.2,3.3,1.6,3,.5,4.9.5,3.6-.2,5-.5,2.5-.9,3.2-1.6,1.1-1.5,1.1-2.4-.4-1.7-1.1-2.4-1.8-1.2-3.2-1.6-3.1-.5-5-.5Z"/>
    <path class="st0" d="M1480.3,559.6h32.8v2.7h-32.8v-2.7ZM1483.3,543.2h26.6v2.7h-26.6v-2.7ZM1483.4,553.5h26.3v2.7h-26.3v-2.7ZM1484.3,566.5h24.8v11.3h-24.8v-11.3ZM1505.8,569.1h-18.2v6h18.2v-6ZM1488.8,544.4h3.3v10.9h-3.3v-10.9ZM1495,561.3h3.3v6.3h-3.3v-6.3ZM1501.1,544.4h3.3v10.9h-3.3v-10.9Z"/>
    <path class="st0" d="M1528.4,559.3h32.8v2.7h-32.8v-2.7ZM1542.7,545.3h2.9v1.1c0,1.2-.2,2.3-.7,3.3-.5,1-1.2,1.9-2.1,2.8s-1.9,1.6-3.1,2.2-2.5,1.2-3.9,1.6c-1.4.4-2.8.7-4.4.9l-1.2-2.7c1.3-.1,2.6-.4,3.8-.7,1.2-.3,2.3-.8,3.4-1.3s2-1.1,2.8-1.7c.8-.6,1.4-1.3,1.8-2s.7-1.5.7-2.3v-1.1h0ZM1531.4,543.9h26.8v2.7h-26.8v-2.7ZM1544.8,565.1c3.9,0,6.9.6,9.1,1.7,2.2,1.2,3.3,2.8,3.3,4.8s-1.1,3.7-3.3,4.8c-2.2,1.1-5.2,1.7-9.1,1.7s-6.9-.6-9.1-1.7-3.3-2.8-3.3-4.8,1.1-3.7,3.3-4.8c2.2-1.2,5.2-1.7,9.1-1.7ZM1544.8,567.8c-1.9,0-3.5.2-4.9.4s-2.4.7-3.1,1.3-1.1,1.3-1.1,2.2.4,1.5,1.1,2.1c.7.6,1.8,1,3.1,1.3,1.3.3,3,.5,4.9.5s3.5-.2,4.9-.5c1.3-.3,2.4-.8,3.1-1.3s1.1-1.3,1.1-2.1-.4-1.6-1.1-2.2c-.7-.6-1.8-1-3.1-1.3-1.3-.3-3-.4-4.9-.4ZM1544,545.3h2.9v1.1c0,.8.2,1.6.7,2.3.4.7,1.1,1.4,1.8,2.1.8.6,1.7,1.2,2.8,1.7s2.2.9,3.4,1.2c1.2.3,2.5.6,3.8.7l-1.2,2.7c-1.5-.2-3-.5-4.4-.9s-2.7-.9-3.9-1.6-2.2-1.4-3.1-2.2-1.6-1.8-2.1-2.8c-.5-1-.7-2.1-.7-3.2v-1.1h0Z"/>
    <path class="st0" d="M1574.5,545.7h2.7v2.9c0,2.2-.4,4.3-1.3,6.2s-2,3.6-3.6,5.1-3.3,2.6-5.3,3.3l-1.7-2.7c1.4-.5,2.6-1.1,3.7-2,1.1-.8,2.1-1.8,2.9-2.8.8-1.1,1.4-2.2,1.9-3.5.4-1.2.6-2.5.6-3.8v-2.9h0ZM1566.5,544.7h19.4v2.7h-19.4v-2.7ZM1583.2,564.8c2.5,0,4.7.3,6.5.8,1.8.5,3.2,1.3,4.2,2.3,1,1,1.4,2.2,1.4,3.7,0,2.1-1.1,3.8-3.2,5-2.2,1.2-5.1,1.8-8.8,1.8s-6.7-.6-8.8-1.8c-2.2-1.2-3.2-2.8-3.2-5s.5-2.7,1.5-3.7c1-1,2.4-1.8,4.2-2.3,1.8-.5,3.9-.8,6.4-.8ZM1583.2,567.4c-1.8,0-3.4.2-4.7.5-1.3.3-2.3.8-3,1.4s-1.1,1.4-1.1,2.3.3,1.6,1.1,2.2,1.7,1.1,3,1.4c1.3.3,2.9.5,4.7.5s3.4-.2,4.7-.5c1.3-.3,2.3-.8,3-1.4.7-.6,1.1-1.3,1.1-2.2s-.4-1.7-1.1-2.3c-.7-.6-1.7-1.1-3-1.4-1.3-.3-2.9-.5-4.7-.5ZM1575.2,545.7h2.7v2.9c0,1.5.4,3.1,1.1,4.5.7,1.5,1.8,2.8,3.1,3.9s2.9,2,4.6,2.7l-1.7,2.7c-2-.7-3.7-1.8-5.2-3.2-1.5-1.4-2.6-3-3.4-4.8s-1.2-3.7-1.2-5.8v-2.9h0ZM1584.7,551.5h8.1v2.8h-8.1v-2.8ZM1591.8,542h3.3v21.6h-3.3v-21.6Z"/>
  </g>
  <image width="1254" height="1254" transform="translate(182.6 116) scale(.4)" xlink:href="../../character image/PNG/choro-gi5.png"/>
</svg>