<?xml version="1.0" encoding="UTF-8"?>
<svg id="Layer_2" data-name="Layer 2" xmlns="http://www.w3.org/2000/svg" viewBox="0 0 1825.26 642.18">
  <defs>
    <style>
      .cls-1 {
        fill: #fff;
      }

      .cls-2 {
        fill: #24331c;
      }
    </style>
  </defs>
  <g id="Layer_2-2" data-name="Layer 2">
    <g>
      <rect class="cls-2" x="0" y="0" width="1825.26" height="642.18" rx="321.09" ry="321.09"/>
      <g>
        <path class="cls-1" d="M189.68,162.95l3.23-3.64h13.15c8.76,0,13.75.61,14.97,1.82,2.69,3.23,4.31,8.49,4.85,15.77.27,5.93.88,9.84,1.82,11.73.94,1.75,1.42,4.11,1.42,7.08,0,4.04-.81,7.21-2.43,9.51-4.45,6.74-10.72,10.11-18.81,10.11-6.74,0-12-2.49-15.77-7.48-2.02-2.7-3.03-6.27-3.03-10.72-.27-4.58-.88-7.35-1.82-8.29-.68-.67-1.21-.94-1.62-.81-.4.14-1.15.95-2.22,2.43-1.49,2.02-2.22,5.05-2.22,9.1,0,7.82-2.7,13.82-8.09,18-1.62,1.21-3.07,1.99-4.35,2.33-1.28.34-3.68.51-7.18.51-6.61-.13-11.46-1.52-14.56-4.15-3.1-2.63-4.85-6.84-5.26-12.64v-2.02c0-3.23.67-5.86,2.02-7.89,1.62-2.56,2.43-6.2,2.43-10.92.13-7.95,2.9-14.16,8.29-18.6,2.7-2.15,5.8-3.23,9.3-3.23,2.96,0,6.37.88,10.21,2.63,3.84,1.75,6.57,3.71,8.19,5.86,1.21,1.49,2.22,1.82,3.03,1.01s1.21-1.62,1.21-2.43c0-.94,1.08-2.63,3.24-5.05Z"/>
        <path class="cls-1" d="M296.86,164.36c2.7-.54,4.18-.81,4.45-.81,1.21,0,3.5.61,6.88,1.82,2.83.95,4.92,1.42,6.27,1.42.54,0,.94-.07,1.21-.2,2.02-.67,3.97-1.01,5.86-1.01,6.33,0,10.99,1.69,13.95,5.05,1.48,1.49,2.9,2.22,4.25,2.22,3.37.14,6.88,1.72,10.52,4.75,3.64,3.03,5.8,6.3,6.47,9.81.54,2.29,1.89,3.91,4.04,4.85,3.64,1.49,6.6,4.79,8.9,9.91,1.21,2.83,1.82,9.3,1.82,19.41,0,8.49-.47,14.23-1.42,17.19-.95,2.97-3.17,5.53-6.67,7.68-1.75.95-2.93,1.89-3.54,2.83-.61.95-1.18,2.56-1.72,4.85-1.35,6.34-4.85,10.72-10.52,13.14-1.89.68-2.83,1.69-2.83,3.03,0,.95.07,1.75.2,2.43.54,2.7,1.62,5.12,3.23,7.28,1.35,1.62,2.22,3.07,2.63,4.35.4,1.28.87,3.74,1.42,7.38.4,2.7,2.02,5.26,4.85,7.68,4.85,4.04,7.28,9.03,7.28,14.97,0,3.1-.68,6.07-2.02,8.9-3.1,7.01-8.36,10.52-15.77,10.52-4.85,0-9.17-1.72-12.94-5.16-3.78-3.44-5.73-7.99-5.86-13.65,0-2.56-.34-3.84-1.01-3.84-1.08,0-3.34-1.78-6.77-5.36-3.44-3.57-5.56-6.37-6.37-8.39-1.35-3.1-2.76-5.53-4.25-7.28-2.83-3.5-4.25-7.35-4.25-11.53,0-1.35.2-2.76.61-4.25.54-1.62.81-2.9.81-3.84,0-.67-.2-1.01-.61-1.01l-2.02.81c-1.35.68-3.98,1.01-7.89,1.01h-5.66l.4,5.66c0,.4.03.91.1,1.52.07.61.1,1.05.1,1.31,0,2.7-.68,5.66-2.02,8.9-1.35,3.1-2.02,5.26-2.02,6.47,0,.54.27,1.89.81,4.04.67,3.1,1.01,5.46,1.01,7.08,0,2.29-.61,4.85-1.82,7.68-1.49,3.37-3.81,5.97-6.98,7.79-3.17,1.82-6.64,2.73-10.41,2.73-6.07,0-11.12-2.22-15.17-6.67-3.64-4.04-5.46-8.36-5.46-12.94,0-3.1.94-6.33,2.83-9.71,1.35-2.56,2.02-4.45,2.02-5.66,0-.4-.14-1.42-.4-3.03-.68-2.96-1.01-5.53-1.01-7.68,0-2.83.4-4.99,1.21-6.47.4-.81.61-1.68.61-2.63,0-1.35-.27-3.1-.81-5.26-.54-1.75-.81-3.44-.81-5.06,0-1.48.4-3.84,1.21-7.08.81-3.23,1.21-6.27,1.21-9.1,0-1.08-.07-1.89-.2-2.43-.14-.67-.2-1.55-.2-2.63,0-2.15.4-4.11,1.21-5.86.81-1.89,1.21-3.24,1.21-4.04,0-.67-.34-1.68-1.01-3.03-.95-1.89-1.42-5.05-1.42-9.5,0-3.37.33-5.26,1.01-5.66.67-.4.81-1.95.4-4.65-.4-2.02-.74-5.53-1.01-10.52v-2.22c0-3.1.94-5.93,2.83-8.49,2.15-2.7,3.91-4.38,5.26-5.06,1.48-.67,4.62-1.68,9.4-3.03,4.78-1.35,7.85-2.02,9.2-2.02,1.21,0,2.83-1.14,4.85-3.44,2.96-3.1,6.4-5.19,10.31-6.27ZM319.3,204.4c-1.21,0-3.34-.51-6.37-1.52-3.03-1.01-5.02-1.52-5.97-1.52-1.89.27-3.88.91-5.97,1.92-2.09,1.01-3.54,2.12-4.35,3.34-1.08,1.49-2.36,2.83-3.84,4.04-1.08.95-1.82,4.38-2.22,10.31,0,.68-.03,1.62-.1,2.83-.07,1.21-.1,2.02-.1,2.43,0,3.64.57,5.97,1.72,6.98,1.14,1.01,3.67,1.65,7.58,1.92,3.24.27,5.32.4,6.27.4,1.08,0,1.68-.07,1.82-.2.67-.4,3.3-1.01,7.89-1.82,4.58-.81,7.82-1.21,9.71-1.21h1.01c.13,0,.27.03.4.1.13.07.27.1.4.1,2.83,0,5.39-3.03,7.68-9.1,1.08-2.83,1.62-4.99,1.62-6.47,0-2.69-1.62-4.65-4.85-5.86-6.07-2.15-9.1-4.04-9.1-5.66,0-.67-1.08-1.01-3.23-1.01Z"/>
        <path class="cls-1" d="M422.44,170.83c1.35-.67,3.1-1.01,5.26-1.01,4.85,0,8.7.94,11.53,2.83,1.62,1.21,2.96,1.82,4.05,1.82.67,0,1.62-.2,2.83-.61,1.21-.4,2.49-.61,3.84-.61l4.04.61c1.21.4,3.44.61,6.67.61,2.02,0,3.5-.07,4.45-.2,1.08-.13,2.56-.2,4.45-.2,6.34,0,11.33,1.55,14.97,4.65,4.18,3.51,6.27,8.02,6.27,13.55s-2.16,10.11-6.47,13.35c-3.78,2.97-8.83,4.45-15.17,4.45-1.75,0-3.37-.2-4.85-.61-1.62-.4-2.83-.61-3.64-.61-.95,0-2.63.54-5.05,1.62-2.02,1.08-4.04,1.62-6.07,1.62-1.35,0-2.43-.07-3.24-.2-1.08-.13-4.85-.4-11.33-.81l-6.27-.2.2,10.92c.13,4.04.2,7.82.2,11.33l.61-.2c.27-.27.67-.61,1.21-1.01.54-.4,1.08-.87,1.62-1.42,2.43-2.02,5.26-3.5,8.49-4.45,1.75-.54,3.37-.81,4.85-.81,1.35,0,3.24.4,5.66,1.21,2.43.81,4.18,1.21,5.26,1.21s2.43-.4,4.04-1.21c2.56-1.08,5.73-1.62,9.51-1.62s6.54.54,8.7,1.62c2.96,1.49,5.36,3.71,7.18,6.67,1.82,2.97,2.73,6.07,2.73,9.3,0,.95-.14,2.09-.4,3.44-.95,3.1-2.02,5.46-3.23,7.08-1.21,1.62-3.51,3.51-6.88,5.66-2.83,1.89-4.99,3.07-6.47,3.54-1.49.47-3.71.78-6.67.91-4.45.14-7.82.95-10.11,2.43-2.56,1.49-5.73,2.22-9.51,2.22-2.56,0-4.72-.4-6.47-1.21-.4-.27-1.01-.4-1.82-.4-1.21,0-3.03.88-5.46,2.63-3.51,2.7-5.26,5.59-5.26,8.69,0,1.89.34,3.71,1.01,5.46.4.95.87,2.9,1.42,5.86,0,.81.13,1.35.4,1.62.27.27.67.27,1.21,0,.54-.27,1.08-.74,1.62-1.42,1.08-1.21,3.07-2.46,5.97-3.74,2.9-1.28,5.29-1.92,7.18-1.92s4.05.4,6.47,1.21c.67.27,1.55.4,2.63.4,1.62,0,3.37-.33,5.26-1.01,2.29-.81,4.58-1.21,6.87-1.21,4.45,0,8.43,1.28,11.93,3.84,3.5,2.56,5.79,6,6.87,10.31.4,1.35.61,2.7.61,4.04,0,4.99-1.99,9.4-5.97,13.25-3.98,3.84-8.67,5.76-14.05,5.76-2.97,0-5.53.74-7.69,2.22-2.56,1.89-6.07,2.83-10.52,2.83-2.16,0-3.84-.27-5.05-.81-.95-.4-1.75-.61-2.43-.61-1.08,0-3.31.87-6.67,2.63-3.78,2.02-7.35,3.03-10.72,3.03-2.29,0-4.65-.54-7.08-1.62-2.56-1.21-4.82-3.07-6.77-5.56-1.96-2.49-3.14-4.88-3.54-7.18-.54-2.83-2.22-5.46-5.05-7.89-5.8-4.72-8.7-10.85-8.7-18.4,0-1.21.07-2.09.2-2.63.4-2.96.61-4.99.61-6.07,0-.94-.4-3.64-1.21-8.09-.4-2.69-.61-4.58-.61-5.66,0-1.62.47-3.57,1.42-5.86,1.21-2.56,1.82-5.06,1.82-7.48,0-.27-.03-.67-.1-1.21-.07-.54-.1-1.01-.1-1.42v-2.22c0-2.7.2-4.65.61-5.87.27-.54.4-1.28.4-2.22,0-1.08-.4-2.36-1.21-3.84-1.35-2.29-2.02-5.19-2.02-8.7,0-3.1.54-5.73,1.62-7.89.81-1.48,1.21-2.63,1.21-3.44,0-.54-.27-1.62-.81-3.24-.4-1.35-.61-2.69-.61-4.04,0-2.69,1.21-6.74,3.64-12.13,3.5-7.55,7.75-11.86,12.74-12.94,1.89-.4,3.23-1.55,4.04-3.44.67-1.48,1.89-3.17,3.64-5.06,1.75-1.89,3.5-3.3,5.26-4.25Z"/>
        <path class="cls-1" d="M610.71,165.98c2.83-1.34,5.73-2.02,8.7-2.02,5.12,0,9.4,2.09,12.84,6.27,3.44,4.18,5.43,9.78,5.97,16.78.27,4.45,1.08,7.82,2.43,10.11,1.75,3.37,2.63,6.61,2.63,9.71,0,1.49-.2,2.97-.61,4.45-.81,2.7-.88,4.38-.2,5.05.4.27,1.14,2.16,2.22,5.66.54,2.43.81,3.84.81,4.25,0,1.49-.4,3.31-1.21,5.46-.68,1.89-1.01,3.57-1.01,5.06,0,1.21.13,2.09.4,2.63.67,1.48,1.01,4.18,1.01,8.09s-.34,7.28-1.01,9.71c-.54,2.43-.81,3.84-.81,4.25,0,1.21.4,2.76,1.21,4.65.94,2.43,1.42,4.92,1.42,7.48,0,2.43-.47,4.58-1.42,6.47-.81,1.49-1.21,2.63-1.21,3.44,0,.54.47,2.56,1.42,6.07.81,2.83,1.21,4.85,1.21,6.07,0,1.08-.2,2.43-.61,4.04-1.21,4.18-3.81,7.82-7.79,10.92-3.98,3.1-7.99,4.72-12.03,4.85-3.51,0-6.91-1.14-10.21-3.44-3.31-2.29-5.56-5.12-6.77-8.49-.68-2.02-1.01-4.25-1.01-6.67,0-4.04.67-7.41,2.02-10.11.81-2.02,1.21-3.37,1.21-4.04,0-.81-.34-1.75-1.01-2.83-.94-1.62-1.42-3.84-1.42-6.67v-1.42c.27-5.39.4-8.29.4-8.7,0-2.29-.34-4.78-1.01-7.48-.27-.67-.4-2.22-.4-4.65,0-4.45.47-8.83,1.42-13.15.27-.94-.14-1.42-1.21-1.42s-1.82,1.75-2.22,5.26c-.27,2.56-1.11,5.46-2.53,8.7-1.42,3.24-2.66,5.19-3.74,5.87-.68.4-1.01,1.89-1.01,4.45,0,5.39-2.19,10.28-6.57,14.66-4.38,4.38-9.2,6.57-14.46,6.57-4.18,0-8.09-1.48-11.73-4.45-3.64-2.96-5.8-6.47-6.47-10.52-.68-2.56-1.69-4.25-3.03-5.05-1.89-.94-3.44-2.02-4.65-3.24-1.08-1.08-1.96-1.62-2.63-1.62-.27,0-.4.14-.4.4,0,.54.54,1.75,1.62,3.64,1.48,2.56,2.22,5.66,2.22,9.3,0,2.83-.54,5.33-1.62,7.48-.68,1.62-1.01,2.7-1.01,3.24,0,.95.54,2.5,1.62,4.65,1.21,2.56,1.82,5.19,1.82,7.89,0,4.85-1.86,9.14-5.56,12.84-3.71,3.71-8.12,5.56-13.25,5.56h-1.82c-6.61-.67-11.39-3.84-14.36-9.5-1.08-2.16-1.62-5.26-1.62-9.3,0-2.69.33-5.06,1.01-7.08.81-1.75.61-3.71-.61-5.86-.68-1.48-1.28-4.72-1.82-9.71-.54-4.99-1.21-8.29-2.02-9.91-1.21-2.69-1.82-5.73-1.82-9.1.13-15.91.3-25.18.51-27.81s1.04-5.49,2.53-8.59c1.48-2.96,2.22-5.19,2.22-6.67,0-.4-.27-2.22-.81-5.46-.27-1.21-.4-3.03-.4-5.46,0-10.24,3.64-17.32,10.92-21.23,2.7-1.34,5.39-2.02,8.09-2.02,6.07,0,11.66,3.78,16.78,11.33,2.83,5.12,4.31,8.43,4.45,9.91,0,.27-.03.78-.1,1.52-.07.74-.1,1.31-.1,1.72l-.4,6.67,3.23,1.01c2.15.68,4.65,2.56,7.48,5.66,2.83,3.1,4.65,5.87,5.46,8.29.81,2.43,1.48,3.64,2.02,3.64.67,0,1.21-1.48,1.62-4.45.4-2.29,1.58-5.22,3.54-8.8,1.95-3.57,3.4-5.36,4.35-5.36.67,0,1.28-1.01,1.82-3.03,1.48-5.66,4.51-10.45,9.1-14.36,3.1-2.69,5.06-5.53,5.87-8.49,1.62-5.93,5.66-10.45,12.13-13.55Z"/>
        <path class="cls-1" d="M733.87,173.87c4.18-3.1,8.56-4.65,13.14-4.65,7.01,0,12.27,3.37,15.77,10.11,1.89,3.37,3.5,5.06,4.85,5.06,1.89,0,4.25.78,7.08,2.33,2.83,1.55,4.85,3.2,6.07,4.95,1.62,2.16,2.76,4.52,3.44,7.08.81,2.97,2.56,5.33,5.26,7.08,2.29,1.49,4.28,3.61,5.97,6.37,1.68,2.76,2.53,5.23,2.53,7.38,0,1.62-.4,4.04-1.21,7.28-.4,1.62-.61,2.9-.61,3.84,0,1.35.54,2.83,1.62,4.45,1.62,2.43,2.43,5.59,2.43,9.5,0,3.24-.61,5.8-1.82,7.68-1.21,1.62-1.82,3.98-1.82,7.08,0,.4.03,1.08.1,2.02.07.95.1,1.69.1,2.22v2.83c0,4.18-.47,7.41-1.42,9.71-1.08,2.43-1.62,4.92-1.62,7.48,0,3.78-1.35,7.65-4.04,11.63-2.7,3.98-5.8,6.51-9.3,7.58-2.29.81-3.44,1.75-3.44,2.83,0,1.62-.91,3.54-2.73,5.76-1.82,2.22-3.74,3.88-5.76,4.96-2.56,1.49-5.8,2.22-9.71,2.22s-6.34.68-7.69,2.02c-3.23,3.5-7.35,5.26-12.34,5.26-4.72,0-8.7-1.55-11.93-4.65-1.49-1.35-4.11-2.09-7.89-2.22-4.04-.13-7.79-1.21-11.22-3.24s-6.04-4.72-7.79-8.09c-1.08-1.89-2.83-2.83-5.26-2.83-4.18,0-7.72-1.31-10.62-3.94-2.9-2.63-4.82-6.23-5.76-10.82-.95-4.18-2.16-6.74-3.64-7.68-1.89-1.35-3.44-3.44-4.65-6.27-1.21-2.83-1.82-5.73-1.82-8.7,0-2.15.27-3.84.81-5.05.54-1.35.13-3.17-1.21-5.46-1.89-2.96-2.83-7.75-2.83-14.36,0-4.04.47-6.94,1.42-8.7.81-1.62,1.21-3.37,1.21-5.26,0-1.35-.07-2.43-.2-3.24-.14-.81-.2-1.89-.2-3.23,0-5.12,2.22-9.64,6.67-13.55,3.1-2.56,4.65-5.05,4.65-7.48,0-3.77,1.48-7.08,4.45-9.91,2.96-2.83,6.94-4.72,11.93-5.66,3.64-.81,6.27-2.49,7.89-5.06,3.24-4.99,8.02-7.48,14.36-7.48,3.1,0,6.13.47,9.1,1.42,2.29.68,3.71,1.01,4.25,1.01.81,0,1.95-.54,3.44-1.62ZM730.83,213.71c-2.83-1.21-4.72-1.82-5.66-1.82-.81,0-2.29.54-4.45,1.62-9.3,5.12-13.95,8.9-13.95,11.32,0,1.49-.88,3.98-2.63,7.48-1.49,2.83-2.22,5.33-2.22,7.48,0,1.75.07,3.24.2,4.45.4,4.58,1.34,7.82,2.83,9.71,1.35,1.89,2.02,4.92,2.02,9.1,0,2.97.24,4.99.71,6.07.47,1.08,1.92,2.83,4.35,5.26,2.96,3.1,6.13,5.53,9.5,7.28,2.83,1.21,4.79,2.36,5.87,3.44.81,1.08,3.3,1.62,7.48,1.62,5.8,0,9.84-.81,12.13-2.43,1.89-1.48,3.5-2.43,4.85-2.83,1.35-.54,2.02-1.28,2.02-2.22,0-1.08,1.01-2.76,3.03-5.06,2.15-2.29,3.23-4.65,3.23-7.08,0-2.83.54-5.86,1.62-9.1.67-2.7,1.01-4.58,1.01-5.66,0-1.21-.2-2.43-.61-3.64-.54-1.89-.81-4.11-.81-6.67,0-1.34.07-2.29.2-2.83,0-.4.03-.91.1-1.52.07-.61.1-1.04.1-1.31,0-1.89-.54-4.25-1.62-7.08-1.35-2.69-2.02-5.12-2.02-7.28,0-1.62-1.42-3.57-4.25-5.86-2.16-1.75-3.71-2.63-4.65-2.63-.81,0-1.82.27-3.03.81-2.02.95-4.32,1.42-6.88,1.42-2.83,0-5.66-.67-8.49-2.02Z"/>
        <path class="cls-1" d="M860.46,177.71c.4-.4,1.18-.78,2.33-1.11,1.14-.33,2.46-.64,3.94-.91,1.48-.27,2.43-.47,2.83-.61h.2c1.34,0,3.27.51,5.76,1.52,2.49,1.01,4.41,2.06,5.76,3.14,1.62,1.21,2.76,1.82,3.44,1.82.54,0,1.95-.33,4.25-1.01,2.02-.81,4.11-1.21,6.27-1.21,6.88,0,12,3.1,15.37,9.3,1.35,2.43,3.37,4.18,6.07,5.26,6.07,1.75,10.31,5.12,12.74,10.11.94,1.49,2.96,3.81,6.07,6.98,3.1,3.17,5.19,5.97,6.27,8.39,1.35,2.83,2.02,5.39,2.02,7.68,0,1.62-.07,2.9-.2,3.84-.14.94-.2,2.09-.2,3.44,0,1.89.67,3.91,2.02,6.07,1.48,2.56,2.22,5.73,2.22,9.51,0,3.51-.61,6.14-1.82,7.89-1.08,1.75-1.28,3.51-.61,5.26.67,1.49,1.01,3.64,1.01,6.47,0,6.61-1.96,12-5.86,16.18-2.02,2.02-3.57,4.52-4.65,7.48-.81,2.56-2.9,5.86-6.27,9.91-3.37,4.04-6.07,6.47-8.09,7.28-2.29,1.21-4.11,2.9-5.46,5.05-2.83,4.85-7.75,7.28-14.76,7.28-.27,0-.68-.03-1.21-.1-.54-.07-.95-.1-1.21-.1-.95-.14-2.02-.2-3.24-.2-1.75,0-2.97.4-3.64,1.21-2.56,3.23-7.15,4.85-13.75,4.85-7.55,0-12.94-1.96-16.18-5.86-.81-1.08-2.29-1.62-4.45-1.62-4.45,0-8.49-1.79-12.13-5.36-3.64-3.57-5.46-7.58-5.46-12.03,0-2.56-1.28-5.19-3.84-7.89-1.89-1.89-3.03-3.4-3.44-4.55-.4-1.14-.68-3.67-.81-7.58-.27-5.39-.95-9.64-2.02-12.74-.81-2.43-1.21-4.38-1.21-5.87,0-1.75.13-3.16.4-4.25.4-1.75.61-3.16.61-4.25s-.54-2.56-1.62-4.45c-1.21-1.89-2.02-5.73-2.43-11.53-.4-5.53-1.42-9.57-3.03-12.13-1.62-2.29-2.43-5.19-2.43-8.7,0-5.26,1.55-9.37,4.65-12.34,1.75-1.75,2.63-4.58,2.63-8.49s.74-7.01,2.22-9.3c2.29-3.37,4.85-5.63,7.68-6.77,2.83-1.14,8.22-2.19,16.18-3.13,3.77-.54,6.13-1.14,7.08-1.82ZM877.45,213.71c-.95.4-2.29.61-4.04.61-3.64,0-6.54-.47-8.7-1.42-.14,0-.34-.07-.61-.2-.95,0-1.92.64-2.93,1.92-1.01,1.28-1.52,2.6-1.52,3.94,0,1.49-.34,3.03-1.01,4.65-.27,1.08-.4,1.82-.4,2.22,0,1.08.47,2.36,1.42,3.84,1.89,3.1,2.83,6.81,2.83,11.12,0,1.75-.2,3.24-.61,4.45-.4,1.21-.61,2.16-.61,2.83,0,1.08.47,2.36,1.42,3.84,1.48,2.29,2.22,5.39,2.22,9.3s.81,6.95,2.43,9.51c2.43,3.51,3.64,7.68,3.64,12.54,0,1.21-.07,2.02-.2,2.43-.14.27-.2.68-.2,1.21,0,1.75,2.29,2.9,6.88,3.44.81.14,1.89.2,3.23.2,1.89,0,4.04-.67,6.47-2.02,3.24-1.75,6.07-2.63,8.49-2.63,2.29,0,3.84-1.01,4.65-3.03.81-2.15,1.89-3.77,3.24-4.85,1.34-1.21,2.02-3.44,2.02-6.67,0-3.5.67-6.61,2.02-9.3,1.08-2.43,1.62-4.04,1.62-4.85,0-1.08-.4-2.83-1.21-5.26-.81-3.24-1.21-5.66-1.21-7.28,0-.27.03-.54.1-.81.07-.27.1-.47.1-.61s.03-.33.1-.61c.07-.27.1-.47.1-.61,0-1.08-.44-2.73-1.32-4.95-.88-2.22-1.31-3.74-1.31-4.55,0-1.08-1.49-2.63-4.45-4.65-2.83-1.89-4.72-3.71-5.66-5.46-1.08-1.75-3.44-3.61-7.08-5.56-3.64-1.95-6.54-2.93-8.7-2.93-.54,0-.95.07-1.21.2Z"/>
        <path class="cls-1" d="M998.58,170.83c1.35-.67,3.1-1.01,5.26-1.01,4.85,0,8.7.94,11.53,2.83,1.62,1.21,2.96,1.82,4.05,1.82.67,0,1.62-.2,2.83-.61,1.21-.4,2.49-.61,3.84-.61l4.04.61c1.21.4,3.44.61,6.67.61,2.02,0,3.5-.07,4.45-.2,1.08-.13,2.56-.2,4.45-.2,6.34,0,11.33,1.55,14.97,4.65,4.18,3.51,6.27,8.02,6.27,13.55s-2.16,10.11-6.47,13.35c-3.78,2.97-8.83,4.45-15.17,4.45-1.75,0-3.37-.2-4.85-.61-1.62-.4-2.83-.61-3.64-.61-.95,0-2.63.54-5.05,1.62-2.02,1.08-4.04,1.62-6.07,1.62-1.35,0-2.43-.07-3.24-.2-1.08-.13-4.85-.4-11.33-.81l-6.27-.2.2,10.92c.13,4.04.2,7.82.2,11.33l.61-.2c.27-.27.67-.61,1.21-1.01.54-.4,1.08-.87,1.62-1.42,2.43-2.02,5.26-3.5,8.49-4.45,1.75-.54,3.37-.81,4.85-.81,1.35,0,3.24.4,5.66,1.21,2.43.81,4.18,1.21,5.26,1.21s2.43-.4,4.04-1.21c2.56-1.08,5.73-1.62,9.51-1.62s6.54.54,8.7,1.62c2.96,1.49,5.36,3.71,7.18,6.67,1.82,2.97,2.73,6.07,2.73,9.3,0,.95-.14,2.09-.4,3.44-.95,3.1-2.02,5.46-3.23,7.08-1.21,1.62-3.51,3.51-6.88,5.66-2.83,1.89-4.99,3.07-6.47,3.54-1.49.47-3.71.78-6.67.91-4.45.14-7.82.95-10.11,2.43-2.56,1.49-5.73,2.22-9.51,2.22-2.56,0-4.72-.4-6.47-1.21-.4-.27-1.01-.4-1.82-.4-1.21,0-3.03.88-5.46,2.63-3.51,2.7-5.26,5.59-5.26,8.69,0,1.89.34,3.71,1.01,5.46.4.95.87,2.9,1.42,5.86,0,.81.13,1.35.4,1.62.27.27.67.27,1.21,0,.54-.27,1.08-.74,1.62-1.42,1.08-1.21,3.07-2.46,5.97-3.74,2.9-1.28,5.29-1.92,7.18-1.92s4.05.4,6.47,1.21c.67.27,1.55.4,2.63.4,1.62,0,3.37-.33,5.26-1.01,2.29-.81,4.58-1.21,6.87-1.21,4.45,0,8.43,1.28,11.93,3.84,3.5,2.56,5.79,6,6.87,10.31.4,1.35.61,2.7.61,4.04,0,4.99-1.99,9.4-5.97,13.25-3.98,3.84-8.67,5.76-14.05,5.76-2.97,0-5.53.74-7.69,2.22-2.56,1.89-6.07,2.83-10.52,2.83-2.16,0-3.84-.27-5.05-.81-.95-.4-1.75-.61-2.43-.61-1.08,0-3.31.87-6.67,2.63-3.78,2.02-7.35,3.03-10.72,3.03-2.29,0-4.65-.54-7.08-1.62-2.56-1.21-4.82-3.07-6.77-5.56-1.96-2.49-3.14-4.88-3.54-7.18-.54-2.83-2.22-5.46-5.05-7.89-5.8-4.72-8.7-10.85-8.7-18.4,0-1.21.07-2.09.2-2.63.4-2.96.61-4.99.61-6.07,0-.94-.4-3.64-1.21-8.09-.4-2.69-.61-4.58-.61-5.66,0-1.62.47-3.57,1.42-5.86,1.21-2.56,1.82-5.06,1.82-7.48,0-.27-.03-.67-.1-1.21-.07-.54-.1-1.01-.1-1.42v-2.22c0-2.7.2-4.65.61-5.87.27-.54.4-1.28.4-2.22,0-1.08-.4-2.36-1.21-3.84-1.35-2.29-2.02-5.19-2.02-8.7,0-3.1.54-5.73,1.62-7.89.81-1.48,1.21-2.63,1.21-3.44,0-.54-.27-1.62-.81-3.24-.4-1.35-.61-2.69-.61-4.04,0-2.69,1.21-6.74,3.64-12.13,3.5-7.55,7.75-11.86,12.74-12.94,1.89-.4,3.23-1.55,4.04-3.44.67-1.48,1.89-3.17,3.64-5.06,1.75-1.89,3.5-3.3,5.26-4.25Z"/>
        <path class="cls-1" d="M1105.76,167.8c2.02-.81,4.11-1.21,6.27-1.21,7.01,0,12.13,3.1,15.37,9.3,1.48,2.56,2.22,5.46,2.22,8.7,0,2.97-.68,6.2-2.02,9.71-1.08,2.97-1.62,4.92-1.62,5.86,0,1.08.4,2.7,1.21,4.85.81,2.16,1.21,4.45,1.21,6.88,0,3.64-.81,6.67-2.43,9.1-.68,1.08-1.01,2.09-1.01,3.03,0,.81.2,1.96.61,3.44.27.81.4,2.16.4,4.04,0,4.72-.88,8.16-2.63,10.31-.81,1.08-.61,2.9.61,5.46,1.08,2.43,1.62,4.79,1.62,7.08,0,.27-.03.74-.1,1.42-.07.68-.1,1.21-.1,1.62-.14.68-.2,1.69-.2,3.03,0,2.83.33,5.26,1.01,7.28.94,2.56,1.42,5.06,1.42,7.48v3.44l6.67.4c.94.14,2.15.2,3.64.2,2.43,0,4.31-.34,5.66-1.01,1.75-.94,4.18-1.42,7.28-1.42,3.77,0,6.81.68,9.1,2.02,1.75,1.21,3.1,1.82,4.04,1.82.54,0,2.22-.47,5.05-1.42,2.83-.94,5.12-1.42,6.88-1.42,3.77,0,7.48,1.82,11.12,5.46,4.18,4.18,6.27,9.24,6.27,15.17,0,7.68-3.1,13.21-9.3,16.58-2.16,1.08-5.19,1.62-9.1,1.62-2.43,0-4.65-.33-6.67-1.01-1.08-.4-2.02-.61-2.83-.61s-2.02.34-3.64,1.01c-2.02.95-4.32,1.42-6.88,1.42-1.89,0-3.84-.33-5.86-1.01-.81-.4-1.55-.61-2.22-.61-.95,0-2.9.74-5.86,2.22-3.24,1.62-5.93,2.43-8.09,2.43-1.89,0-4.45-.81-7.68-2.43-2.83-1.35-5.33-2.02-7.48-2.02-.27,0-.64.03-1.11.1-.47.07-.91.1-1.31.1h-1.82c-6.74,0-12.54-1.95-17.39-5.86-4.04-3.37-6.07-7.75-6.07-13.15,0-2.43.54-4.92,1.62-7.48.67-1.62,1.01-2.76,1.01-3.44s-.54-2.09-1.62-4.25c-1.49-2.56-2.22-6-2.22-10.31,0-2.29.34-4.31,1.01-6.07.67-1.21.54-2.83-.4-4.85-.95-1.75-1.42-4.45-1.42-8.09,0-3.1.33-5.26,1.01-6.47.4-.81.61-1.95.61-3.44s-.2-3.44-.61-5.86-.61-4.38-.61-5.87.33-3.57,1.01-6.27c.67-2.43,1.01-3.97,1.01-4.65,0-.81-.54-2.16-1.62-4.04-1.49-2.29-2.22-5.06-2.22-8.29,0-3.91,1.08-7.35,3.24-10.32,2.15-3.23,3.23-6.67,3.23-10.31,0-3.91.67-7.01,2.02-9.3,2.96-4.99,6.54-8.36,10.72-10.11Z"/>
        <path class="cls-1" d="M1220.82,161.94c1.34-1.21,2.66-1.95,3.94-2.22,1.28-.27,4.01-.4,8.19-.4,4.45,0,7.28.17,8.49.5,1.21.34,2.9,1.45,5.06,3.34,5.39,4.58,8.09,9.57,8.09,14.97,0,1.49-.34,3.37-1.01,5.66-1.35,3.78-2.02,9.71-2.02,17.8,0,5.39.4,8.9,1.21,10.52.81,1.62,1.21,3.91,1.21,6.88,0,1.49-.07,2.63-.2,3.44-.14,1.08-.2,2.43-.2,4.04,0,2.7.4,4.92,1.21,6.67.94,2.56,1.42,6.2,1.42,10.92,0,3.78-.34,6.2-1.01,7.28-.54.95,0,2.63,1.62,5.05,2.29,3.37,3.44,6.74,3.44,10.11,0,1.35-.2,2.76-.61,4.25-.4,1.21-.61,2.36-.61,3.44,0,1.75.47,3.84,1.42,6.27,1.08,3.51,1.62,6.14,1.62,7.89,0,1.08-.07,1.89-.2,2.43-.14.68-.2,1.55-.2,2.63,0,1.75.47,3.37,1.42,4.85,1.21,1.89,1.82,4.58,1.82,8.09,0,2.97-.54,5.53-1.62,7.68-1.21,2.43-3.27,4.82-6.17,7.18-2.9,2.36-5.7,3.87-8.39,4.55-1.62.4-3.23.61-4.85.61-5.53,0-10.28-2.33-14.26-6.98-3.98-4.65-6.04-10.41-6.17-17.29-.14-15.5-.88-24.33-2.22-26.49-2.16-3.37-3.24-6.81-3.24-10.31,0-3.1.74-6.07,2.22-8.9,1.08-2.02,1.08-3.64,0-4.85-3.1-3.5-4.65-7.82-4.65-12.94,0-.27.03-.61.1-1.01.07-.4.1-.74.1-1.01.13-.67.2-1.68.2-3.03,0-2.29-.4-4.51-1.21-6.67-.95-2.83-1.42-5.53-1.42-8.09,0-2.69.54-5.12,1.62-7.28.81-1.35,1.21-2.56,1.21-3.64,0-.4-.27-1.55-.81-3.44-.68-2.02-1.01-4.38-1.01-7.08s.33-4.85,1.01-6.47c.4-1.08.61-2.02.61-2.83,0-.67-.34-1.82-1.01-3.44-.95-1.89-1.42-4.11-1.42-6.67,0-6.61,2.43-11.93,7.28-15.98Z"/>
        <path class="cls-1" d="M1388.26,190.05c2.02-.67,3.91-1.01,5.66-1.01,6.74,0,12,2.76,15.77,8.29,1.62,2.02,2.49,5.8,2.63,11.32.27,5.66.87,9.57,1.82,11.73.94,2.29,1.42,4.52,1.42,6.67,0,2.43-.54,4.79-1.62,7.08-.81,2.02-1.21,3.64-1.21,4.85,0,.95.2,2.43.61,4.45.4,1.62.61,3.23.61,4.85,0,2.97-.95,6-2.83,9.1-.68,1.08-1.01,1.89-1.01,2.43,0,.68.54,2.29,1.62,4.85,1.08,2.29,1.62,4.99,1.62,8.09,0,3.78-.95,6.87-2.83,9.3-1.21,1.62-1.82,2.76-1.82,3.44,0,.54.47,1.96,1.42,4.25.81,2.16,1.21,4.52,1.21,7.08,0,3.91-.88,7.01-2.63,9.3-1.49,2.02-2.22,5.26-2.22,9.71,0,6.6-2.56,11.8-7.69,15.57-2.56,1.89-5.53,2.83-8.9,2.83-4.04,0-7.96-1.18-11.73-3.54-3.78-2.36-6.4-5.43-7.89-9.2-1.21-3.1-3.03-5.33-5.46-6.67-5.66-2.96-8.83-7.28-9.5-12.94-.4-2.83-1.21-4.45-2.43-4.85-1.35-.54-3.17-2.15-5.46-4.85-2.29-2.69-4.04-5.39-5.26-8.09-1.62-3.5-3.31-6.13-5.05-7.89-4.05-4.04-6.07-8.16-6.07-12.34,0-1.48-1.28-4.18-3.84-8.09-2.43-3.64-3.64-5.86-3.64-6.67,0-.54-.27-.47-.81.2-.14.14-.2.47-.2,1.01,0,1.21.81,3.24,2.43,6.07,1.75,3.1,2.63,5.66,2.63,7.69,0,1.35-.07,2.5-.2,3.44-.4,3.24-.61,5.46-.61,6.67,0,1.35.2,3.84.61,7.48,0,.4.03.88.1,1.42.07.54.1.95.1,1.21,0,1.89-.47,4.04-1.42,6.47-.81,1.62-1.21,2.7-1.21,3.24s.74,1.96,2.22,4.25c2.29,2.83,3.44,6.47,3.44,10.92,0,4.85-1.35,8.9-4.04,12.13-3.24,4.45-8.49,6.67-15.77,6.67-3.78,0-6.88-.81-9.3-2.43-2.7-1.75-5.19-4.38-7.48-7.89-2.56-3.64-3.84-7.41-3.84-11.32s.33-6.47,1.01-8.09c.54-1.35.81-2.16.81-2.43,0-.94-.4-2.22-1.21-3.84-1.08-2.02-1.62-4.79-1.62-8.29,0-2.96.33-5.12,1.01-6.47.4-.81.61-1.62.61-2.43,0-.94-.4-2.56-1.21-4.85-1.08-2.83-1.62-5.59-1.62-8.29,0-.27.03-.67.1-1.21.07-.54.1-.94.1-1.21,0-.4.03-.91.1-1.52.07-.61.1-1.04.1-1.32,0-2.02-.54-4.25-1.62-6.67-1.08-2.16-1.62-4.65-1.62-7.48,0-3.1.67-6,2.02-8.7,1.08-1.75,1.62-3.37,1.62-4.85,0-.27-.27-1.62-.81-4.04-.54-1.62-.81-3.37-.81-5.26,0-3.91,1.48-7.41,4.45-10.52,2.29-2.43,3.64-5.12,4.04-8.09.4-2.7,1.89-5.26,4.45-7.68,1.75-1.62,3.2-2.6,4.35-2.93,1.14-.33,3.67-.51,7.58-.51,5.53,0,9.3.88,11.33,2.63,2.02,1.49,3.84,3.91,5.46,7.28,1.48,3.1,3.17,4.99,5.06,5.66,2.96.95,5.8,2.7,8.49,5.26,2.69,2.56,4.65,5.19,5.86,7.89,1.21,3.1,2.76,5.59,4.65,7.48,3.5,2.83,5.26,7.08,5.26,12.74,0,2.7.81,4.85,2.43,6.47,1.89,2.29,3.91,5.33,6.07,9.1,1.48,2.83,3.13,5.23,4.95,7.18,1.82,1.96,3.27,2.93,4.35,2.93.27,0,.54-.13.81-.4.67-.67.47-2.49-.61-5.46-.81-2.96-1.21-5.59-1.21-7.89,0-2.56.47-4.85,1.42-6.87.67-1.35,1.01-2.56,1.01-3.64,0-1.21-.34-2.49-1.01-3.84-.81-2.15-1.28-6.57-1.42-13.25-.14-6.67-.27-10.62-.4-11.83-.27-2.43-.4-3.91-.4-4.45,0-1.89.4-3.57,1.21-5.06,1.21-2.29,3.1-4.58,5.66-6.87,2.56-2.29,4.99-3.84,7.28-4.65Z"/>
        <path class="cls-1" d="M1498.68,168.61c1.08-.27,2.22-.4,3.44-.4.94,0,2.09.14,3.44.4,1.89.27,4.25.4,7.08.4h4.45c8.49,0,15.37,1.69,20.63,5.06,2.43,1.35,4.11,2.02,5.05,2.02,1.62,0,4.15,1.01,7.58,3.03,3.44,2.02,5.83,3.91,7.18,5.66,2.29,2.83,3.44,6.34,3.44,10.52,0,4.59-1.49,8.56-4.45,11.93-4.04,4.45-8.7,6.67-13.95,6.67-3.1,0-6.14-.94-9.1-2.83-2.02-1.35-3.91-2.02-5.66-2.02-1.35,0-2.43.07-3.23.2-.68.14-1.62.2-2.83.2-1.75,0-4.04-.54-6.88-1.62-2.02-.94-3.64-1.42-4.85-1.42-.54,0-1.55.17-3.03.51-1.49.34-2.97.51-4.45.51-2.56.14-5.19,1.55-7.89,4.25-2.83,2.83-4.45,4.25-4.85,4.25-.68,0-1.75,1.69-3.23,5.05-1.49,3.24-3.03,5.73-4.65,7.48-1.62,1.62-2.43,3.91-2.43,6.87,0,1.75-.44,4.32-1.31,7.69-.88,3.37-1.31,6-1.31,7.89,0,.27.03.64.1,1.11.07.47.1.84.1,1.11s.03.68.1,1.21c.07.54.1.88.1,1.01,0,2.16-.81,4.85-2.43,8.09-1.48,3.37-2.22,5.33-2.22,5.86,0,.68.33,1.69,1.01,3.03,1.08,1.89,1.62,4.11,1.62,6.67,0,2.43.88,4.11,2.63,5.05,3.91,2.16,6.4,5.39,7.48,9.71.54,2.02,2.02,4.04,4.45,6.07,2.56,2.16,5.73,3.31,9.51,3.44,4.58.27,7.68.88,9.3,1.82,1.62.81,2.76,1.21,3.44,1.21.54,0,1.68-.33,3.44-1.01,2.43-.94,4.45-1.42,6.07-1.42,3.37,0,5.06-3.1,5.06-9.3,0-3.1.54-6.07,1.62-8.9.81-2.43,1.21-4.58,1.21-6.47,0-1.08-.07-1.82-.2-2.22-.27-1.62-.61-2.6-1.01-2.93-.4-.33-1.08-.37-2.02-.1-3.91,1.21-7.15,1.82-9.71,1.82-4.18,0-8.16-1.68-11.93-5.05-5.39-4.85-8.09-10.24-8.09-16.18,0-2.15.4-4.25,1.21-6.27,3.23-7.68,9.3-11.53,18.2-11.53,3.23,0,5.26-.61,6.07-1.82.94-1.62,2.83-2.93,5.66-3.94,2.83-1.01,5.73-1.52,8.7-1.52s5.12.47,6.88,1.42c.94.54,1.75.81,2.43.81s1.95-.61,3.84-1.82c3.37-2.29,6.94-3.44,10.72-3.44s7.35,1.28,10.31,3.84c4.18,3.64,6.27,8.7,6.27,15.17,0,8.63-2.56,14.56-7.68,17.8-2.56,1.49-3.84,3.37-3.84,5.66,0,2.16-.47,4.79-1.42,7.89-.68,2.43-1.01,5.26-1.01,8.49,0,1.62.07,2.83.2,3.64,0,.4.03.95.1,1.62.07.68.1,1.15.1,1.42,0,2.97-.54,5.86-1.62,8.69-.68,1.62-1.49,5.26-2.43,10.92-.94,5.66-1.82,9.3-2.63,10.92-1.49,2.69-3.61,4.99-6.37,6.88-2.76,1.89-5.43,2.83-7.99,2.83-1.35,0-3.71,1.68-7.08,5.06-3.91,4.04-7.82,6.07-11.73,6.07-2.16,0-4.32-.4-6.47-1.21-3.24-1.08-5.87-1.62-7.89-1.62-1.89,0-4.65.2-8.29.61-2.97.27-4.79.4-5.46.4-3.51,0-6.61-1.15-9.3-3.44-1.89-1.62-4.25-2.7-7.08-3.24-5.8-1.08-10.38-4.32-13.75-9.71-2.02-3.1-3.91-5.12-5.66-6.07-3.1-1.62-6.1-4.68-9-9.2-2.9-4.51-4.42-8.39-4.55-11.63,0-1.89-1.35-4.38-4.04-7.48-4.18-4.31-6.27-8.49-6.27-12.54,0-1.89.4-3.91,1.21-6.07.94-2.43,1.42-4.25,1.42-5.46,0-.81-.4-2.02-1.21-3.64-1.21-2.29-1.82-5.32-1.82-9.1,0-2.83.4-5.06,1.21-6.67.27-.54,1.08-1.72,2.43-3.54,1.34-1.82,2.32-3.44,2.93-4.85.61-1.42,1.04-3.07,1.32-4.96.4-3.37,1.48-6.27,3.23-8.7,1.75-2.29,2.63-5.12,2.63-8.49,0-3.91,1.25-7.82,3.74-11.73,2.49-3.91,5.36-6.34,8.59-7.28,1.35-.4,2.49-2.02,3.44-4.85.81-2.7,2.49-5.29,5.06-7.79,2.56-2.49,5.05-3.94,7.48-4.35,2.7-.54,5.19-1.95,7.48-4.25,4.18-4.04,8.83-6.67,13.95-7.89Z"/>
        <path class="cls-1" d="M1644.08,162.95l3.23-3.64h13.15c8.76,0,13.75.61,14.97,1.82,2.69,3.23,4.31,8.49,4.85,15.77.27,5.93.88,9.84,1.82,11.73.94,1.75,1.42,4.11,1.42,7.08,0,4.04-.81,7.21-2.43,9.51-4.45,6.74-10.72,10.11-18.81,10.11-6.74,0-12-2.49-15.77-7.48-2.02-2.7-3.03-6.27-3.03-10.72-.27-4.58-.88-7.35-1.82-8.29-.68-.67-1.21-.94-1.62-.81-.4.14-1.15.95-2.22,2.43-1.49,2.02-2.22,5.05-2.22,9.1,0,7.82-2.7,13.82-8.09,18-1.62,1.21-3.07,1.99-4.35,2.33-1.28.34-3.68.51-7.18.51-6.61-.13-11.46-1.52-14.56-4.15-3.1-2.63-4.85-6.84-5.26-12.64v-2.02c0-3.23.67-5.86,2.02-7.89,1.62-2.56,2.43-6.2,2.43-10.92.13-7.95,2.9-14.16,8.29-18.6,2.7-2.15,5.8-3.23,9.3-3.23,2.96,0,6.37.88,10.21,2.63,3.84,1.75,6.57,3.71,8.19,5.86,1.21,1.49,2.22,1.82,3.03,1.01s1.21-1.62,1.21-2.43c0-.94,1.08-2.63,3.24-5.05Z"/>
      </g>
      <g>
        <rect class="cls-1" x="133.44" y="413.01" width="5.01" height="3.34"/>
        <path class="cls-1" d="M1676.82,416.35h-9.99v-3.34h9.99v3.34ZM1656.84,416.35h-9.99v-3.34h9.99v3.34ZM1636.86,416.35h-9.99v-3.34h9.99v3.34ZM1616.88,416.35h-9.99v-3.34h9.99v3.34ZM1596.9,416.35h-9.99v-3.34h9.99v3.34ZM1576.93,416.35h-9.99v-3.34h9.99v3.34ZM1556.95,416.35h-9.99v-3.34h9.99v3.34ZM1536.97,416.35h-9.99v-3.34h9.99v3.34ZM1516.99,416.35h-9.99v-3.34h9.99v3.34ZM1497.01,416.35h-9.99v-3.34h9.99v3.34ZM1477.03,416.35h-9.99v-3.34h9.99v3.34ZM1457.05,416.35h-9.99v-3.34h9.99v3.34ZM1437.07,416.35h-9.99v-3.34h9.99v3.34ZM1417.1,416.35h-9.99v-3.34h9.99v3.34ZM1397.12,416.35h-9.99v-3.34h9.99v3.34ZM1377.14,416.35h-9.99v-3.34h9.99v3.34ZM1357.16,416.35h-9.99v-3.34h9.99v3.34ZM1337.18,416.35h-9.99v-3.34h9.99v3.34ZM1317.2,416.35h-9.99v-3.34h9.99v3.34ZM1297.22,416.35h-9.99v-3.34h9.99v3.34ZM1277.24,416.35h-9.99v-3.34h9.99v3.34ZM1257.27,416.35h-9.99v-3.34h9.99v3.34ZM1237.29,416.35h-9.99v-3.34h9.99v3.34ZM1217.31,416.35h-9.99v-3.34h9.99v3.34ZM1197.33,416.35h-9.99v-3.34h9.99v3.34ZM1177.35,416.35h-9.99v-3.34h9.99v3.34ZM1157.37,416.35h-9.99v-3.34h9.99v3.34ZM1137.39,416.35h-9.99v-3.34h9.99v3.34ZM1117.41,416.35h-9.99v-3.34h9.99v3.34ZM1097.44,416.35h-9.99v-3.34h9.99v3.34ZM1077.46,416.35h-9.99v-3.34h9.99v3.34ZM1057.48,416.35h-9.99v-3.34h9.99v3.34ZM1037.5,416.35h-9.99v-3.34h9.99v3.34ZM1017.52,416.35h-9.99v-3.34h9.99v3.34ZM997.54,416.35h-9.99v-3.34h9.99v3.34ZM977.56,416.35h-9.99v-3.34h9.99v3.34ZM957.58,416.35h-9.99v-3.34h9.99v3.34ZM937.6,416.35h-9.99v-3.34h9.99v3.34ZM917.63,416.35h-9.99v-3.34h9.99v3.34ZM897.65,416.35h-9.99v-3.34h9.99v3.34ZM877.67,416.35h-9.99v-3.34h9.99v3.34ZM857.69,416.35h-9.99v-3.34h9.99v3.34ZM837.71,416.35h-9.99v-3.34h9.99v3.34ZM817.73,416.35h-9.99v-3.34h9.99v3.34ZM797.75,416.35h-9.99v-3.34h9.99v3.34ZM777.77,416.35h-9.99v-3.34h9.99v3.34ZM757.8,416.35h-9.99v-3.34h9.99v3.34ZM737.82,416.35h-9.99v-3.34h9.99v3.34ZM717.84,416.35h-9.99v-3.34h9.99v3.34ZM697.86,416.35h-9.99v-3.34h9.99v3.34ZM677.88,416.35h-9.99v-3.34h9.99v3.34ZM657.9,416.35h-9.99v-3.34h9.99v3.34ZM637.92,416.35h-9.99v-3.34h9.99v3.34ZM617.94,416.35h-9.99v-3.34h9.99v3.34ZM597.97,416.35h-9.99v-3.34h9.99v3.34ZM577.99,416.35h-9.99v-3.34h9.99v3.34ZM558.01,416.35h-9.99v-3.34h9.99v3.34ZM538.03,416.35h-9.99v-3.34h9.99v3.34ZM518.05,416.35h-9.99v-3.34h9.99v3.34ZM498.07,416.35h-9.99v-3.34h9.99v3.34ZM478.09,416.35h-9.99v-3.34h9.99v3.34ZM458.11,416.35h-9.99v-3.34h9.99v3.34ZM438.14,416.35h-9.99v-3.34h9.99v3.34ZM418.16,416.35h-9.99v-3.34h9.99v3.34ZM398.18,416.35h-9.99v-3.34h9.99v3.34ZM378.2,416.35h-9.99v-3.34h9.99v3.34ZM358.22,416.35h-9.99v-3.34h9.99v3.34ZM338.24,416.35h-9.99v-3.34h9.99v3.34ZM318.26,416.35h-9.99v-3.34h9.99v3.34ZM298.28,416.35h-9.99v-3.34h9.99v3.34ZM278.31,416.35h-9.99v-3.34h9.99v3.34ZM258.33,416.35h-9.99v-3.34h9.99v3.34ZM238.35,416.35h-9.99v-3.34h9.99v3.34ZM218.37,416.35h-9.99v-3.34h9.99v3.34ZM198.39,416.35h-9.99v-3.34h9.99v3.34ZM178.41,416.35h-9.99v-3.34h9.99v3.34ZM158.43,416.35h-9.99v-3.34h9.99v3.34Z"/>
        <rect class="cls-1" x="1686.81" y="413.01" width="5.01" height="3.34"/>
      </g>
      <g>
        <path class="cls-1" d="M331.96,507.11h56.74v5.96h-56.74v-5.96ZM336.62,463.94h47.08v5.82h-47.08v-5.82ZM336.9,490.18h46.66v5.75h-46.66v-5.75ZM345.88,469.35h7.13v21.38h-7.13v-21.38ZM367.32,469.35h7.13v21.38h-7.13v-21.38Z"/>
        <path class="cls-1" d="M395.01,507.45h56.74v5.89h-56.74v-5.89ZM401.72,462.43h43.31v19.87h-36.11v11.58h-7.06v-17.27h36.04v-8.36h-36.18v-5.83ZM401.86,491h44.61v5.76h-44.61v-5.76ZM419.68,494.7h7.19v15.14h-7.19v-15.14Z"/>
        <path class="cls-1" d="M458.05,506.08h56.6v5.89h-56.6v-5.89ZM464.08,464.35h39.95v5.75h-39.95v-5.75ZM500.26,464.35h7.13v6.78c0,2.74-.03,5.61-.1,8.6-.07,2.99-.26,6.26-.58,9.8-.32,3.54-.87,7.53-1.65,11.96l-7.19-.69c.82-4.16,1.39-7.97,1.71-11.44.32-3.47.51-6.72.58-9.73s.1-5.85.1-8.5v-6.78Z"/>
        <path class="cls-1" d="M540.28,507.11h56.74v5.89h-56.74v-5.89ZM568.58,461.81c4.43,0,8.37.69,11.82,2.06,3.45,1.37,6.18,3.31,8.19,5.82,2.01,2.51,3.01,5.46,3.01,8.84s-1.01,6.4-3.01,8.91c-2.01,2.51-4.74,4.47-8.19,5.86-3.45,1.39-7.39,2.09-11.82,2.09s-8.38-.7-11.86-2.09-6.21-3.35-8.22-5.86c-2.01-2.51-3.01-5.48-3.01-8.91s1-6.33,3.01-8.84c2.01-2.51,4.75-4.45,8.22-5.82,3.47-1.37,7.42-2.06,11.86-2.06ZM568.58,467.5c-3.15,0-5.93.45-8.33,1.34-2.4.89-4.28,2.16-5.65,3.8-1.37,1.64-2.06,3.61-2.06,5.89s.69,4.26,2.06,5.93c1.37,1.67,3.25,2.95,5.65,3.84,2.4.89,5.17,1.34,8.33,1.34s5.87-.45,8.29-1.34c2.42-.89,4.32-2.17,5.69-3.84,1.37-1.67,2.06-3.64,2.06-5.93s-.69-4.25-2.06-5.89c-1.37-1.65-3.27-2.91-5.69-3.8-2.42-.89-5.19-1.34-8.29-1.34ZM564.95,493.4h7.19v15.01h-7.19v-15.01Z"/>
        <path class="cls-1" d="M603.32,507.11h56.74v5.96h-56.74v-5.96ZM607.98,463.94h47.08v5.82h-47.08v-5.82ZM608.25,490.18h46.66v5.75h-46.66v-5.75ZM617.23,469.35h7.13v21.38h-7.13v-21.38ZM638.68,469.35h7.13v21.38h-7.13v-21.38Z"/>
        <path class="cls-1" d="M668.76,463.66h28.57v23.23h-21.31v15.42h-7.13v-21.17h21.31v-11.65h-21.45v-5.82ZM668.89,499.98h5.14c3.75,0,7.21-.04,10.38-.14,3.17-.09,6.27-.3,9.29-.62,3.01-.32,6.07-.75,9.18-1.3l.69,5.89c-3.24.55-6.38.98-9.42,1.3-3.04.32-6.19.54-9.46.65s-6.82.17-10.66.17h-5.14v-5.96ZM707.75,458.04h7.19v62.77h-7.19v-62.77ZM713.3,482.37h11.31v5.96h-11.31v-5.96Z"/>
        <path class="cls-1" d="M747.22,462.29c3.15,0,5.98.66,8.5,1.99,2.51,1.33,4.5,3.16,5.96,5.51,1.46,2.35,2.19,5.06,2.19,8.12s-.73,5.71-2.19,8.09c-1.46,2.37-3.45,4.23-5.96,5.55-2.51,1.33-5.35,1.99-8.5,1.99s-5.99-.66-8.5-1.99c-2.51-1.32-4.5-3.17-5.96-5.55s-2.19-5.07-2.19-8.09.73-5.77,2.19-8.12c1.46-2.35,3.45-4.19,5.96-5.51,2.51-1.33,5.35-1.99,8.5-1.99ZM747.22,468.53c-1.83,0-3.47.39-4.93,1.16-1.46.78-2.6,1.86-3.43,3.26s-1.23,3.05-1.23,4.97.41,3.58,1.23,4.97c.82,1.39,1.96,2.48,3.43,3.26s3.11,1.16,4.93,1.16,3.47-.39,4.93-1.16c1.46-.78,2.61-1.86,3.46-3.26.85-1.39,1.27-3.05,1.27-4.97s-.42-3.57-1.27-4.97-2-2.48-3.46-3.26c-1.46-.78-3.11-1.16-4.93-1.16ZM740.16,498.95h7.13v16.93h-7.13v-16.93ZM740.16,513.61h42.62v5.83h-42.62v-5.83ZM773.8,458.11h7.19v45.43h-7.19v-45.43Z"/>
        <path class="cls-1" d="M813.68,464.96h24.19v39.47h-24.19v-39.47ZM831.23,470.58h-10.83v28.23h10.83v-28.23ZM844.45,459.28h6.71v58.45h-6.71v-58.45ZM849.32,482.5h11.31v5.76h-11.31v-5.76ZM858.22,458.04h6.85v62.63h-6.85v-62.63Z"/>
        <path class="cls-1" d="M889.4,464.89h5.89v4.59c0,3.88-.68,7.54-2.05,10.96s-3.36,6.41-5.96,8.94c-2.6,2.53-5.78,4.47-9.52,5.79l-3.63-5.69c3.29-1.14,6.08-2.74,8.36-4.8,2.28-2.06,4.01-4.4,5.17-7.02,1.17-2.63,1.75-5.36,1.75-8.19v-4.59ZM876.11,462.5h33.64v5.83h-33.64v-5.83ZM903.38,496.96c4.29,0,7.99.47,11.1,1.41,3.11.94,5.5,2.28,7.19,4.04,1.69,1.76,2.54,3.87,2.54,6.34s-.85,4.65-2.54,6.41c-1.69,1.76-4.09,3.11-7.19,4.04-3.11.94-6.81,1.4-11.1,1.4s-8.01-.47-11.14-1.4c-3.13-.94-5.53-2.28-7.19-4.04-1.67-1.76-2.5-3.89-2.5-6.41s.83-4.58,2.5-6.34c1.67-1.76,4.07-3.11,7.19-4.04s6.84-1.41,11.14-1.41ZM903.38,502.65c-2.88,0-5.35.23-7.4.68-2.05.46-3.63,1.14-4.73,2.06-1.1.91-1.64,2.03-1.64,3.36s.55,2.52,1.64,3.46c1.1.94,2.67,1.65,4.73,2.13,2.06.48,4.52.72,7.4.72s5.4-.24,7.43-.72c2.03-.48,3.6-1.19,4.69-2.13,1.1-.94,1.64-2.09,1.64-3.46s-.55-2.44-1.64-3.36c-1.1-.91-2.66-1.6-4.69-2.06-2.03-.46-4.51-.68-7.43-.68ZM890.84,464.89h5.83v4.59c0,2.56.57,5.03,1.71,7.4,1.14,2.37,2.81,4.49,5,6.34,2.19,1.85,4.86,3.28,8.02,4.28l-3.43,5.62c-3.7-1.19-6.82-2.95-9.35-5.28-2.54-2.33-4.47-5.08-5.79-8.26-1.33-3.17-1.99-6.54-1.99-10.11v-4.59ZM916.4,458.11h7.13v37.41h-7.13v-37.41ZM921.61,473.32h10.76v5.89h-10.76v-5.89Z"/>
        <path class="cls-1" d="M960.25,463.66h29.26v23.16h-21.86v15.42h-7.26v-21.11h21.79v-11.65h-21.93v-5.82ZM960.39,499.98h5.35c3.61,0,7.07-.06,10.38-.17,3.31-.11,6.61-.33,9.9-.65,3.29-.32,6.69-.75,10.21-1.3l.69,5.82c-5.39.92-10.55,1.52-15.49,1.82-4.93.3-10.17.45-15.69.45h-5.35v-5.96ZM1001.37,458.04h7.19v62.77h-7.19v-62.77Z"/>
        <path class="cls-1" d="M1019.94,507.11h56.74v5.89h-56.74v-5.89ZM1026.24,463.04h43.86v30.01h-43.86v-30.01ZM1063.04,468.73h-29.74v18.64h29.74v-18.64ZM1044.61,491.96h7.19v16.65h-7.19v-16.65Z"/>
        <path class="cls-1" d="M1085.79,461.4h23.98v5.69h-16.86v19.73h-7.13v-25.42ZM1085.79,483.05h4.11c3.2,0,6.02-.02,8.46-.07,2.44-.04,4.77-.17,6.99-.38,2.21-.21,4.47-.54,6.75-.99l.55,5.75c-2.37.41-4.69.72-6.95.93-2.26.21-4.65.33-7.16.38-2.51.05-5.39.07-8.63.07h-4.11v-5.69ZM1094.15,493.61h42.14v15.55h-34.95v8.57h-7.06v-13.84h34.95v-4.66h-35.08v-5.62ZM1094.29,514.3h44.13v5.62h-44.13v-5.62ZM1106.07,471.61h14.46v5.48h-14.46v-5.48ZM1117.24,459.28h6.78v31.38h-6.78v-31.38ZM1129.44,458.11h6.85v33.03h-6.85v-33.03Z"/>
        <path class="cls-1" d="M1149.11,461.95h28.64v18.02h-21.45v10.62h-7.06v-16.03h21.45v-6.85h-21.58v-5.76ZM1149.24,487.3h5.21c3.93,0,7.53-.04,10.79-.14,3.27-.09,6.41-.27,9.42-.55,3.01-.27,6.12-.66,9.32-1.16l.82,5.75c-3.29.55-6.49.97-9.59,1.27-3.11.3-6.34.48-9.69.55-3.36.07-7.05.1-11.07.1h-5.21v-5.83ZM1176.86,497.65c6.58,0,11.75.99,15.52,2.98,3.77,1.99,5.65,4.81,5.65,8.46s-1.88,6.5-5.65,8.53c-3.77,2.03-8.94,3.05-15.52,3.05s-11.75-1.02-15.52-3.05c-3.77-2.03-5.65-4.88-5.65-8.53s1.89-6.47,5.65-8.46c3.77-1.99,8.94-2.98,15.52-2.98ZM1176.86,503.27c-2.97,0-5.52.23-7.64.68-2.13.46-3.73,1.11-4.83,1.95s-1.65,1.91-1.65,3.19.55,2.42,1.65,3.29c1.1.87,2.71,1.53,4.83,1.99,2.12.46,4.67.69,7.64.69s5.51-.23,7.61-.69c2.1-.46,3.7-1.12,4.8-1.99,1.1-.87,1.65-1.96,1.65-3.29s-.55-2.34-1.65-3.19-2.7-1.5-4.8-1.95c-2.1-.46-4.64-.68-7.61-.68ZM1190.43,458.11h7.19v38.3h-7.19v-38.3Z"/>
        <path class="cls-1" d="M1228.32,486.68h56.46v5.76h-56.46v-5.76ZM1256.28,497.37c4.48,0,8.36.47,11.65,1.41s5.83,2.27,7.64,4.01,2.71,3.81,2.71,6.23-.9,4.5-2.71,6.24c-1.81,1.73-4.35,3.06-7.64,3.97-3.29.91-7.17,1.37-11.65,1.37s-8.36-.46-11.65-1.37c-3.29-.91-5.83-2.24-7.64-3.97-1.81-1.74-2.71-3.81-2.71-6.24s.9-4.5,2.71-6.23,4.35-3.07,7.64-4.01c3.29-.94,7.17-1.41,11.65-1.41ZM1234.83,461.06h40.02v5.76h-40.02v-5.76ZM1256.28,502.86c-3.06,0-5.7.23-7.91.68-2.22.46-3.92,1.16-5.11,2.09-1.19.94-1.78,2.07-1.78,3.39s.59,2.38,1.78,3.29c1.19.92,2.89,1.62,5.11,2.13,2.21.5,4.85.75,7.91.75s5.75-.25,7.95-.75c2.19-.5,3.89-1.21,5.11-2.13,1.21-.91,1.81-2.01,1.81-3.29s-.61-2.45-1.81-3.39c-1.21-.94-2.91-1.63-5.11-2.09-2.19-.46-4.84-.68-7.95-.68ZM1250.52,475.17h7.13v13.09h-7.13v-13.09ZM1270.67,461.06h7.13v5.28c0,2.51-.07,5.11-.21,7.78-.14,2.67-.64,5.63-1.51,8.87l-7.06-.75c.82-3.24,1.3-6.1,1.44-8.57.14-2.47.21-4.91.21-7.33v-5.28Z"/>
        <path class="cls-1" d="M1306.09,463.25h5.82v10.28c0,3.61-.4,7.16-1.2,10.66-.8,3.49-1.94,6.75-3.43,9.77-1.49,3.01-3.3,5.7-5.45,8.05-2.15,2.35-4.57,4.21-7.26,5.58l-4.32-5.82c2.42-1.19,4.61-2.77,6.58-4.76,1.96-1.99,3.63-4.25,5-6.78,1.37-2.54,2.42-5.23,3.15-8.09.73-2.85,1.1-5.72,1.1-8.6v-10.28ZM1307.4,463.25h5.82v10.28c0,2.79.34,5.54,1.03,8.26s1.7,5.3,3.05,7.74c1.35,2.44,2.96,4.63,4.83,6.54,1.87,1.92,3.97,3.45,6.3,4.59l-4.39,5.76c-2.6-1.37-4.92-3.19-6.96-5.45-2.03-2.26-3.77-4.85-5.21-7.78-1.44-2.92-2.55-6.05-3.32-9.39-.78-3.33-1.16-6.76-1.16-10.28v-10.28ZM1332.61,458.11h7.19v62.63h-7.19v-62.63ZM1338.23,482.85h11.31v6.03h-11.31v-6.03Z"/>
        <path class="cls-1" d="M1390.92,462.29c3.15,0,5.99.67,8.5,2.02s4.5,3.2,5.96,5.55c1.46,2.35,2.19,5.06,2.19,8.12s-.73,5.7-2.19,8.05c-1.46,2.35-3.45,4.2-5.96,5.55-2.51,1.35-5.35,2.02-8.5,2.02s-5.92-.67-8.43-2.02c-2.51-1.35-4.5-3.2-5.96-5.55-1.46-2.35-2.19-5.04-2.19-8.05s.73-5.77,2.19-8.12c1.46-2.35,3.45-4.2,5.96-5.55s5.32-2.02,8.43-2.02ZM1390.92,468.53c-1.78,0-3.4.39-4.87,1.16-1.46.78-2.61,1.87-3.46,3.29-.85,1.42-1.27,3.08-1.27,5s.42,3.51,1.27,4.9c.85,1.39,2,2.48,3.46,3.26s3.08,1.16,4.87,1.16,3.48-.39,4.97-1.16c1.48-.78,2.64-1.86,3.46-3.26.82-1.39,1.23-3.03,1.23-4.9s-.41-3.59-1.23-5c-.82-1.42-1.98-2.51-3.46-3.29-1.49-.78-3.14-1.16-4.97-1.16ZM1382.77,499.22h7.19v16.93h-7.19v-16.93ZM1382.77,513.61h42.21v5.83h-42.21v-5.83ZM1415.25,458.04h7.13v45.91h-7.13v-45.91ZM1420.25,476.61h10.96v5.96h-10.96v-5.96Z"/>
        <path class="cls-1" d="M1439.3,465.37h7.19v36.11h-7.19v-36.11ZM1439.3,498.75h4.18c3.15,0,6.5-.13,10.04-.38s7.32-.77,11.34-1.54l.68,6.17c-4.16.82-8.06,1.35-11.72,1.58-3.65.23-7.1.34-10.35.34h-4.18v-6.17ZM1468.91,459.34h6.71v58.24h-6.71v-58.24ZM1473.5,482.98h11.37v5.83h-11.37v-5.83ZM1482.95,458.04h6.92v62.63h-6.92v-62.63Z"/>
      </g>
      <g>
        <path class="cls-1" d="M733.63,119.9v-2.35c3.13-3.1,5.78-5.83,7.95-8.19,2.17-2.36,3.82-4.49,4.95-6.39s1.69-3.69,1.69-5.37c0-1.19-.21-2.24-.63-3.15-.42-.91-1.06-1.62-1.93-2.13-.87-.51-1.97-.76-3.3-.76s-2.51.36-3.63,1.09c-1.12.72-2.11,1.59-2.98,2.61l-2.3-2.22c1.27-1.45,2.65-2.59,4.13-3.43,1.48-.84,3.23-1.26,5.26-1.26,1.91,0,3.55.38,4.93,1.13,1.37.75,2.45,1.81,3.22,3.17.77,1.36,1.15,2.95,1.15,4.78,0,1.94-.55,3.91-1.65,5.91-1.1,2-2.61,4.09-4.52,6.28-1.91,2.19-4.09,4.57-6.52,7.15.81-.06,1.68-.12,2.61-.2.93-.07,1.8-.11,2.61-.11h8.99v3.43h-20.03Z"/>
        <path class="cls-1" d="M767.91,120.47c-2.06,0-3.82-.62-5.3-1.87-1.48-1.25-2.61-3.07-3.41-5.48-.8-2.4-1.19-5.34-1.19-8.82s.4-6.36,1.19-8.73c.8-2.37,1.93-4.17,3.41-5.39,1.48-1.22,3.24-1.82,5.3-1.82s3.82.61,5.3,1.82c1.48,1.22,2.61,3.01,3.41,5.39.8,2.38,1.19,5.29,1.19,8.73s-.4,6.42-1.19,8.82c-.8,2.4-1.93,4.23-3.41,5.48-1.48,1.25-3.24,1.87-5.3,1.87ZM767.91,117.25c1.22,0,2.28-.45,3.19-1.35.91-.9,1.62-2.3,2.13-4.21.51-1.91.76-4.37.76-7.39s-.25-5.46-.76-7.34c-.51-1.88-1.22-3.26-2.13-4.13-.91-.87-1.98-1.3-3.19-1.3s-2.24.43-3.17,1.3c-.93.87-1.65,2.25-2.15,4.13-.51,1.88-.76,4.33-.76,7.34s.25,5.47.76,7.39c.51,1.91,1.22,3.32,2.15,4.21.93.9,1.98,1.35,3.17,1.35Z"/>
        <path class="cls-1" d="M781.86,119.9v-2.35c3.13-3.1,5.78-5.83,7.95-8.19,2.17-2.36,3.82-4.49,4.95-6.39s1.69-3.69,1.69-5.37c0-1.19-.21-2.24-.63-3.15-.42-.91-1.06-1.62-1.93-2.13-.87-.51-1.97-.76-3.3-.76s-2.51.36-3.63,1.09c-1.12.72-2.11,1.59-2.98,2.61l-2.3-2.22c1.27-1.45,2.65-2.59,4.13-3.43,1.48-.84,3.23-1.26,5.26-1.26,1.91,0,3.55.38,4.93,1.13,1.37.75,2.45,1.81,3.22,3.17.77,1.36,1.15,2.95,1.15,4.78,0,1.94-.55,3.91-1.65,5.91-1.1,2-2.61,4.09-4.52,6.28-1.91,2.19-4.09,4.57-6.52,7.15.81-.06,1.68-.12,2.61-.2.93-.07,1.8-.11,2.61-.11h8.99v3.43h-20.03Z"/>
        <path class="cls-1" d="M817.1,120.47c-1.54,0-2.95-.3-4.26-.91s-2.43-1.54-3.39-2.78c-.95-1.25-1.7-2.8-2.24-4.67s-.8-4.05-.8-6.54c0-3.1.32-5.74.95-7.93.64-2.19,1.51-3.97,2.61-5.34,1.1-1.38,2.36-2.37,3.78-3,1.42-.62,2.9-.93,4.43-.93,1.68,0,3.13.31,4.34.93,1.22.62,2.26,1.4,3.13,2.32l-2.22,2.48c-.61-.75-1.37-1.35-2.28-1.78-.91-.43-1.85-.65-2.8-.65-1.48,0-2.84.43-4.08,1.3-1.25.87-2.25,2.32-3,4.35-.75,2.03-1.13,4.78-1.13,8.26,0,2.55.28,4.7.83,6.45.55,1.75,1.34,3.08,2.37,3.98s2.27,1.35,3.72,1.35c1.04,0,1.98-.28,2.8-.85s1.48-1.35,1.96-2.37c.48-1.01.72-2.2.72-3.56s-.22-2.53-.65-3.52-1.08-1.75-1.93-2.28c-.86-.54-1.92-.8-3.19-.8-1.01,0-2.12.33-3.3,1-1.19.67-2.32,1.8-3.39,3.39l-.13-3.13c.67-.87,1.41-1.62,2.22-2.26.81-.64,1.67-1.12,2.59-1.46.91-.33,1.79-.5,2.63-.5,1.8,0,3.36.35,4.69,1.06,1.33.71,2.36,1.77,3.09,3.19.72,1.42,1.09,3.19,1.09,5.3,0,1.97-.41,3.7-1.24,5.19-.82,1.49-1.93,2.65-3.32,3.48-1.39.83-2.91,1.24-4.56,1.24Z"/>
        <path class="cls-1" d="M834.22,120.47c-.78,0-1.46-.28-2.02-.85s-.85-1.28-.85-2.15c0-.93.28-1.67.85-2.22.56-.55,1.24-.83,2.02-.83s1.46.28,2.02.83c.56.55.85,1.29.85,2.22,0,.87-.28,1.59-.85,2.15s-1.24.85-2.02.85Z"/>
        <path class="cls-1" d="M852.34,120.47c-2.06,0-3.82-.62-5.3-1.87-1.48-1.25-2.61-3.07-3.41-5.48-.8-2.4-1.19-5.34-1.19-8.82s.4-6.36,1.19-8.73c.8-2.37,1.93-4.17,3.41-5.39,1.48-1.22,3.24-1.82,5.3-1.82s3.82.61,5.3,1.82c1.48,1.22,2.61,3.01,3.41,5.39.8,2.38,1.19,5.29,1.19,8.73s-.4,6.42-1.19,8.82c-.8,2.4-1.93,4.23-3.41,5.48-1.48,1.25-3.24,1.87-5.3,1.87ZM852.34,117.25c1.22,0,2.28-.45,3.19-1.35.91-.9,1.62-2.3,2.13-4.21.51-1.91.76-4.37.76-7.39s-.25-5.46-.76-7.34c-.51-1.88-1.22-3.26-2.13-4.13-.91-.87-1.98-1.3-3.19-1.3s-2.24.43-3.17,1.3c-.93.87-1.65,2.25-2.15,4.13-.51,1.88-.76,4.33-.76,7.34s.25,5.47.76,7.39c.51,1.91,1.22,3.32,2.15,4.21.93.9,1.98,1.35,3.17,1.35Z"/>
        <path class="cls-1" d="M877.41,120.47c-1.54,0-2.95-.3-4.26-.91s-2.43-1.54-3.39-2.78c-.95-1.25-1.7-2.8-2.24-4.67s-.8-4.05-.8-6.54c0-3.1.32-5.74.95-7.93.64-2.19,1.51-3.97,2.61-5.34,1.1-1.38,2.36-2.37,3.78-3,1.42-.62,2.9-.93,4.43-.93,1.68,0,3.13.31,4.34.93,1.22.62,2.26,1.4,3.13,2.32l-2.22,2.48c-.61-.75-1.37-1.35-2.28-1.78-.91-.43-1.85-.65-2.8-.65-1.48,0-2.84.43-4.08,1.3-1.25.87-2.25,2.32-3,4.35-.75,2.03-1.13,4.78-1.13,8.26,0,2.55.28,4.7.83,6.45.55,1.75,1.34,3.08,2.37,3.98s2.27,1.35,3.72,1.35c1.04,0,1.98-.28,2.8-.85s1.48-1.35,1.96-2.37c.48-1.01.72-2.2.72-3.56s-.22-2.53-.65-3.52-1.08-1.75-1.93-2.28c-.86-.54-1.92-.8-3.19-.8-1.01,0-2.12.33-3.3,1-1.19.67-2.32,1.8-3.39,3.39l-.13-3.13c.67-.87,1.41-1.62,2.22-2.26.81-.64,1.67-1.12,2.59-1.46.91-.33,1.79-.5,2.63-.5,1.8,0,3.36.35,4.69,1.06,1.33.71,2.36,1.77,3.09,3.19.72,1.42,1.09,3.19,1.09,5.3,0,1.97-.41,3.7-1.24,5.19-.82,1.49-1.93,2.65-3.32,3.48-1.39.83-2.91,1.24-4.56,1.24Z"/>
        <path class="cls-1" d="M894.53,120.47c-.78,0-1.46-.28-2.02-.85s-.85-1.28-.85-2.15c0-.93.28-1.67.85-2.22.56-.55,1.24-.83,2.02-.83s1.46.28,2.02.83c.56.55.85,1.29.85,2.22,0,.87-.28,1.59-.85,2.15s-1.24.85-2.02.85Z"/>
        <path class="cls-1" d="M904.4,119.9v-3.3h7.13v-22.86h-5.69v-2.52c1.42-.26,2.66-.58,3.71-.96,1.06-.38,2.02-.83,2.89-1.35h3.04v27.68h6.39v3.3h-17.47Z"/>
        <path class="cls-1" d="M936.08,120.47c-1.65,0-3.11-.2-4.37-.61-1.26-.41-2.36-.93-3.3-1.56s-1.79-1.32-2.54-2.04l2-2.61c.61.61,1.28,1.18,2.02,1.72.74.54,1.58.97,2.54,1.3.96.33,2.04.5,3.26.5s2.38-.29,3.41-.87c1.03-.58,1.85-1.39,2.45-2.43.61-1.04.91-2.29.91-3.74,0-2.17-.6-3.86-1.8-5.06-1.2-1.2-2.8-1.8-4.8-1.8-1.04,0-1.96.17-2.74.5-.78.33-1.64.8-2.56,1.41l-2.13-1.35,1.04-14.9h15.47v3.43h-11.99l-.83,9.21c.7-.4,1.43-.72,2.19-.93.77-.22,1.63-.33,2.59-.33,1.77,0,3.38.34,4.82,1.02,1.45.68,2.61,1.74,3.48,3.17.87,1.43,1.3,3.27,1.3,5.5s-.5,4.13-1.5,5.69c-1,1.56-2.3,2.75-3.89,3.56-1.59.81-3.27,1.22-5.04,1.22Z"/>
        <path class="cls-1" d="M954.85,120.47c-.78,0-1.46-.28-2.02-.85s-.85-1.28-.85-2.15c0-.93.28-1.67.85-2.22.56-.55,1.24-.83,2.02-.83s1.46.28,2.02.83c.56.55.85,1.29.85,2.22,0,.87-.28,1.59-.85,2.15s-1.24.85-2.02.85Z"/>
        <path class="cls-1" d="M977.23,107.43c-.96,0-1.82-.21-2.59-.63-.77-.42-1.48-.9-2.15-1.43-.67-.54-1.31-1.01-1.93-1.43-.62-.42-1.28-.63-1.98-.63s-1.35.23-1.96.7c-.61.46-1.19,1.22-1.74,2.26l-2.21-1.56c.87-1.54,1.83-2.65,2.89-3.35s2.11-1.04,3.15-1.04c.96,0,1.82.21,2.59.63.77.42,1.48.9,2.13,1.43.65.54,1.29,1.01,1.91,1.43.62.42,1.28.63,1.98.63s1.35-.22,1.98-.67c.62-.45,1.21-1.21,1.76-2.28l2.21,1.61c-.87,1.51-1.83,2.61-2.89,3.3s-2.11,1.04-3.15,1.04Z"/>
        <path class="cls-1" d="M997.08,120.47c-2.06,0-3.82-.62-5.3-1.87-1.48-1.25-2.61-3.07-3.41-5.48-.8-2.4-1.19-5.34-1.19-8.82s.4-6.36,1.19-8.73c.8-2.37,1.93-4.17,3.41-5.39,1.48-1.22,3.24-1.82,5.3-1.82s3.82.61,5.3,1.82c1.48,1.22,2.61,3.01,3.41,5.39.8,2.38,1.19,5.29,1.19,8.73s-.4,6.42-1.19,8.82c-.8,2.4-1.93,4.23-3.41,5.48-1.48,1.25-3.24,1.87-5.3,1.87ZM997.08,117.25c1.22,0,2.28-.45,3.19-1.35.91-.9,1.62-2.3,2.13-4.21.51-1.91.76-4.37.76-7.39s-.25-5.46-.76-7.34c-.51-1.88-1.22-3.26-2.13-4.13-.91-.87-1.98-1.3-3.19-1.3s-2.24.43-3.17,1.3c-.93.87-1.65,2.25-2.15,4.13-.51,1.88-.76,4.33-.76,7.34s.25,5.47.76,7.39c.51,1.91,1.22,3.32,2.15,4.21.93.9,1.98,1.35,3.17,1.35Z"/>
        <path class="cls-1" d="M1017.73,119.9c.14-2.93.4-5.61.78-8.06.38-2.45.92-4.76,1.63-6.93.71-2.17,1.6-4.28,2.67-6.32,1.07-2.04,2.37-4.12,3.91-6.24h-15.47v-3.43h19.94v2.43c-1.82,2.35-3.32,4.59-4.48,6.74-1.16,2.14-2.07,4.32-2.74,6.54-.67,2.22-1.16,4.56-1.48,7.04-.32,2.48-.54,5.22-.65,8.23h-4.13Z"/>
        <path class="cls-1" d="M1039.28,120.47c-.78,0-1.46-.28-2.02-.85s-.85-1.28-.85-2.15c0-.93.28-1.67.85-2.22.56-.55,1.24-.83,2.02-.83s1.46.28,2.02.83c.56.55.85,1.29.85,2.22,0,.87-.28,1.59-.85,2.15s-1.24.85-2.02.85Z"/>
        <path class="cls-1" d="M1057.4,120.47c-2.06,0-3.82-.62-5.3-1.87-1.48-1.25-2.61-3.07-3.41-5.48-.8-2.4-1.19-5.34-1.19-8.82s.4-6.36,1.19-8.73c.8-2.37,1.93-4.17,3.41-5.39,1.48-1.22,3.24-1.82,5.3-1.82s3.82.61,5.3,1.82c1.48,1.22,2.61,3.01,3.41,5.39.8,2.38,1.19,5.29,1.19,8.73s-.4,6.42-1.19,8.82c-.8,2.4-1.93,4.23-3.41,5.48-1.48,1.25-3.24,1.87-5.3,1.87ZM1057.4,117.25c1.22,0,2.28-.45,3.19-1.35.91-.9,1.62-2.3,2.13-4.21.51-1.91.76-4.37.76-7.39s-.25-5.46-.76-7.34c-.51-1.88-1.22-3.26-2.13-4.13-.91-.87-1.98-1.3-3.19-1.3s-2.24.43-3.17,1.3c-.93.87-1.65,2.25-2.15,4.13-.51,1.88-.76,4.33-.76,7.34s.25,5.47.76,7.39c.51,1.91,1.22,3.32,2.15,4.21.93.9,1.98,1.35,3.17,1.35Z"/>
        <path class="cls-1" d="M1080.86,120.47c-1.65,0-3.11-.2-4.37-.61-1.26-.41-2.37-.94-3.32-1.61-.96-.67-1.78-1.39-2.48-2.17l2.04-2.56c.93.96,2.02,1.8,3.28,2.54,1.26.74,2.79,1.11,4.58,1.11,1.27,0,2.4-.23,3.37-.7.97-.46,1.73-1.12,2.28-1.98s.83-1.86.83-3.02c0-1.25-.31-2.32-.93-3.24-.62-.91-1.66-1.62-3.11-2.13-1.45-.51-3.4-.76-5.87-.76v-3.09c2.2,0,3.94-.25,5.21-.76,1.27-.51,2.19-1.2,2.76-2.09.56-.88.85-1.86.85-2.93,0-1.51-.48-2.7-1.43-3.58-.96-.88-2.27-1.33-3.95-1.33-1.27,0-2.47.3-3.58.89-1.12.59-2.12,1.35-3.02,2.28l-2.13-2.52c1.22-1.1,2.54-2.02,3.98-2.76s3.06-1.11,4.89-1.11,3.4.3,4.8.91c1.41.61,2.51,1.5,3.3,2.67.8,1.17,1.19,2.59,1.19,4.24,0,1.88-.52,3.43-1.57,4.65s-2.4,2.13-4.08,2.74v.17c1.25.32,2.37.83,3.39,1.52s1.83,1.57,2.43,2.63c.61,1.06.91,2.31.91,3.76,0,1.85-.46,3.43-1.39,4.74-.93,1.3-2.16,2.31-3.69,3.02-1.54.71-3.26,1.06-5.17,1.06Z"/>
      </g>
    </g>
  </g>
</svg>