<?xml version="1.0" encoding="UTF-8"?>
<svg id="Layer_1" xmlns="http://www.w3.org/2000/svg" version="1.1" viewBox="0 0 1029.6 99.1">
  <!-- Generator: Adobe Illustrator 29.1.0, SVG Export Plug-In . SVG Version: 2.1.0 Build 142)  -->
  <defs>
    <style>
      .st0 {
        fill: #24331c;
      }
    </style>
  </defs>
  <path class="st0" d="M0,0v41.5c0,17.5,19.2,31.6,42.9,31.6s42.9-14.2,42.9-31.6c0,17.5,19.2,31.6,42.9,31.6s42.9-14.2,42.9-31.6c0,17.5,19.2,31.6,42.9,31.6s42.9-14.2,42.9-31.6c0,17.5,19.2,31.6,42.9,31.6s42.9-14.2,42.9-31.6c0,17.5,19.2,31.6,42.9,31.6s42.9-14.2,42.9-31.6c0,17.5,19.2,31.6,42.9,31.6s42.9-14.2,42.9-31.6c0,17.5,19.2,31.6,42.9,31.6s42.9-14.2,42.9-31.6c0,17.5,19.2,31.6,42.9,31.6s42.9-14.2,42.9-31.6c0,17.5,19.2,31.6,42.9,31.6s42.9-14.2,42.9-31.6c0,17.5,19.2,31.6,42.9,31.6s42.9-14.2,42.9-31.6c0,17.5,19.2,31.6,42.9,31.6s42.9-14.2,42.9-31.6c0,17.5,19.2,31.6,42.9,31.6s42.9-14.2,42.9-31.6V0H0Z"/>
</svg>