<?xml version="1.0" encoding="UTF-8"?>
<svg id="Layer_2" data-name="Layer 2" xmlns="http://www.w3.org/2000/svg" viewBox="0 0 4113.09 1450.6">
  <defs>
    <style>
      .cls-1 {
        fill: #fffdeb;
      }
    </style>
  </defs>
  <path class="cls-1" d="M3857.52,471.87c-70.26,0-133.9,22.78-180.1,59.65-46.2-36.87-109.83-59.65-180.1-59.65s-133.9,22.78-180.1,59.65c-46.2-36.87-109.83-59.65-180.1-59.65s-133.9,22.78-180.1,59.65c-46.2-36.87-109.83-59.65-180.1-59.65s-133.9,22.78-180.1,59.65c-46.2-36.87-109.83-59.65-180.1-59.65s-133.9,22.78-180.1,59.65c-46.2-36.87-109.83-59.65-180.1-59.65s-133.9,22.78-180.1,59.65c-46.2-36.87-109.83-59.65-180.1-59.65s-133.9,22.78-180.1,59.65c-46.2-36.87-109.83-59.65-180.1-59.65s-133.9,22.78-180.1,59.65c-46.2-36.87-109.83-59.65-180.1-59.65s-133.9,22.78-180.1,59.65c-46.2-36.87-109.83-59.65-180.1-59.65s-133.9,22.78-180.1,59.65c-46.2-36.87-109.83-59.65-180.1-59.65C114.42,471.87,0,563.79,0,677.18s114.42,205.31,255.56,205.31c70.26,0,133.9-22.78,180.1-59.65,46.2,36.87,109.83,59.65,180.1,59.65s133.9-22.78,180.1-59.65c46.2,36.87,109.83,59.65,180.1,59.65s133.9-22.78,180.1-59.65c46.2,36.87,109.83,59.65,180.1,59.65s133.9-22.78,180.1-59.65c46.2,36.87,109.83,59.65,180.1,59.65s133.9-22.78,180.1-59.65c46.2,36.87,109.83,59.65,180.1,59.65s133.9-22.78,180.1-59.65c46.2,36.87,109.83,59.65,180.1,59.65s133.9-22.78,180.1-59.65c46.2,36.87,109.83,59.65,180.1,59.65s133.9-22.78,180.1-59.65c46.2,36.87,109.83,59.65,180.1,59.65s133.9-22.78,180.1-59.65c46.2,36.87,109.83,59.65,180.1,59.65s133.9-22.78,180.1-59.65c46.2,36.87,109.83,59.65,180.1,59.65,141.14,0,255.56-91.92,255.56-205.31s-114.42-205.31-255.56-205.31Z"/>
</svg>