<?xml version="1.0" encoding="UTF-8"?>
<svg id="Layer_1" xmlns="http://www.w3.org/2000/svg" version="1.1" viewBox="0 0 992.1 99.2">
  <!-- Generator: Adobe Illustrator 29.1.0, SVG Export Plug-In . SVG Version: 2.1.0 Build 142)  -->
  <defs>
    <style>
      .st0 {
        fill: #24331c;
      }
    </style>
  </defs>
  <path class="st0" d="M0,0v56.2c0,23.7,19.2,42.9,42.9,42.9s42.9-19.2,42.9-42.9c0,23.7,19.2,42.9,42.9,42.9s42.9-19.2,42.9-42.9c0,23.7,19.2,42.9,42.9,42.9s42.9-19.2,42.9-42.9c0,23.7,19.2,42.9,42.9,42.9s42.9-19.2,42.9-42.9c0,23.7,19.2,42.9,42.9,42.9s42.9-19.2,42.9-42.9c0,23.7,19.2,42.9,42.9,42.9s42.9-19.2,42.9-42.9c0,23.7,19.2,42.9,42.9,42.9s42.9-19.2,42.9-42.9c0,23.7,19.2,42.9,42.9,42.9s42.9-19.2,42.9-42.9c0,23.7,19.2,42.9,42.9,42.9s42.9-19.2,42.9-42.9c0,23.7,19.2,42.9,42.9,42.9s42.9-19.2,42.9-42.9c0,23.7,19.2,42.9,42.9,42.9s42.9-19.2,42.9-42.9c0,23.7,19.2,42.9,42.9,42.9s42.9-19.2,42.9-42.9V0H0Z"/>
</svg>