<?xml version="1.0" encoding="UTF-8"?>
<svg id="Layer_1" data-name="Layer 1" xmlns="http://www.w3.org/2000/svg" viewBox="0 0 586.63 593.48">
  <defs>
    <style>
      .cls-1 {
        fill: #24331c;
      }
    </style>
  </defs>
  <path class="cls-1" d="M535.07,296.74c31.83-31.43,51.56-75.09,51.56-123.36C586.63,77.63,509,0,413.24,0c-46.54,0-88.79,18.34-119.93,48.17C262.17,18.34,219.92,0,173.38,0,77.63,0,0,77.63,0,173.38c0,48.27,19.73,91.92,51.56,123.36C19.73,328.18,0,371.83,0,420.1c0,95.76,77.63,173.38,173.38,173.38,46.54,0,88.79-18.34,119.93-48.17,31.14,29.84,73.39,48.17,119.93,48.17,95.76,0,173.38-77.63,173.38-173.38,0-48.27-19.73-91.92-51.56-123.36Z"/>
</svg>