<?xml version="1.0" encoding="UTF-8"?>
<svg id="Layer_1" xmlns="http://www.w3.org/2000/svg" version="1.1" viewBox="0 0 586.6 593.5">
  <!-- Generator: Adobe Illustrator 29.1.0, SVG Export Plug-In . SVG Version: 2.1.0 Build 142)  -->
  <defs>
    <style>
      .st0 {
        font-size: 79px;
      }

      .st1 {
        fill: #db864f;
      }

      .st2 {
        fill: #fff8e6;
        font-family: 'Cloudsofa_namgim-Regular', Cloudsofa_namgim;
      }

      .st3 {
        font-size: 43.3px;
      }
    </style>
  </defs>
  <path class="st1" d="M535.1,296.7c31.8-31.4,51.6-75.1,51.6-123.4C586.6,77.6,509,0,413.2,0s-88.8,18.3-119.9,48.2C262.2,18.3,219.9,0,173.4,0,77.6,0,0,77.6,0,173.4s19.7,91.9,51.6,123.4C19.7,328.2,0,371.8,0,420.1c0,95.8,77.6,173.4,173.4,173.4s88.8-18.3,119.9-48.2c31.1,29.8,73.4,48.2,119.9,48.2,95.8,0,173.4-77.6,173.4-173.4s-19.7-91.9-51.6-123.4h0Z"/>
  <text class="st2" transform="translate(186.1 201)"><tspan class="st0"><tspan x="0" y="0">BEST</tspan></tspan><tspan class="st0"><tspan x="-80.9" y="81">CHOROGI</tspan></tspan><tspan class="st0"><tspan x="-16.2" y="162">NO.07</tspan></tspan><tspan class="st3"><tspan x="-13.6" y="238">Click HERE!</tspan></tspan></text>
</svg>